<svg xmlns="http://www.w3.org/2000/svg" xmlns:xlink="http://www.w3.org/1999/xlink" width="300" zoomAndPan="magnify" viewBox="0 0 224.87999 225" height="300" preserveAspectRatio="xMidYMid meet" version="1.0"><defs><filter x="0%" y="0%" width="100%" height="100%" id="a5753118e0"><feColorMatrix values="0 0 0 0 1 0 0 0 0 1 0 0 0 0 1 0 0 0 1 0" color-interpolation-filters="sRGB"/></filter><clipPath id="264be2dc66"><path d="M 10.992188 2.847656 L 126 2.847656 L 126 190 L 10.992188 190 Z M 10.992188 2.847656 " clip-rule="nonzero"/></clipPath><clipPath id="1eef53c51a"><path d="M 73 9 L 191.339844 9 L 191.339844 211 L 73 211 Z M 73 9 " clip-rule="nonzero"/></clipPath><mask id="366b5349bd"><g filter="url(#a5753118e0)"><rect x="-22.487999" width="269.855988" fill="#000000" y="-22.5" height="270" fill-opacity="0.29"/></g></mask><clipPath id="97f96c91b9"><path d="M 1.171875 0.109375 L 114 0.109375 L 114 183 L 1.171875 183 Z M 1.171875 0.109375 " clip-rule="nonzero"/></clipPath><clipPath id="1690a6fbb3"><path d="M 62 6 L 177.683594 6 L 177.683594 204.441406 L 62 204.441406 Z M 62 6 " clip-rule="nonzero"/></clipPath><clipPath id="b4c0771aa9"><rect x="0" width="179" y="0" height="205"/></clipPath></defs><g clip-path="url(#264be2dc66)"><path fill="#b08e4e" d="M 62.5 138.460938 C 38.457031 99.492188 16.855469 47.480469 62.519531 16.113281 C 80.578125 3.710938 103.703125 -0.480469 125.777344 5.957031 C 107.039062 1.703125 87.828125 5.867188 72.78125 16.597656 C 40.480469 39.613281 41.105469 75.390625 57.417969 108.792969 C 43.808594 67.867188 49.171875 39.230469 73.503906 22.90625 C 50.902344 46.757812 51.785156 79.171875 76.136719 120.148438 C 65.984375 141.3125 67.128906 164.300781 79.566406 189.105469 C 39.609375 154.246094 -14.039062 91 23.984375 37.054688 C 10.089844 77.546875 21.128906 116.152344 57.117188 152.890625 C 6.324219 87.980469 14.058594 34.082031 60.148438 10.578125 C 15.425781 38.671875 29.46875 106.054688 62.492188 138.460938 Z M 62.5 138.460938 " fill-opacity="1" fill-rule="evenodd"/></g><g clip-path="url(#1eef53c51a)"><path fill="#d2ae6d" d="M 133.546875 141.683594 C 176.421875 97.960938 183.457031 56.921875 154.65625 18.574219 C 181.429688 43.53125 187.585938 72.355469 173.105469 105.058594 C 163.371094 125.265625 149.394531 144.015625 131.167969 161.289062 C 174.582031 126.984375 192.363281 89.859375 184.507812 49.925781 C 201.191406 85.453125 187.257812 123.410156 142.730469 163.796875 C 122.394531 179.964844 109.667969 192.710938 104.539062 202.039062 L 104.492188 202.113281 L 104.445312 202.207031 L 104.277344 202.523438 L 104.195312 202.683594 L 104.175781 202.710938 L 104.113281 202.839844 L 103.878906 203.296875 L 103.871094 203.304688 L 103.648438 203.769531 L 103.601562 203.871094 L 103.574219 203.925781 L 103.378906 204.355469 L 103.367188 204.382812 L 103.339844 204.4375 L 103.300781 204.53125 L 103.183594 204.828125 L 103.117188 204.976562 L 103.117188 204.996094 L 102.949219 205.414062 L 102.894531 205.542969 L 102.882812 205.5625 L 102.699219 206.074219 L 102.679688 206.128906 L 102.539062 206.546875 L 102.523438 206.601562 L 102.375 207.105469 L 102.363281 207.113281 L 102.363281 207.121094 L 102.242188 207.625 L 102.234375 207.644531 C 102.160156 207.960938 102.09375 208.265625 102.046875 208.5625 L 102.039062 208.601562 L 102.03125 208.691406 L 101.972656 209.074219 L 101.925781 209.546875 L 101.925781 209.574219 L 101.910156 209.949219 L 101.898438 210.011719 L 101.898438 210.476562 L 101.917969 210.90625 C 77.808594 185.734375 69.023438 160.519531 75.558594 135.265625 C 79.191406 121.242188 85.402344 114.453125 91.636719 102.605469 C 102.839844 81.339844 101.230469 63.722656 86.8125 49.765625 C 100.933594 51.476562 107.734375 57.339844 107.242188 67.363281 C 111.527344 70.542969 113.675781 72.121094 113.675781 72.121094 C 113.878906 67.140625 112.167969 63.3125 108.5625 60.664062 C 119.207031 64.539062 127.234375 74.074219 132.644531 89.265625 C 129.882812 86.421875 127.320312 83.835938 124.941406 81.523438 C 130.527344 89.785156 131.863281 98.304688 128.964844 107.074219 C 128.277344 103.515625 127.132812 100.421875 125.527344 97.820312 C 125.777344 123.019531 90.570312 134.316406 93.8125 163.492188 C 101.351562 136.816406 118.082031 128.675781 132.050781 108.152344 C 150.863281 80.511719 152.90625 53.84375 138.175781 28.144531 C 159.570312 45.308594 159.925781 74.453125 139.253906 115.59375 C 157.285156 91.296875 162.992188 68.152344 156.375 46.152344 C 143.855469 17.535156 121.484375 6.582031 89.277344 13.308594 C 127.011719 0.570312 164.132812 19.785156 168.242188 59.660156 C 170.660156 83.03125 159.375 110 133.472656 141.695312 Z M 133.546875 141.683594 " fill-opacity="1" fill-rule="evenodd"/></g><g mask="url(#366b5349bd)"><g transform="matrix(1, 0, 0, 1, 36, 18)"><g clip-path="url(#b4c0771aa9)"><g clip-path="url(#97f96c91b9)"><path fill="#b08e4e" d="M 51.585938 133.222656 C 28.050781 94.972656 6.910156 43.917969 51.605469 13.128906 C 69.277344 0.953125 91.910156 -3.160156 113.515625 3.160156 C 95.175781 -1.015625 76.375 3.070312 61.648438 13.605469 C 30.035156 36.195312 30.644531 71.316406 46.609375 104.101562 C 33.292969 63.929688 38.542969 35.820312 62.355469 19.796875 C 40.234375 43.207031 41.097656 75.027344 64.929688 115.246094 C 54.996094 136.023438 56.117188 158.585938 68.289062 182.9375 C 29.179688 148.71875 -23.324219 86.636719 13.890625 33.6875 C 0.289062 73.433594 11.097656 111.324219 46.320312 147.386719 C -3.394531 83.671875 4.175781 30.769531 49.285156 7.695312 C 5.511719 35.273438 19.257812 101.414062 51.578125 133.222656 Z M 51.585938 133.222656 " fill-opacity="1" fill-rule="evenodd"/></g><g clip-path="url(#1690a6fbb3)"><path fill="#d2ae6d" d="M 121.121094 136.386719 C 163.082031 93.46875 169.96875 53.183594 141.777344 15.546875 C 167.988281 40.042969 174.007812 68.332031 159.835938 100.4375 C 150.3125 120.273438 136.628906 138.675781 118.792969 155.632812 C 161.28125 121.960938 178.683594 85.515625 170.996094 46.316406 C 187.324219 81.191406 173.691406 118.449219 130.109375 158.09375 C 110.203125 173.960938 97.75 186.476562 92.730469 195.632812 L 92.683594 195.703125 L 92.640625 195.796875 L 92.476562 196.105469 L 92.394531 196.261719 L 92.375 196.289062 L 92.3125 196.417969 L 92.085938 196.863281 L 92.074219 196.871094 L 91.855469 197.328125 L 91.8125 197.429688 L 91.785156 197.484375 L 91.59375 197.902344 L 91.582031 197.929688 L 91.554688 197.984375 L 91.519531 198.074219 L 91.402344 198.367188 L 91.339844 198.515625 L 91.339844 198.53125 L 91.175781 198.941406 L 91.121094 199.070312 L 91.109375 199.089844 L 90.929688 199.589844 L 90.910156 199.644531 L 90.773438 200.054688 L 90.757812 200.109375 L 90.609375 200.601562 L 90.601562 200.613281 L 90.601562 200.621094 L 90.484375 201.113281 L 90.472656 201.132812 C 90.402344 201.441406 90.335938 201.742188 90.292969 202.035156 L 90.28125 202.070312 L 90.273438 202.160156 L 90.21875 202.535156 L 90.171875 203 L 90.171875 203.027344 L 90.15625 203.394531 L 90.144531 203.457031 L 90.144531 203.914062 L 90.164062 204.332031 C 66.566406 179.625 57.972656 154.875 64.367188 130.085938 C 67.921875 116.324219 74 109.65625 80.105469 98.027344 C 91.066406 77.152344 89.492188 59.859375 75.382812 46.164062 C 89.199219 47.839844 95.859375 53.597656 95.378906 63.4375 C 99.570312 66.554688 101.671875 68.105469 101.671875 68.105469 C 101.871094 63.21875 100.199219 59.460938 96.667969 56.859375 C 107.085938 60.664062 114.945312 70.019531 120.238281 84.933594 C 117.535156 82.140625 115.027344 79.605469 112.695312 77.335938 C 118.164062 85.441406 119.472656 93.804688 116.636719 102.414062 C 115.960938 98.921875 114.84375 95.886719 113.269531 93.332031 C 113.515625 118.066406 79.058594 129.15625 82.230469 157.792969 C 89.609375 131.609375 105.984375 123.621094 119.65625 103.472656 C 138.066406 76.339844 140.070312 50.167969 125.652344 24.941406 C 146.589844 41.785156 146.9375 70.394531 126.707031 110.777344 C 144.351562 86.929688 149.9375 64.210938 143.460938 42.613281 C 131.207031 14.523438 109.3125 3.773438 77.792969 10.375 C 114.726562 -2.128906 151.058594 16.730469 155.078125 55.875 C 157.445312 78.8125 146.398438 105.289062 121.046875 136.398438 Z M 121.121094 136.386719 " fill-opacity="1" fill-rule="evenodd"/></g></g></g></g></svg>