<svg xmlns="http://www.w3.org/2000/svg" xmlns:xlink="http://www.w3.org/1999/xlink" width="500" zoomAndPan="magnify" viewBox="0 0 375 374.999991" height="500" preserveAspectRatio="xMidYMid meet" version="1.0"><defs><g/><clipPath id="4217fcbef9"><path d="M 98.222656 27.804688 L 216 27.804688 L 216 218 L 98.222656 218 Z M 98.222656 27.804688 " clip-rule="nonzero"/></clipPath><clipPath id="fbca0ce51e"><path d="M 161 34 L 281.992188 34 L 281.992188 239.636719 L 161 239.636719 Z M 161 34 " clip-rule="nonzero"/></clipPath></defs><g clip-path="url(#4217fcbef9)"><path fill="#b08e4e" d="M 150.710938 165.804688 C 126.210938 126.152344 104.199219 73.222656 150.730469 41.304688 C 169.128906 28.683594 192.695312 24.417969 215.1875 30.96875 C 196.09375 26.640625 176.519531 30.875 161.183594 41.796875 C 128.273438 65.214844 128.910156 101.625 145.53125 135.617188 C 131.664062 93.96875 137.128906 64.828125 161.921875 48.214844 C 138.890625 72.484375 139.789062 105.472656 164.605469 147.167969 C 154.261719 168.707031 155.425781 192.097656 168.097656 217.34375 C 127.382812 181.867188 72.71875 117.511719 111.464844 62.617188 C 97.304688 103.820312 108.554688 143.105469 145.226562 180.488281 C 93.46875 114.4375 101.347656 59.589844 148.3125 35.667969 C 102.742188 64.261719 117.050781 132.828125 150.699219 165.804688 Z M 150.710938 165.804688 " fill-opacity="1" fill-rule="evenodd"/></g><g clip-path="url(#fbca0ce51e)"><path fill="#d2ae6d" d="M 223.105469 169.085938 C 266.792969 124.589844 273.960938 82.828125 244.613281 43.808594 C 271.894531 69.207031 278.164062 98.535156 263.410156 131.816406 C 253.496094 152.378906 239.25 171.460938 220.679688 189.035156 C 264.917969 154.128906 283.035156 116.347656 275.03125 75.710938 C 292.03125 111.867188 277.835938 150.488281 232.460938 191.589844 C 211.738281 208.039062 198.773438 221.011719 193.546875 230.503906 L 193.5 230.578125 L 193.449219 230.675781 L 193.28125 230.996094 L 193.195312 231.15625 L 193.175781 231.183594 L 193.109375 231.316406 L 192.875 231.78125 L 192.863281 231.789062 L 192.636719 232.261719 L 192.589844 232.367188 L 192.5625 232.421875 L 192.363281 232.859375 L 192.351562 232.886719 L 192.324219 232.945312 L 192.285156 233.039062 L 192.164062 233.339844 L 192.097656 233.492188 L 192.097656 233.511719 L 191.925781 233.9375 L 191.871094 234.070312 L 191.859375 234.085938 L 191.671875 234.609375 L 191.652344 234.664062 L 191.507812 235.089844 L 191.492188 235.148438 L 191.339844 235.65625 L 191.328125 235.667969 L 191.328125 235.675781 L 191.207031 236.1875 L 191.195312 236.207031 C 191.121094 236.527344 191.054688 236.839844 191.007812 237.140625 L 191 237.179688 L 190.988281 237.273438 L 190.933594 237.660156 L 190.882812 238.144531 L 190.882812 238.171875 L 190.867188 238.550781 L 190.855469 238.617188 L 190.855469 239.089844 L 190.875 239.523438 C 166.308594 213.910156 157.359375 188.25 164.015625 162.550781 C 167.71875 148.285156 174.046875 141.375 180.402344 129.320312 C 191.8125 107.675781 190.175781 89.75 175.484375 75.550781 C 189.871094 77.289062 196.804688 83.253906 196.300781 93.457031 C 200.667969 96.691406 202.855469 98.296875 202.855469 98.296875 C 203.0625 93.230469 201.320312 89.335938 197.648438 86.640625 C 208.492188 90.582031 216.671875 100.285156 222.183594 115.742188 C 219.371094 112.847656 216.757812 110.21875 214.332031 107.867188 C 220.027344 116.269531 221.390625 124.941406 218.433594 133.867188 C 217.734375 130.246094 216.570312 127.097656 214.929688 124.449219 C 215.1875 150.089844 179.3125 161.589844 182.617188 191.277344 C 190.296875 164.132812 207.34375 155.847656 221.578125 134.964844 C 240.746094 106.835938 242.832031 79.699219 227.820312 53.546875 C 249.621094 71.011719 249.980469 100.671875 228.917969 142.535156 C 247.292969 117.8125 253.105469 94.261719 246.363281 71.871094 C 233.605469 42.75 210.8125 31.601562 177.996094 38.449219 C 216.445312 25.484375 254.269531 45.039062 258.457031 85.617188 C 260.917969 109.398438 249.421875 136.84375 223.027344 169.09375 Z M 223.105469 169.085938 " fill-opacity="1" fill-rule="evenodd"/></g><g fill="#d2ae6d" fill-opacity="1"><g transform="translate(48.513257, 301.425343)"><g><path d="M 18.816406 2.417969 L 36.980469 -40.105469 L 32.5 -40.105469 L 18.816406 -7.785156 L 5.074219 -40.105469 L 0.589844 -40.105469 Z M 18.816406 2.417969 "/></g></g></g><g fill="#d2ae6d" fill-opacity="1"><g transform="translate(98.880052, 301.425343)"><g><path d="M 8.550781 0 L 8.550781 -40.105469 L 4.421875 -40.105469 L 4.421875 0 Z M 8.550781 0 "/></g></g></g><g fill="#d2ae6d" fill-opacity="1"><g transform="translate(124.654759, 301.425343)"><g><path d="M 8.550781 -19.816406 L 8.550781 -36.15625 L 17.871094 -36.15625 C 20.289062 -36.15625 22.234375 -35.386719 23.710938 -33.855469 C 25.125 -32.320312 25.894531 -30.433594 25.894531 -28.074219 C 25.894531 -25.714844 25.125 -23.769531 23.59375 -22.175781 C 22.058594 -20.585938 20.171875 -19.816406 17.871094 -19.816406 Z M 30.019531 -28.015625 C 30.019531 -31.4375 28.722656 -34.386719 26.246094 -36.6875 C 23.828125 -38.925781 20.820312 -40.105469 17.28125 -40.105469 L 4.421875 -40.105469 L 4.421875 0 L 8.550781 0 L 8.550781 -15.867188 L 13.328125 -15.867188 L 25.125 0 L 30.671875 0 L 18.285156 -15.867188 C 21.410156 -16.042969 24.0625 -17.164062 26.246094 -19.226562 C 28.722656 -21.527344 30.019531 -24.476562 30.019531 -28.015625 Z M 30.019531 -28.015625 "/></g></g></g><g fill="#d2ae6d" fill-opacity="1"><g transform="translate(169.536986, 301.425343)"><g><path d="M 1.179688 -36.390625 L 10.910156 -36.390625 L 10.910156 -0.117188 L 15.039062 -0.117188 L 15.039062 -36.390625 L 24.773438 -36.390625 L 24.773438 -40.226562 L 1.179688 -40.226562 Z M 1.179688 -36.390625 "/></g></g></g><g fill="#d2ae6d" fill-opacity="1"><g transform="translate(208.285938, 301.425343)"><g><path d="M 33.441406 -13.269531 L 33.441406 -40.105469 L 29.3125 -40.105469 L 29.3125 -12.679688 C 29.3125 -11.03125 29.019531 -9.671875 28.429688 -8.550781 C 26.71875 -5.25 23.414062 -3.597656 18.519531 -3.597656 C 15.335938 -3.597656 12.800781 -4.304688 10.910156 -5.722656 C 8.730469 -7.3125 7.667969 -9.613281 7.667969 -12.679688 L 7.667969 -40.105469 L 3.539062 -40.105469 L 3.539062 -13.269531 C 3.539062 -8.90625 4.953125 -5.484375 7.785156 -3.007812 C 10.441406 -0.648438 14.039062 0.53125 18.519531 0.53125 C 22.945312 0.53125 26.480469 -0.648438 29.195312 -3.007812 C 32.027344 -5.484375 33.441406 -8.90625 33.441406 -13.269531 Z M 33.441406 -13.269531 "/></g></g></g><g fill="#d2ae6d" fill-opacity="1"><g transform="translate(258.062999, 301.425343)"><g><path d="M 10.910156 -14.746094 L 18.226562 -33.207031 L 25.480469 -14.746094 Z M 35.800781 0 L 18.226562 -42.878906 L 0.589844 0 L 5.074219 0 L 9.378906 -10.910156 L 27.011719 -10.910156 L 31.320312 0 Z M 35.800781 0 "/></g></g></g><g fill="#d2ae6d" fill-opacity="1"><g transform="translate(307.250313, 301.425343)"><g><path d="M 8.550781 -4.128906 L 8.550781 -40.105469 L 4.421875 -40.105469 L 4.421875 0 L 22.882812 0 L 22.882812 -4.128906 Z M 8.550781 -4.128906 "/></g></g></g><g fill="#b08e4e" fill-opacity="1"><g transform="translate(57.91609, 338.159559)"><g><path d="M 13.230469 0 L 13.230469 -1.796875 L 4.003906 -1.796875 L 4.003906 -8.480469 L 12.953125 -8.480469 L 12.953125 -10.300781 L 4.003906 -10.300781 L 4.003906 -16.984375 L 13.230469 -16.984375 L 13.230469 -18.78125 L 2.070312 -18.78125 L 2.070312 0 Z M 13.230469 0 "/></g></g></g><g fill="#b08e4e" fill-opacity="1"><g transform="translate(95.309493, 338.159559)"><g><path d="M 0.550781 -17.039062 L 5.109375 -17.039062 L 5.109375 -0.0546875 L 7.042969 -0.0546875 L 7.042969 -17.039062 L 11.597656 -17.039062 L 11.597656 -18.835938 L 0.550781 -18.835938 Z M 0.550781 -17.039062 "/></g></g></g><g fill="#b08e4e" fill-opacity="1"><g transform="translate(129.555032, 338.159559)"><g><path d="M 13.230469 0 L 13.230469 -1.796875 L 4.003906 -1.796875 L 4.003906 -8.480469 L 12.953125 -8.480469 L 12.953125 -10.300781 L 4.003906 -10.300781 L 4.003906 -16.984375 L 13.230469 -16.984375 L 13.230469 -18.78125 L 2.070312 -18.78125 L 2.070312 0 Z M 13.230469 0 "/></g></g></g><g fill="#b08e4e" fill-opacity="1"><g transform="translate(166.948441, 338.159559)"><g><path d="M 4.003906 -9.28125 L 4.003906 -16.929688 L 8.367188 -16.929688 C 9.5 -16.929688 10.410156 -16.570312 11.101562 -15.851562 C 11.765625 -15.132812 12.125 -14.25 12.125 -13.144531 C 12.125 -12.042969 11.765625 -11.128906 11.046875 -10.382812 C 10.328125 -9.636719 9.445312 -9.28125 8.367188 -9.28125 Z M 14.058594 -13.117188 C 14.058594 -14.71875 13.449219 -16.101562 12.289062 -17.179688 C 11.15625 -18.226562 9.75 -18.78125 8.09375 -18.78125 L 2.070312 -18.78125 L 2.070312 0 L 4.003906 0 L 4.003906 -7.429688 L 6.242188 -7.429688 L 11.765625 0 L 14.363281 0 L 8.5625 -7.429688 C 10.023438 -7.511719 11.269531 -8.035156 12.289062 -9.003906 C 13.449219 -10.082031 14.058594 -11.460938 14.058594 -13.117188 Z M 14.058594 -13.117188 "/></g></g></g><g fill="#b08e4e" fill-opacity="1"><g transform="translate(204.065732, 338.159559)"><g><path d="M 4.003906 -13.835938 L 14.554688 1.160156 L 14.554688 -18.78125 L 12.621094 -18.78125 L 12.621094 -4.972656 L 2.070312 -19.96875 L 2.070312 0 L 4.003906 0 Z M 4.003906 -13.835938 "/></g></g></g><g fill="#b08e4e" fill-opacity="1"><g transform="translate(242.784556, 338.159559)"><g><path d="M 4.003906 0 L 4.003906 -18.78125 L 2.070312 -18.78125 L 2.070312 0 Z M 4.003906 0 "/></g></g></g><g fill="#b08e4e" fill-opacity="1"><g transform="translate(270.955264, 338.159559)"><g><path d="M 0.550781 -17.039062 L 5.109375 -17.039062 L 5.109375 -0.0546875 L 7.042969 -0.0546875 L 7.042969 -17.039062 L 11.597656 -17.039062 L 11.597656 -18.835938 L 0.550781 -18.835938 Z M 0.550781 -17.039062 "/></g></g></g><g fill="#b08e4e" fill-opacity="1"><g transform="translate(305.200795, 338.159559)"><g><path d="M 9.335938 -8.835938 L 16.433594 -18.78125 L 13.976562 -18.78125 L 8.367188 -10.742188 L 2.761719 -18.78125 L 0.277344 -18.78125 L 7.402344 -8.808594 L 7.402344 0 L 9.335938 0 Z M 9.335938 -8.835938 "/></g></g></g></svg>