<svg xmlns="http://www.w3.org/2000/svg" xmlns:xlink="http://www.w3.org/1999/xlink" width="48" zoomAndPan="magnify" viewBox="0 0 45 44.999999" height="48" preserveAspectRatio="xMidYMid meet" version="1.0"><defs><clipPath id="ef24ea8d70"><path d="M 1.082031 1.296875 L 43.832031 1.296875 L 43.832031 44.046875 L 1.082031 44.046875 Z M 1.082031 1.296875 " clip-rule="nonzero"/></clipPath></defs><g clip-path="url(#ef24ea8d70)"><path fill="#d2ae6d" d="M 1.820312 18.304688 C 1.617188 18.304688 1.445312 18.378906 1.300781 18.523438 C 1.15625 18.667969 1.082031 18.839844 1.082031 19.046875 L 1.082031 26.441406 C 1.082031 26.644531 1.15625 26.820312 1.300781 26.964844 C 1.445312 27.109375 1.617188 27.179688 1.820312 27.179688 L 4.582031 27.179688 C 5.027344 28.996094 5.734375 30.699219 6.703125 32.296875 L 4.78125 34.25 C 4.636719 34.390625 4.566406 34.566406 4.566406 34.765625 C 4.558594 34.980469 4.628906 35.164062 4.78125 35.3125 L 9.957031 40.492188 C 10.101562 40.632812 10.273438 40.707031 10.476562 40.707031 C 10.679688 40.707031 10.855469 40.632812 11 40.492188 L 12.953125 38.539062 C 14.554688 39.519531 16.265625 40.238281 18.089844 40.691406 L 18.089844 43.449219 C 18.089844 43.652344 18.164062 43.828125 18.308594 43.972656 C 18.453125 44.117188 18.625 44.1875 18.832031 44.1875 L 26.226562 44.1875 C 26.429688 44.1875 26.605469 44.117188 26.75 43.972656 C 26.894531 43.828125 26.964844 43.652344 26.964844 43.449219 L 26.964844 40.691406 C 28.78125 40.246094 30.484375 39.539062 32.082031 38.566406 L 34.035156 40.492188 C 34.179688 40.640625 34.355469 40.71875 34.566406 40.71875 C 34.777344 40.71875 34.953125 40.640625 35.097656 40.492188 L 40.277344 35.3125 C 40.417969 35.167969 40.492188 34.992188 40.488281 34.789062 C 40.488281 34.585938 40.417969 34.414062 40.277344 34.269531 L 38.351562 32.296875 C 39.324219 30.699219 40.03125 28.996094 40.476562 27.179688 L 43.234375 27.179688 C 43.4375 27.179688 43.613281 27.109375 43.757812 26.964844 C 43.902344 26.820312 43.972656 26.644531 43.972656 26.441406 L 43.972656 19.046875 C 43.972656 18.839844 43.902344 18.667969 43.757812 18.523438 C 43.613281 18.378906 43.4375 18.304688 43.234375 18.304688 L 40.476562 18.304688 C 40.03125 16.492188 39.324219 14.785156 38.351562 13.1875 L 40.277344 11.234375 C 40.417969 11.09375 40.488281 10.921875 40.488281 10.71875 C 40.496094 10.503906 40.425781 10.324219 40.277344 10.171875 L 35.097656 4.996094 C 34.953125 4.851562 34.78125 4.78125 34.578125 4.78125 C 34.375 4.78125 34.199219 4.851562 34.054688 4.996094 L 32.082031 6.917969 C 30.484375 5.949219 28.78125 5.242188 26.964844 4.796875 L 26.964844 2.035156 C 26.964844 1.832031 26.894531 1.660156 26.75 1.515625 C 26.605469 1.371094 26.429688 1.296875 26.226562 1.296875 L 18.832031 1.296875 C 18.625 1.296875 18.453125 1.371094 18.308594 1.515625 C 18.164062 1.660156 18.089844 1.832031 18.089844 2.035156 L 18.089844 4.796875 C 16.277344 5.242188 14.570312 5.949219 12.972656 6.917969 L 11.019531 4.996094 C 10.875 4.84375 10.699219 4.769531 10.488281 4.769531 C 10.28125 4.769531 10.101562 4.84375 9.957031 4.996094 L 4.78125 10.171875 C 4.636719 10.316406 4.5625 10.492188 4.566406 10.695312 C 4.566406 10.898438 4.636719 11.070312 4.78125 11.214844 L 6.730469 13.167969 C 5.75 14.769531 5.03125 16.480469 4.582031 18.304688 Z M 14.777344 32.621094 C 13.265625 31.441406 12.089844 29.988281 11.242188 28.265625 L 11.863281 28.613281 C 13.230469 29.386719 14.691406 29.683594 16.25 29.507812 Z M 17.824219 32.621094 L 16.125 33.273438 L 17.78125 29.761719 C 17.929688 29.449219 18.117188 29.164062 18.34375 28.902344 C 18.453125 28.773438 18.511719 28.625 18.523438 28.457031 C 18.53125 28.289062 18.488281 28.132812 18.390625 27.996094 C 18.292969 27.855469 18.164062 27.761719 18 27.710938 C 17.839844 27.660156 17.679688 27.667969 17.523438 27.726562 C 16.714844 28.039062 15.878906 28.160156 15.015625 28.097656 C 14.152344 28.035156 13.34375 27.789062 12.589844 27.363281 L 8.683594 25.144531 L 13.070312 24.71875 C 13.953125 24.632812 14.8125 24.742188 15.644531 25.050781 C 15.800781 25.09375 15.957031 25.085938 16.109375 25.023438 C 16.261719 24.960938 16.382812 24.863281 16.46875 24.722656 C 16.554688 24.582031 16.589844 24.429688 16.574219 24.265625 C 16.558594 24.101562 16.492188 23.957031 16.382812 23.835938 C 15.980469 23.425781 15.636719 22.964844 15.355469 22.460938 L 12.183594 16.789062 L 17.542969 20.082031 C 18.640625 20.761719 19.457031 21.6875 19.992188 22.859375 C 20.066406 23.046875 20.191406 23.179688 20.375 23.265625 C 20.558594 23.347656 20.742188 23.351562 20.929688 23.285156 C 21.121094 23.21875 21.257812 23.09375 21.34375 22.914062 C 21.433594 22.734375 21.445312 22.546875 21.382812 22.359375 C 20.921875 20.648438 20.859375 18.921875 21.195312 17.183594 L 22.527344 10.402344 L 23.820312 17.152344 C 24.15625 18.890625 24.097656 20.617188 23.636719 22.328125 C 23.574219 22.519531 23.585938 22.703125 23.675781 22.882812 C 23.761719 23.0625 23.898438 23.1875 24.085938 23.253906 C 24.277344 23.324219 24.460938 23.316406 24.644531 23.234375 C 24.824219 23.152344 24.953125 23.019531 25.027344 22.832031 C 25.5625 21.65625 26.378906 20.730469 27.476562 20.050781 L 32.835938 16.761719 L 29.664062 22.433594 C 29.382812 22.9375 29.039062 23.394531 28.636719 23.808594 C 28.515625 23.929688 28.449219 24.078125 28.429688 24.25 C 28.414062 24.417969 28.449219 24.578125 28.542969 24.722656 C 28.636719 24.867188 28.761719 24.964844 28.925781 25.023438 C 29.089844 25.078125 29.25 25.078125 29.414062 25.019531 C 30.246094 24.714844 31.101562 24.605469 31.984375 24.695312 L 36.371094 25.117188 L 32.464844 27.335938 C 31.710938 27.761719 30.902344 28.003906 30.039062 28.066406 C 29.179688 28.132812 28.34375 28.007812 27.535156 27.699219 C 27.375 27.636719 27.214844 27.632812 27.054688 27.683594 C 26.890625 27.730469 26.761719 27.828125 26.664062 27.964844 C 26.570312 28.105469 26.523438 28.257812 26.535156 28.425781 C 26.542969 28.597656 26.601562 28.746094 26.714844 28.875 C 26.9375 29.136719 27.125 29.421875 27.277344 29.730469 L 28.933594 33.242188 L 27.230469 32.59375 L 26.699219 33.984375 L 27.511719 34.285156 C 26.15625 34.878906 24.742188 35.222656 23.265625 35.3125 L 23.265625 32.132812 C 23.769531 32.675781 24.363281 33.082031 25.050781 33.347656 L 25.234375 33.414062 L 25.738281 32.023438 L 25.566406 31.964844 C 24.917969 31.703125 24.386719 31.289062 23.972656 30.726562 C 23.558594 30.164062 23.324219 29.53125 23.265625 28.835938 L 25.332031 30.988281 L 26.394531 29.96875 L 24.117188 27.585938 L 30.410156 27.113281 L 30.300781 25.632812 L 24.96875 26.035156 L 29.207031 21.597656 L 28.164062 20.597656 L 23.265625 25.699219 L 23.265625 19.785156 L 21.789062 19.785156 L 21.789062 25.699219 L 16.894531 20.597656 L 15.820312 21.617188 L 20.058594 26.054688 L 14.726562 25.65625 L 14.617188 27.136719 L 20.910156 27.609375 L 18.628906 29.988281 L 19.695312 31.011719 L 21.789062 28.835938 C 21.734375 29.527344 21.503906 30.152344 21.097656 30.714844 C 20.695312 31.273438 20.171875 31.6875 19.53125 31.957031 L 19.347656 32.023438 L 19.851562 33.414062 L 20.050781 33.339844 C 20.71875 33.070312 21.296875 32.671875 21.789062 32.140625 L 21.789062 35.3125 C 20.3125 35.226562 18.898438 34.890625 17.542969 34.300781 L 18.355469 33.996094 Z M 9.957031 22.742188 C 9.957031 20.980469 10.3125 19.292969 11.027344 17.683594 L 14.105469 23.179688 L 14.105469 23.222656 C 13.703125 23.191406 13.300781 23.191406 12.898438 23.222656 L 9.941406 23.511719 C 9.957031 23.273438 9.957031 23.007812 9.957031 22.742188 Z M 12.476562 15.207031 C 13.507812 13.832031 14.765625 12.710938 16.253906 11.855469 C 17.742188 10.996094 19.34375 10.46875 21.050781 10.265625 L 19.785156 16.871094 C 19.609375 17.816406 19.539062 18.765625 19.570312 19.726562 C 19.199219 19.382812 18.800781 19.078125 18.371094 18.816406 Z M 35.097656 23.527344 L 32.140625 23.246094 C 31.738281 23.207031 31.335938 23.207031 30.9375 23.246094 L 30.9375 23.203125 L 34.011719 17.707031 C 34.730469 19.308594 35.089844 20.988281 35.097656 22.742188 C 35.097656 23.007812 35.097656 23.273438 35.097656 23.527344 Z M 24.007812 10.265625 C 25.714844 10.46875 27.3125 10.996094 28.800781 11.855469 C 30.289062 12.710938 31.550781 13.832031 32.578125 15.207031 L 26.707031 18.816406 C 26.269531 19.082031 25.863281 19.382812 25.484375 19.726562 C 25.511719 18.765625 25.433594 17.8125 25.25 16.871094 Z M 28.804688 29.496094 C 30.363281 29.667969 31.824219 29.371094 33.191406 28.597656 L 33.8125 28.25 C 32.964844 29.972656 31.789062 31.425781 30.277344 32.609375 Z M 5.890625 19.199219 C 6.328125 17.148438 7.117188 15.242188 8.261719 13.484375 C 8.359375 13.339844 8.394531 13.179688 8.378906 13.003906 C 8.359375 12.832031 8.289062 12.683594 8.167969 12.558594 L 6.316406 10.71875 L 10.503906 6.53125 L 12.34375 8.382812 C 12.46875 8.507812 12.617188 8.578125 12.792969 8.597656 C 12.96875 8.613281 13.128906 8.574219 13.277344 8.476562 C 15.03125 7.332031 16.933594 6.539062 18.984375 6.105469 C 19.160156 6.066406 19.300781 5.980469 19.410156 5.839844 C 19.519531 5.699219 19.574219 5.542969 19.570312 5.363281 L 19.570312 2.777344 L 25.484375 2.777344 L 25.484375 5.386719 C 25.480469 5.5625 25.535156 5.722656 25.644531 5.863281 C 25.753906 6 25.898438 6.089844 26.070312 6.125 C 28.121094 6.5625 30.023438 7.351562 31.777344 8.5 C 31.925781 8.597656 32.085938 8.636719 32.261719 8.617188 C 32.4375 8.601562 32.585938 8.527344 32.710938 8.402344 L 34.550781 6.554688 L 38.738281 10.742188 L 36.890625 12.582031 C 36.765625 12.707031 36.695312 12.855469 36.675781 13.027344 C 36.660156 13.199219 36.699219 13.359375 36.792969 13.507812 C 37.9375 15.265625 38.730469 17.171875 39.167969 19.222656 C 39.203125 19.394531 39.292969 19.539062 39.429688 19.648438 C 39.570312 19.757812 39.730469 19.8125 39.90625 19.808594 L 42.496094 19.808594 L 42.496094 25.722656 L 39.882812 25.722656 C 39.707031 25.71875 39.546875 25.773438 39.410156 25.882812 C 39.269531 25.992188 39.179688 26.132812 39.144531 26.308594 C 38.707031 28.359375 37.914062 30.265625 36.769531 32.023438 C 36.675781 32.167969 36.636719 32.328125 36.65625 32.503906 C 36.671875 32.675781 36.742188 32.824219 36.867188 32.949219 L 38.714844 34.789062 L 34.53125 38.972656 L 32.6875 37.125 C 32.566406 37 32.414062 36.929688 32.238281 36.910156 C 32.066406 36.894531 31.902344 36.933594 31.757812 37.03125 C 30 38.175781 28.097656 38.96875 26.046875 39.402344 C 25.875 39.441406 25.734375 39.527344 25.621094 39.667969 C 25.511719 39.808594 25.460938 39.964844 25.464844 40.144531 L 25.464844 42.710938 L 23.265625 42.710938 L 23.265625 36.792969 C 25.449219 36.675781 27.488281 36.082031 29.390625 35.011719 L 30.128906 35.292969 C 30.214844 35.320312 30.300781 35.335938 30.390625 35.335938 C 30.515625 35.335938 30.632812 35.304688 30.746094 35.242188 C 30.855469 35.183594 30.945312 35.097656 31.011719 34.992188 C 31.078125 34.882812 31.117188 34.765625 31.125 34.640625 C 31.132812 34.511719 31.109375 34.394531 31.054688 34.277344 L 30.929688 34.011719 C 32.082031 33.144531 33.078125 32.121094 33.914062 30.945312 C 34.753906 29.769531 35.394531 28.496094 35.839844 27.121094 L 39.128906 25.277344 C 39.277344 25.207031 39.390625 25.097656 39.464844 24.953125 C 39.539062 24.804688 39.5625 24.648438 39.535156 24.488281 C 39.503906 24.328125 39.429688 24.195312 39.308594 24.085938 C 39.1875 23.976562 39.046875 23.914062 38.886719 23.894531 L 36.578125 23.675781 C 36.578125 23.371094 36.578125 23.0625 36.578125 22.742188 C 36.578125 20.382812 36.023438 18.164062 34.90625 16.085938 L 35.511719 15 C 35.59375 14.855469 35.621094 14.699219 35.597656 14.53125 C 35.570312 14.367188 35.5 14.226562 35.378906 14.109375 C 35.257812 13.996094 35.117188 13.929688 34.949219 13.910156 C 34.785156 13.890625 34.628906 13.921875 34.484375 14.007812 L 33.84375 14.402344 C 33.25 13.59375 32.578125 12.859375 31.828125 12.195312 C 31.078125 11.535156 30.265625 10.957031 29.394531 10.46875 C 28.519531 9.976562 27.605469 9.585938 26.648438 9.292969 C 25.691406 8.996094 24.714844 8.808594 23.71875 8.722656 L 23.265625 6.332031 C 23.265625 6.128906 23.195312 5.953125 23.050781 5.808594 C 22.90625 5.667969 22.730469 5.59375 22.527344 5.59375 C 22.324219 5.59375 22.148438 5.667969 22.003906 5.808594 C 21.859375 5.953125 21.789062 6.128906 21.789062 6.332031 L 21.324219 8.75 C 20.328125 8.839844 19.351562 9.027344 18.394531 9.324219 C 17.441406 9.617188 16.527344 10.011719 15.65625 10.5 C 14.785156 10.988281 13.972656 11.566406 13.222656 12.226562 C 12.476562 12.890625 11.804688 13.625 11.214844 14.429688 L 10.570312 14.039062 C 10.425781 13.953125 10.273438 13.917969 10.105469 13.9375 C 9.941406 13.957031 9.796875 14.023438 9.675781 14.140625 C 9.558594 14.257812 9.484375 14.398438 9.460938 14.5625 C 9.433594 14.726562 9.460938 14.882812 9.542969 15.03125 L 10.148438 16.085938 C 9.03125 18.164062 8.476562 20.382812 8.476562 22.742188 C 8.476562 23.0625 8.476562 23.371094 8.476562 23.675781 L 6.15625 23.894531 C 5.992188 23.914062 5.851562 23.976562 5.734375 24.085938 C 5.613281 24.195312 5.535156 24.328125 5.503906 24.488281 C 5.472656 24.644531 5.492188 24.796875 5.558594 24.941406 C 5.625 25.089844 5.726562 25.199219 5.867188 25.277344 L 9.21875 27.121094 C 9.667969 28.492188 10.316406 29.765625 11.160156 30.9375 C 12.003906 32.109375 13.007812 33.128906 14.164062 33.992188 L 14.039062 34.257812 C 13.894531 34.554688 13.933594 34.828125 14.160156 35.074219 C 14.382812 35.320312 14.652344 35.386719 14.960938 35.269531 L 15.703125 34.988281 C 17.589844 36.0625 19.621094 36.664062 21.789062 36.792969 L 21.789062 42.710938 L 19.570312 42.710938 L 19.570312 40.097656 C 19.574219 39.921875 19.519531 39.761719 19.410156 39.625 C 19.300781 39.484375 19.160156 39.394531 18.984375 39.359375 C 16.933594 38.921875 15.03125 38.132812 13.277344 36.984375 C 13.128906 36.886719 12.96875 36.847656 12.792969 36.867188 C 12.617188 36.886719 12.46875 36.957031 12.34375 37.082031 L 10.503906 38.929688 L 6.316406 34.746094 L 8.167969 32.902344 C 8.289062 32.78125 8.359375 32.632812 8.378906 32.457031 C 8.394531 32.285156 8.359375 32.125 8.261719 31.980469 C 7.121094 30.226562 6.328125 28.328125 5.890625 26.285156 C 5.851562 26.113281 5.765625 25.96875 5.625 25.859375 C 5.484375 25.75 5.328125 25.695312 5.148438 25.699219 L 2.5625 25.699219 L 2.5625 19.785156 L 5.171875 19.785156 C 5.34375 19.785156 5.5 19.726562 5.632812 19.617188 C 5.765625 19.507812 5.851562 19.371094 5.890625 19.199219 Z M 5.890625 19.199219 " fill-opacity="1" fill-rule="nonzero"/></g><path fill="#d2ae6d" d="M 21.789062 16.828125 L 23.265625 16.828125 L 23.265625 18.304688 L 21.789062 18.304688 Z M 21.789062 16.828125 " fill-opacity="1" fill-rule="nonzero"/><path fill="#d2ae6d" d="M 21.789062 3.515625 L 23.265625 3.515625 L 23.265625 4.996094 L 21.789062 4.996094 Z M 21.789062 3.515625 " fill-opacity="1" fill-rule="nonzero"/><path fill="#d2ae6d" d="M 40.277344 22.003906 L 41.753906 22.003906 L 41.753906 23.480469 L 40.277344 23.480469 Z M 40.277344 22.003906 " fill-opacity="1" fill-rule="nonzero"/><path fill="#d2ae6d" d="M 3.300781 22.003906 L 4.78125 22.003906 L 4.78125 23.480469 L 3.300781 23.480469 Z M 3.300781 22.003906 " fill-opacity="1" fill-rule="nonzero"/><path fill="#d2ae6d" d="M 34.550781 9.664062 L 35.597656 8.621094 L 36.644531 9.664062 L 35.597656 10.710938 Z M 34.550781 9.664062 " fill-opacity="1" fill-rule="nonzero"/><path fill="#d2ae6d" d="M 8.410156 35.820312 L 9.457031 34.773438 L 10.503906 35.820312 L 9.457031 36.863281 Z M 8.410156 35.820312 " fill-opacity="1" fill-rule="nonzero"/><path fill="#d2ae6d" d="M 34.554688 35.816406 L 35.601562 34.773438 L 36.648438 35.816406 L 35.601562 36.863281 Z M 34.554688 35.816406 " fill-opacity="1" fill-rule="nonzero"/><path fill="#d2ae6d" d="M 8.410156 9.667969 L 9.453125 8.621094 L 10.5 9.667969 L 9.453125 10.714844 Z M 8.410156 9.667969 " fill-opacity="1" fill-rule="nonzero"/></svg>
