<svg xmlns="http://www.w3.org/2000/svg" xmlns:xlink="http://www.w3.org/1999/xlink" width="48" zoomAndPan="magnify" viewBox="0 0 45 44.999999" height="48" preserveAspectRatio="xMidYMid meet" version="1.0"><defs><clipPath id="b060a70eb0"><path d="M 7 2.527344 L 34 2.527344 L 34 42.277344 L 7 42.277344 Z M 7 2.527344 " clip-rule="nonzero"/></clipPath></defs><path fill="#d2ae6d" d="M 31.675781 22.703125 L 20.496094 3.460938 L 9.429688 22.761719 C 4.511719 31.339844 10.71875 42.027344 20.609375 42 C 30.492188 41.972656 36.644531 31.25 31.675781 22.703125 Z M 31.675781 22.703125 " fill-opacity="1" fill-rule="nonzero"/><g clip-path="url(#b060a70eb0)"><path fill="#333231" d="M 20.566406 42.46875 L 20.605469 42.46875 C 21.1875 42.46875 21.765625 42.425781 22.34375 42.351562 C 22.917969 42.273438 23.488281 42.15625 24.050781 42.003906 C 24.613281 41.851562 25.160156 41.664062 25.699219 41.441406 C 26.234375 41.21875 26.753906 40.957031 27.257812 40.667969 C 27.761719 40.375 28.242188 40.050781 28.703125 39.695312 C 29.164062 39.339844 29.597656 38.957031 30.007812 38.542969 C 30.417969 38.128906 30.800781 37.691406 31.152344 37.230469 C 31.503906 36.769531 31.828125 36.285156 32.117188 35.78125 C 32.40625 35.277344 32.660156 34.753906 32.882812 34.214844 C 33.101562 33.679688 33.289062 33.128906 33.4375 32.566406 C 33.585938 32.003906 33.699219 31.433594 33.773438 30.855469 C 33.847656 30.28125 33.882812 29.699219 33.882812 29.121094 C 33.878906 28.539062 33.839844 27.957031 33.761719 27.382812 C 33.683594 26.804688 33.570312 26.238281 33.417969 25.675781 C 33.265625 25.113281 33.078125 24.566406 32.855469 24.027344 C 32.628906 23.492188 32.371094 22.972656 32.078125 22.46875 L 20.496094 2.527344 L 9.019531 22.53125 C 8.730469 23.035156 8.476562 23.554688 8.257812 24.09375 C 8.035156 24.628906 7.851562 25.179688 7.703125 25.742188 C 7.550781 26.300781 7.441406 26.871094 7.367188 27.445312 C 7.292969 28.023438 7.253906 28.601562 7.257812 29.183594 C 7.257812 29.761719 7.296875 30.339844 7.375 30.917969 C 7.449219 31.492188 7.5625 32.0625 7.714844 32.621094 C 7.867188 33.183594 8.054688 33.730469 8.277344 34.269531 C 8.5 34.804688 8.757812 35.324219 9.046875 35.828125 C 9.339844 36.328125 9.664062 36.8125 10.015625 37.273438 C 10.371094 37.730469 10.753906 38.167969 11.164062 38.578125 C 11.574219 38.988281 12.011719 39.371094 12.472656 39.722656 C 12.933594 40.078125 13.414062 40.398438 13.917969 40.6875 C 14.421875 40.980469 14.941406 41.234375 15.480469 41.457031 C 16.015625 41.679688 16.566406 41.867188 17.125 42.015625 C 17.6875 42.164062 18.257812 42.277344 18.832031 42.355469 C 19.40625 42.429688 19.984375 42.46875 20.566406 42.46875 Z M 9.828125 22.996094 L 20.5 4.394531 L 31.273438 22.933594 C 31.820312 23.875 32.234375 24.867188 32.519531 25.917969 C 32.804688 26.964844 32.945312 28.035156 32.949219 29.121094 C 32.953125 30.207031 32.816406 31.277344 32.535156 32.328125 C 32.257812 33.378906 31.847656 34.375 31.308594 35.316406 C 30.765625 36.257812 30.113281 37.113281 29.347656 37.886719 C 28.582031 38.65625 27.726562 39.3125 26.789062 39.859375 C 25.847656 40.40625 24.855469 40.820312 23.804688 41.105469 C 22.757812 41.390625 21.691406 41.53125 20.601562 41.535156 L 20.566406 41.535156 C 20.027344 41.535156 19.488281 41.5 18.953125 41.429688 C 18.417969 41.359375 17.890625 41.253906 17.367188 41.113281 C 16.84375 40.976562 16.335938 40.800781 15.835938 40.59375 C 15.335938 40.390625 14.851562 40.152344 14.386719 39.882812 C 13.917969 39.609375 13.46875 39.3125 13.039062 38.984375 C 12.609375 38.65625 12.207031 38.300781 11.824219 37.917969 C 11.441406 37.535156 11.085938 37.132812 10.753906 36.703125 C 10.425781 36.277344 10.125 35.828125 9.855469 35.359375 C 9.585938 34.894531 9.34375 34.410156 9.136719 33.910156 C 8.929688 33.410156 8.753906 32.902344 8.613281 32.378906 C 8.472656 31.859375 8.367188 31.332031 8.296875 30.792969 C 8.226562 30.257812 8.1875 29.722656 8.1875 29.179688 C 8.1875 28.640625 8.21875 28.101562 8.289062 27.566406 C 8.359375 27.03125 8.460938 26.503906 8.601562 25.980469 C 8.738281 25.457031 8.910156 24.949219 9.117188 24.449219 C 9.320312 23.949219 9.558594 23.464844 9.828125 22.996094 Z M 9.828125 22.996094 " fill-opacity="1" fill-rule="nonzero"/></g></svg>
