<svg xmlns="http://www.w3.org/2000/svg" xmlns:xlink="http://www.w3.org/1999/xlink" width="48" zoomAndPan="magnify" viewBox="0 0 45 44.999999" height="48" preserveAspectRatio="xMidYMid meet" version="1.0"><defs><clipPath id="bd1dcfb2cd"><path d="M 14 2.023438 L 43 2.023438 L 43 33 L 14 33 Z M 14 2.023438 " clip-rule="nonzero"/></clipPath><clipPath id="26a7105cfe"><path d="M 2.101562 14 L 8 14 L 8 26 L 2.101562 26 Z M 2.101562 14 " clip-rule="nonzero"/></clipPath></defs><path fill="#d2ae6d" d="M 25.773438 19.292969 C 25.773438 19.175781 25.605469 19.066406 25.3125 18.972656 L 21.789062 11.3125 C 21.910156 11.300781 22.03125 11.285156 22.160156 11.257812 C 23.851562 10.917969 25.792969 10.757812 27.351562 12.128906 L 27.515625 12.273438 L 27.730469 12.234375 C 29.769531 11.835938 31.363281 12.957031 32.648438 14.105469 C 32.957031 14.378906 33.261719 14.554688 33.558594 14.65625 L 29.90625 22.605469 C 29.609375 22.703125 29.445312 22.8125 29.445312 22.925781 C 29.445312 23.34375 31.621094 26.195312 34.304688 26.195312 C 36.988281 26.195312 39.164062 23.34375 39.164062 22.925781 C 39.164062 22.8125 39 22.703125 38.703125 22.605469 L 35.039062 14.632812 C 35.214844 14.566406 35.359375 14.484375 35.46875 14.40625 L 34.9375 13.6875 C 34.855469 13.746094 34.125 14.226562 33.242188 13.441406 C 31.972656 12.304688 30.253906 11.066406 28.054688 11.285156 L 28.054688 6.472656 L 27.160156 6.472656 L 27.160156 10.890625 C 25.464844 9.878906 23.535156 10.070312 21.980469 10.382812 C 20.824219 10.617188 20.4375 9.832031 20.398438 9.746094 L 19.574219 10.09375 C 19.675781 10.328125 19.890625 10.640625 20.226562 10.890625 L 17.613281 16.578125 C 17.703125 16.714844 17.792969 16.84375 17.886719 16.964844 L 20.582031 11.101562 C 20.621094 11.121094 20.664062 11.140625 20.707031 11.15625 L 20.707031 18.539062 C 20.089844 18.542969 19.503906 18.566406 18.96875 18.601562 C 18.996094 18.78125 18.996094 18.96875 18.96875 19.15625 C 19.539062 19.109375 20.203125 19.085938 20.914062 19.085938 C 23.03125 19.085938 24.746094 19.308594 24.746094 19.582031 C 24.746094 19.855469 23.027344 20.078125 20.914062 20.078125 C 20.058594 20.078125 19.269531 20.042969 18.632812 19.980469 C 18.5625 20.082031 18.484375 20.1875 18.390625 20.296875 C 18.671875 20.832031 18.890625 21.4375 19.054688 22.121094 C 19.625 22.386719 20.253906 22.558594 20.914062 22.558594 C 23.597656 22.558594 25.773438 19.707031 25.773438 19.292969 Z M 33.964844 14.753906 C 34.011719 14.761719 34.054688 14.765625 34.097656 14.769531 L 34.097656 22.175781 C 32.59375 22.183594 31.265625 22.300781 30.417969 22.476562 Z M 34.304688 23.714844 C 32.1875 23.714844 30.46875 23.492188 30.46875 23.21875 C 30.46875 22.945312 32.1875 22.722656 34.304688 22.722656 C 36.421875 22.722656 38.136719 22.945312 38.136719 23.21875 C 38.136719 23.492188 36.421875 23.714844 34.304688 23.714844 Z M 38.191406 22.476562 C 37.34375 22.300781 36.015625 22.183594 34.507812 22.175781 L 34.507812 14.761719 C 34.554688 14.757812 34.59375 14.75 34.636719 14.746094 Z M 21.117188 18.539062 L 21.117188 11.277344 C 21.1875 11.289062 21.261719 11.300781 21.335938 11.308594 L 24.796875 18.839844 C 23.949219 18.664062 22.621094 18.546875 21.117188 18.539062 Z M 21.117188 18.539062 " fill-opacity="1" fill-rule="nonzero"/><g clip-path="url(#bd1dcfb2cd)"><path fill="#d2ae6d" d="M 27.609375 3.339844 C 35.382812 3.339844 41.703125 9.664062 41.703125 17.4375 C 41.703125 25.210938 35.382812 31.53125 27.609375 31.53125 C 24.550781 31.53125 21.722656 30.554688 19.410156 28.898438 C 19.394531 29.367188 19.375 29.855469 19.347656 30.355469 C 19.34375 30.371094 19.34375 30.382812 19.339844 30.398438 C 21.730469 31.925781 24.566406 32.808594 27.609375 32.808594 C 36.097656 32.808594 42.980469 25.925781 42.980469 17.4375 C 42.980469 8.945312 36.097656 2.0625 27.609375 2.0625 C 21.851562 2.0625 16.835938 5.226562 14.203125 9.90625 C 14.574219 10.082031 14.9375 10.3125 15.277344 10.613281 C 17.683594 6.277344 22.308594 3.339844 27.609375 3.339844 Z M 27.609375 3.339844 " fill-opacity="1" fill-rule="nonzero"/></g><g clip-path="url(#26a7105cfe)"><path fill="#d2ae6d" d="M 6.152344 25.488281 C 6.164062 25.488281 6.171875 25.488281 6.179688 25.488281 C 6.1875 25.488281 6.195312 25.488281 6.199219 25.488281 C 6.59375 25.476562 6.945312 25.339844 7.21875 25.105469 C 7.257812 24.804688 7.292969 24.535156 7.328125 24.300781 C 6.785156 24.007812 6.28125 23.660156 5.855469 23.273438 C 5.855469 23.28125 5.855469 23.285156 5.851562 23.292969 C 5.515625 23.046875 5.015625 22.492188 4.652344 21.511719 C 4.535156 21.199219 4.433594 20.847656 4.355469 20.445312 C 4.292969 20.136719 4.101562 19.890625 3.847656 19.75 L 4.652344 17.363281 L 4.921875 17.453125 L 5.046875 17.09375 L 4.773438 17 L 5 16.332031 L 5.519531 16.507812 C 5.570312 16.644531 5.644531 16.753906 5.746094 16.835938 C 5.796875 16.875 5.851562 16.90625 5.914062 16.925781 C 6.308594 17.058594 6.773438 16.734375 6.953125 16.199219 C 7.132812 15.664062 6.960938 15.125 6.566406 14.992188 C 6.527344 14.980469 6.488281 14.972656 6.449219 14.96875 C 6.296875 14.949219 6.144531 14.992188 6 15.082031 L 5.480469 14.910156 L 5.609375 14.523438 L 5.066406 14.339844 L 4.9375 14.726562 L 4.417969 14.550781 C 4.34375 14.347656 4.207031 14.195312 4.023438 14.132812 C 3.628906 14 3.164062 14.324219 2.984375 14.859375 C 2.804688 15.390625 2.976562 15.933594 3.367188 16.066406 C 3.554688 16.128906 3.753906 16.089844 3.9375 15.972656 L 4.457031 16.148438 L 4.230469 16.816406 L 3.957031 16.726562 L 3.835938 17.085938 L 4.109375 17.179688 L 3.28125 19.625 C 3.238281 19.625 3.199219 19.632812 3.15625 19.640625 C 2.601562 19.75 2.242188 20.285156 2.351562 20.839844 C 2.414062 21.148438 2.488281 21.445312 2.570312 21.726562 L 2.101562 23.121094 L 2.644531 23.304688 L 2.886719 22.589844 C 3.699219 24.492188 5.046875 25.488281 6.152344 25.488281 Z M 6.152344 25.488281 " fill-opacity="1" fill-rule="nonzero"/></g><path fill="#d2ae6d" d="M 17.726562 23.230469 C 17.289062 23.636719 16.773438 23.996094 16.210938 24.300781 C 16.402344 25.726562 16.757812 28.480469 17.027344 31.242188 C 17.035156 31.242188 17.046875 31.242188 17.054688 31.242188 C 17.589844 31.242188 18.039062 30.824219 18.074219 30.28125 C 18.242188 27.386719 18.125 25.03125 17.726562 23.230469 Z M 17.726562 23.230469 " fill-opacity="1" fill-rule="nonzero"/><path fill="#d2ae6d" d="M 7.472656 38.101562 L 7.394531 39.09375 L 7.230469 41.089844 C 7.160156 41.960938 7.804688 42.71875 8.675781 42.789062 C 9.542969 42.863281 10.304688 42.214844 10.375 41.347656 L 10.523438 39.535156 L 10.601562 38.558594 C 9.613281 38.484375 8.476562 38.332031 7.472656 38.101562 Z M 7.472656 38.101562 " fill-opacity="1" fill-rule="nonzero"/><path fill="#d2ae6d" d="M 12.9375 38.558594 L 13.015625 39.535156 L 13.164062 41.347656 C 13.234375 42.214844 13.996094 42.863281 14.863281 42.789062 C 15.730469 42.71875 16.378906 41.960938 16.308594 41.089844 L 16.144531 39.09375 L 16.0625 38.101562 C 15.0625 38.332031 13.925781 38.484375 12.9375 38.558594 Z M 12.9375 38.558594 " fill-opacity="1" fill-rule="nonzero"/><path fill="#d2ae6d" d="M 15.933594 24.449219 C 14.558594 25.140625 12.980469 25.527344 11.769531 25.527344 C 10.558594 25.527344 8.980469 25.140625 7.601562 24.449219 C 7.242188 27.164062 6.351562 34.253906 6.445312 37.511719 C 7.941406 38.023438 10.296875 38.308594 11.769531 38.308594 C 13.238281 38.308594 15.597656 38.023438 17.089844 37.511719 C 17.1875 34.253906 16.296875 27.164062 15.933594 24.449219 Z M 15.933594 24.449219 " fill-opacity="1" fill-rule="nonzero"/><path fill="#d2ae6d" d="M 5.917969 18.597656 C 5.851562 18.679688 5.757812 18.867188 5.894531 19.152344 C 6.023438 19.429688 6.371094 19.789062 6.785156 20.117188 C 6.285156 20.722656 5.902344 21.550781 5.667969 22.667969 C 7.101562 24.285156 9.949219 25.234375 11.769531 25.234375 C 13.585938 25.234375 16.433594 24.285156 17.871094 22.667969 C 17.632812 21.550781 17.253906 20.722656 16.753906 20.117188 C 17.164062 19.789062 17.511719 19.429688 17.644531 19.152344 C 17.78125 18.867188 17.6875 18.679688 17.617188 18.597656 C 17.566406 18.53125 17.496094 18.457031 17.410156 18.363281 C 16.921875 17.828125 15.90625 16.714844 15.828125 15.207031 C 15.671875 12.234375 14.308594 10.703125 11.761719 10.65625 C 9.226562 10.703125 7.863281 12.234375 7.710938 15.207031 C 7.632812 16.714844 6.617188 17.828125 6.128906 18.363281 C 6.039062 18.457031 5.972656 18.53125 5.917969 18.597656 Z M 13.691406 13.300781 C 13.761719 13.351562 13.824219 13.410156 13.871094 13.480469 C 13.8125 13.417969 13.753906 13.359375 13.691406 13.300781 Z M 9.664062 13.480469 C 9.714844 13.410156 9.777344 13.347656 9.847656 13.300781 C 9.785156 13.355469 9.722656 13.417969 9.664062 13.480469 Z M 9.707031 17.910156 C 9.722656 17.777344 9.726562 17.617188 9.722656 17.445312 C 10.242188 17.976562 10.96875 18.304688 11.769531 18.304688 C 12.570312 18.304688 13.292969 17.976562 13.8125 17.445312 C 13.808594 17.617188 13.8125 17.777344 13.832031 17.910156 C 13.863281 18.152344 13.898438 18.394531 13.9375 18.628906 C 13.867188 18.617188 13.800781 18.605469 13.730469 18.597656 C 13.542969 18.824219 13.289062 19.015625 12.992188 19.160156 L 13.84375 22.09375 L 12.566406 22.460938 L 12.160156 19.402344 C 12.03125 19.417969 11.902344 19.429688 11.769531 19.429688 C 11.636719 19.429688 11.507812 19.417969 11.378906 19.402344 L 10.972656 22.460938 L 9.695312 22.09375 L 10.546875 19.160156 C 10.25 19.015625 9.996094 18.824219 9.808594 18.597656 C 9.738281 18.605469 9.667969 18.617188 9.601562 18.628906 C 9.640625 18.394531 9.671875 18.152344 9.707031 17.910156 Z M 8.003906 15.222656 C 8.097656 13.378906 8.683594 11.085938 11.621094 10.957031 L 11.621094 12.359375 L 11.914062 12.359375 L 11.914062 10.957031 C 14.855469 11.085938 15.4375 13.378906 15.535156 15.222656 C 15.628906 17.097656 17.0625 18.375 17.390625 18.78125 C 17.464844 18.875 17.394531 19.042969 17.238281 19.242188 C 16.9375 18.945312 15.976562 17.925781 15.542969 16.648438 L 15.265625 16.742188 C 15.726562 18.113281 16.734375 19.164062 17.042969 19.460938 C 16.414062 20.105469 15.1875 20.878906 14.894531 20.597656 C 14.46875 20.191406 14.257812 18.875 14.121094 17.871094 C 13.988281 16.867188 14.703125 14.332031 14.160156 13.386719 C 13.621094 12.4375 11.769531 12.863281 11.769531 12.863281 C 11.769531 12.863281 9.917969 12.4375 9.375 13.386719 C 8.835938 14.332031 9.550781 16.867188 9.414062 17.871094 C 9.28125 18.875 9.066406 20.191406 8.640625 20.597656 C 8.347656 20.878906 7.125 20.105469 6.492188 19.460938 C 6.800781 19.164062 7.808594 18.113281 8.273438 16.742188 L 7.992188 16.648438 C 7.5625 17.925781 6.601562 18.945312 6.296875 19.242188 C 6.140625 19.042969 6.070312 18.875 6.148438 18.78125 C 6.476562 18.375 7.90625 17.097656 8.003906 15.222656 Z M 8.003906 15.222656 " fill-opacity="1" fill-rule="nonzero"/></svg>
