<svg xmlns="http://www.w3.org/2000/svg" xmlns:xlink="http://www.w3.org/1999/xlink" width="48" zoomAndPan="magnify" viewBox="0 0 45 44.999999" height="48" preserveAspectRatio="xMidYMid meet" version="1.0"><defs><clipPath id="4af591113c"><path d="M 0 2.59375 L 44 2.59375 L 44 41 L 0 41 Z M 0 2.59375 " clip-rule="nonzero"/></clipPath><clipPath id="a4d0ab162d"><path d="M 9 20 L 37 20 L 37 43.09375 L 9 43.09375 Z M 9 20 " clip-rule="nonzero"/></clipPath></defs><g clip-path="url(#4af591113c)"><path fill="#d2ae6d" d="M 42.628906 14.023438 L 22.789062 2.871094 C 22.257812 2.59375 21.488281 2.59375 20.960938 2.871094 C 20.953125 2.875 20.949219 2.878906 20.941406 2.882812 L 1.292969 14.003906 C 0.984375 14.160156 0.0429688 14.640625 0.234375 15.441406 C 0.429688 16.25 1.511719 16.25 1.867188 16.25 L 4.628906 16.25 L 4.628906 17.609375 C 4.628906 18.355469 5.242188 18.964844 6 18.964844 L 7.339844 18.964844 L 7.339844 33.234375 L 6.324219 33.234375 C 5.578125 33.234375 4.96875 33.84375 4.96875 34.589844 L 4.96875 35.949219 L 4.371094 35.949219 C 3.578125 35.949219 2.929688 36.558594 2.929688 37.308594 L 2.929688 39.347656 C 2.929688 39.722656 3.234375 40.027344 3.609375 40.027344 L 26.535156 40.027344 L 24.902344 38.667969 L 17.363281 38.667969 C 17.046875 38.789062 16.714844 38.855469 16.375 38.855469 C 16.046875 38.855469 15.722656 38.789062 15.410156 38.667969 L 4.285156 38.667969 L 4.28125 37.339844 C 4.285156 37.332031 13.304688 37.308594 13.304688 37.308594 L 11.34375 35.949219 L 6.324219 35.949219 L 6.324219 34.589844 L 9.378906 34.589844 C 8.863281 34.234375 8.335938 33.871094 8.027344 33.308594 C 7.558594 32.457031 7.5625 31.378906 8.125 30.519531 L 8.699219 29.648438 L 8.699219 18.964844 L 10.738281 18.964844 L 10.738281 27.828125 C 10.773438 27.769531 12.097656 25.894531 12.097656 25.894531 L 12.097656 18.964844 L 13.453125 18.964844 L 13.453125 23.992188 L 13.804688 23.503906 C 14 23.234375 14.246094 23.027344 14.519531 22.882812 C 14.492188 22.386719 14.589844 21.886719 14.8125 21.433594 L 14.8125 18.964844 L 19.570312 18.964844 L 19.570312 19.515625 L 20.925781 20.457031 L 20.925781 18.964844 L 22.964844 18.964844 L 22.964844 21.871094 L 24.324219 22.808594 L 24.324219 18.964844 L 25.683594 18.964844 L 25.683594 23.765625 C 26.707031 24.628906 26.949219 26.164062 26.199219 27.308594 L 25.683594 28.09375 L 25.683594 31.101562 C 25.964844 31.390625 26.367188 31.726562 26.625 31.878906 L 27.039062 32.132812 L 27.039062 18.964844 L 29.078125 18.964844 L 29.078125 33.234375 L 28.84375 33.234375 L 31.074219 34.589844 L 37.574219 34.589844 L 37.574219 35.949219 L 33.300781 35.949219 L 33.390625 36.003906 C 33.558594 36.011719 33.722656 36.035156 33.882812 36.0625 C 34.410156 36.152344 34.921875 36.339844 35.382812 36.609375 C 35.714844 36.804688 36.019531 37.039062 36.289062 37.308594 C 36.289062 37.308594 39.605469 37.328125 39.609375 37.3125 L 39.609375 38.667969 L 37.210938 38.667969 C 37.394531 39.089844 37.511719 39.546875 37.554688 40.027344 L 40.289062 40.027344 C 40.664062 40.027344 40.96875 39.722656 40.96875 39.347656 L 40.96875 37.308594 C 40.96875 36.558594 40.320312 35.949219 39.523438 35.949219 L 38.929688 35.949219 L 38.929688 34.589844 C 38.929688 33.84375 38.320312 33.234375 37.574219 33.234375 L 36.550781 33.234375 L 36.550781 18.964844 L 37.898438 18.964844 C 38.65625 18.964844 39.269531 18.355469 39.269531 17.609375 L 39.269531 16.25 L 42.03125 16.25 C 42.386719 16.25 43.46875 16.25 43.664062 15.441406 C 43.855469 14.640625 42.914062 14.164062 42.628906 14.023438 Z M 31.796875 33.234375 L 30.4375 33.234375 L 30.4375 18.964844 L 31.796875 18.964844 Z M 35.191406 33.203125 L 33.152344 33.203125 L 33.152344 18.964844 L 35.191406 18.964844 Z M 37.898438 17.609375 L 5.988281 17.609375 L 5.988281 16.25 L 37.90625 16.25 Z M 2.484375 14.890625 L 21.597656 4.070312 C 21.734375 4.003906 22.027344 4.003906 22.140625 4.0625 L 41.402344 14.890625 Z M 2.484375 14.890625 " fill-opacity="1" fill-rule="nonzero"/></g><path fill="#d2ae6d" d="M 19.570312 11.15625 C 19.570312 12.464844 20.636719 13.53125 21.949219 13.53125 C 23.261719 13.53125 24.328125 12.464844 24.328125 11.15625 C 24.328125 9.84375 23.261719 8.777344 21.949219 8.777344 C 20.636719 8.777344 19.570312 9.84375 19.570312 11.15625 Z M 22.96875 11.15625 C 22.96875 11.714844 22.511719 12.171875 21.949219 12.171875 C 21.386719 12.171875 20.929688 11.714844 20.929688 11.15625 C 20.929688 10.59375 21.386719 10.136719 21.949219 10.136719 C 22.511719 10.136719 22.96875 10.59375 22.96875 11.15625 Z M 22.96875 11.15625 " fill-opacity="1" fill-rule="nonzero"/><path fill="#d2ae6d" d="M 17.535156 10.816406 L 16.175781 10.816406 C 15.800781 10.816406 15.496094 11.117188 15.496094 11.492188 C 15.496094 11.867188 15.800781 12.171875 16.175781 12.171875 L 17.535156 12.171875 C 17.910156 12.171875 18.210938 11.867188 18.210938 11.492188 C 18.210938 11.117188 17.910156 10.816406 17.535156 10.816406 Z M 17.535156 10.816406 " fill-opacity="1" fill-rule="nonzero"/><path fill="#d2ae6d" d="M 26.363281 12.171875 L 27.722656 12.171875 C 28.097656 12.171875 28.402344 11.867188 28.402344 11.492188 C 28.402344 11.117188 28.097656 10.816406 27.722656 10.816406 L 26.363281 10.816406 C 25.988281 10.816406 25.6875 11.117188 25.6875 11.492188 C 25.6875 11.867188 25.988281 12.171875 26.363281 12.171875 Z M 26.363281 12.171875 " fill-opacity="1" fill-rule="nonzero"/><path fill="#d2ae6d" d="M 20.894531 35.949219 L 19.679688 35.949219 C 19.644531 36.066406 19.601562 36.183594 19.550781 36.300781 C 19.472656 36.472656 19.378906 36.644531 19.265625 36.800781 L 18.890625 37.308594 L 23.273438 37.308594 L 22.621094 36.765625 C 22.253906 36.460938 21.8125 36.261719 21.324219 36.078125 Z M 20.894531 35.949219 " fill-opacity="1" fill-rule="nonzero"/><g clip-path="url(#a4d0ab162d)"><path fill="#d2ae6d" d="M 33.136719 37.351562 C 33.09375 37.351562 33.046875 37.351562 33.003906 37.355469 L 25.933594 33.046875 C 25.449219 32.757812 24.742188 32.136719 24.394531 31.691406 L 22.558594 29.351562 C 22.566406 29.285156 22.570312 29.214844 22.558594 29.148438 C 22.527344 28.96875 22.429688 28.8125 22.28125 28.707031 L 22 28.507812 L 22.3125 28.027344 L 22.660156 28.144531 C 23.292969 28.363281 24.046875 28.109375 24.414062 27.550781 L 25.066406 26.558594 C 25.460938 25.957031 25.300781 25.132812 24.707031 24.726562 L 18.703125 20.566406 C 18.113281 20.15625 17.285156 20.292969 16.855469 20.875 L 16.15625 21.828125 C 15.757812 22.371094 15.785156 23.164062 16.210938 23.679688 L 16.445312 23.960938 L 16.160156 24.347656 L 15.859375 24.132812 C 15.554688 23.914062 15.128906 23.984375 14.910156 24.289062 L 11.949219 28.4375 C 11.84375 28.582031 11.800781 28.765625 11.832031 28.941406 C 11.859375 29.121094 11.960938 29.28125 12.105469 29.382812 L 12.226562 29.46875 L 12.015625 29.800781 L 11.664062 29.679688 C 11.035156 29.460938 10.28125 29.714844 9.914062 30.273438 L 9.261719 31.265625 C 8.863281 31.867188 9.023438 32.691406 9.617188 33.097656 C 9.617188 33.097656 15.621094 37.257812 15.625 37.257812 C 16.203125 37.660156 17.050781 37.523438 17.46875 36.953125 L 18.171875 35.996094 C 18.566406 35.453125 18.542969 34.660156 18.113281 34.144531 L 17.878906 33.863281 L 18.058594 33.625 L 18.527344 33.957031 C 18.648438 34.042969 18.785156 34.085938 18.921875 34.085938 C 19.015625 34.085938 19.105469 34.0625 19.191406 34.023438 L 21.710938 34.773438 C 22.25 34.929688 23.0625 35.367188 23.492188 35.71875 L 30.203125 41.304688 C 30.605469 42.5625 31.777344 43.421875 33.136719 43.421875 C 34.832031 43.421875 36.214844 42.0625 36.214844 40.386719 C 36.214844 38.714844 34.832031 37.351562 33.136719 37.351562 Z M 17.25 22.632812 L 17.925781 21.683594 L 23.929688 25.8125 L 23.277344 26.804688 C 23.253906 26.839844 23.148438 26.878906 23.105469 26.863281 L 22.253906 26.566406 C 21.957031 26.464844 21.628906 26.578125 21.460938 26.839844 L 20.890625 27.71875 L 17.265625 25.132812 L 17.855469 24.34375 C 18.039062 24.09375 18.03125 23.746094 17.832031 23.507812 L 17.257812 22.8125 C 17.226562 22.777344 17.226562 22.667969 17.25 22.632812 Z M 17.074219 35.191406 L 16.398438 36.144531 L 10.394531 32.011719 L 11.046875 31.019531 C 11.074219 30.984375 11.175781 30.949219 11.222656 30.960938 L 12.074219 31.257812 C 12.371094 31.359375 12.695312 31.246094 12.867188 30.984375 L 13.335938 30.257812 L 16.953125 32.835938 L 16.472656 33.480469 C 16.285156 33.730469 16.292969 34.078125 16.492188 34.320312 L 17.070312 35.011719 C 17.097656 35.046875 17.101562 35.15625 17.074219 35.191406 Z M 18.765625 32.457031 L 13.449219 28.671875 L 15.621094 25.632812 L 20.9375 29.417969 Z M 33.136719 42.0625 C 32.328125 42.0625 31.640625 41.53125 31.460938 40.765625 C 31.425781 40.621094 31.347656 40.492188 31.234375 40.398438 L 24.359375 34.675781 C 23.796875 34.207031 22.800781 33.679688 22.097656 33.46875 L 20.128906 32.886719 L 21.785156 30.570312 L 23.328125 32.53125 C 23.773438 33.101562 24.613281 33.839844 25.234375 34.210938 C 25.234375 34.210938 32.484375 38.628906 32.488281 38.628906 C 32.699219 38.757812 32.902344 38.710938 33.136719 38.710938 C 34.085938 38.710938 34.855469 39.460938 34.855469 40.386719 C 34.855469 41.3125 34.085938 42.0625 33.136719 42.0625 Z M 33.136719 42.0625 " fill-opacity="1" fill-rule="nonzero"/></g><path fill="#d2ae6d" d="M 17.914062 29.222656 C 17.914062 29.410156 17.847656 29.570312 17.714844 29.703125 C 17.582031 29.835938 17.421875 29.902344 17.234375 29.902344 C 17.046875 29.902344 16.886719 29.835938 16.753906 29.703125 C 16.621094 29.570312 16.554688 29.410156 16.554688 29.222656 C 16.554688 29.035156 16.621094 28.875 16.753906 28.742188 C 16.886719 28.609375 17.046875 28.542969 17.234375 28.542969 C 17.421875 28.542969 17.582031 28.609375 17.714844 28.742188 C 17.847656 28.875 17.914062 29.035156 17.914062 29.222656 Z M 17.914062 29.222656 " fill-opacity="1" fill-rule="nonzero"/></svg>
