<svg xmlns="http://www.w3.org/2000/svg" xmlns:xlink="http://www.w3.org/1999/xlink" width="48" zoomAndPan="magnify" viewBox="0 0 45 44.999999" height="48" preserveAspectRatio="xMidYMid meet" version="1.0"><defs><clipPath id="090b921231"><path d="M 2.507812 2.046875 L 42.257812 2.046875 L 42.257812 43 L 2.507812 43 Z M 2.507812 2.046875 " clip-rule="nonzero"/></clipPath><clipPath id="d34e1cee19"><path d="M 11 2.046875 L 19 2.046875 L 19 10 L 11 10 Z M 11 2.046875 " clip-rule="nonzero"/></clipPath></defs><path fill="#d2ae6d" d="M 31.601562 8.199219 L 23.421875 10.925781 L 23.851562 12.21875 L 32.03125 9.496094 L 31.601562 8.199219 " fill-opacity="1" fill-rule="nonzero"/><path fill="#d2ae6d" d="M 5.234375 29.296875 L 27.726562 29.296875 L 27.726562 27.933594 L 5.234375 27.933594 L 5.234375 29.296875 " fill-opacity="1" fill-rule="nonzero"/><path fill="#d2ae6d" d="M 5.234375 32.023438 L 27.726562 32.023438 L 27.726562 30.660156 L 5.234375 30.660156 L 5.234375 32.023438 " fill-opacity="1" fill-rule="nonzero"/><g clip-path="url(#090b921231)"><path fill="#d2ae6d" d="M 31.339844 33.132812 C 30.121094 31.105469 30.171875 28.558594 31.496094 26.574219 L 31.617188 26.394531 L 39.9375 21.402344 C 39.40625 23.050781 39.640625 24.878906 40.636719 26.375 L 41.082031 27.042969 Z M 41.03125 35.257812 L 31.332031 41.320312 C 30.109375 39.289062 30.15625 36.742188 31.484375 34.753906 L 31.617188 34.550781 C 31.691406 34.515625 31.761719 34.480469 31.828125 34.4375 L 39.507812 29.636719 C 39.210938 31.625 39.746094 33.65625 41.03125 35.257812 Z M 29.921875 33.386719 L 4.550781 33.386719 C 4.175781 33.386719 3.871094 33.078125 3.871094 32.703125 L 3.871094 26.632812 C 3.871094 26.609375 3.871094 26.589844 3.875 26.570312 L 29.921875 26.570312 C 28.824219 28.710938 28.824219 31.242188 29.921875 33.386719 Z M 29.910156 41.5625 L 7.960938 41.5625 C 7.585938 41.5625 7.277344 41.257812 7.277344 40.882812 L 7.277344 34.75 L 29.910156 34.75 C 28.8125 36.890625 28.8125 39.421875 29.910156 41.5625 Z M 12.621094 20.636719 C 12.679688 20.660156 12.742188 20.683594 12.804688 20.703125 L 22.347656 23.683594 C 22.546875 23.746094 22.75 23.777344 22.957031 23.777344 C 23.160156 23.777344 23.367188 23.746094 23.566406 23.683594 L 33.109375 20.703125 C 33.621094 20.542969 34.03125 20.195312 34.28125 19.753906 L 40.035156 19.753906 L 30.945312 25.207031 L 5.511719 25.207031 Z M 12.730469 12.523438 L 22.273438 15.484375 L 22.273438 22.234375 L 13.210938 19.402344 C 12.925781 19.3125 12.730469 19.050781 12.730469 18.75 Z M 23.636719 15.484375 L 33.179688 12.523438 L 33.179688 18.75 C 33.179688 19.050781 32.988281 19.3125 32.703125 19.402344 L 23.636719 22.234375 Z M 41.175781 28.59375 L 41.804688 28.199219 C 42.121094 28.003906 42.339844 27.695312 42.417969 27.332031 C 42.496094 26.96875 42.425781 26.597656 42.21875 26.289062 L 41.769531 25.617188 C 40.777344 24.125 40.777344 22.195312 41.773438 20.703125 L 41.902344 20.507812 C 42.179688 20.089844 42.207031 19.554688 41.96875 19.109375 C 41.730469 18.664062 41.269531 18.390625 40.765625 18.390625 L 34.542969 18.390625 L 34.542969 12.101562 L 40.828125 10.148438 C 41.398438 9.972656 41.785156 9.449219 41.785156 8.847656 C 41.785156 8.246094 41.398438 7.722656 40.828125 7.546875 L 23.578125 2.191406 C 23.164062 2.066406 22.730469 2.070312 22.324219 2.207031 L 18.652344 3.429688 L 19.082031 4.722656 L 22.753906 3.5 C 22.890625 3.453125 23.035156 3.453125 23.171875 3.492188 L 40.421875 8.847656 L 23.15625 14.207031 C 23.027344 14.246094 22.886719 14.246094 22.753906 14.207031 L 5.523438 8.859375 L 10.203125 7.457031 L 9.808594 6.148438 L 5.132812 7.554688 C 4.554688 7.726562 4.164062 8.25 4.160156 8.851562 C 4.160156 9.457031 4.542969 9.980469 5.121094 10.160156 L 5.234375 10.195312 L 5.234375 15.476562 L 3.285156 18.722656 L 4.457031 19.421875 L 5.234375 18.125 L 5.234375 20.433594 L 6.597656 20.433594 L 6.597656 18.125 L 7.375 19.421875 L 8.542969 18.722656 L 6.597656 15.476562 L 6.597656 10.617188 L 11.367188 12.097656 L 11.367188 18.75 C 11.367188 19.082031 11.445312 19.398438 11.589844 19.675781 L 3.445312 24.910156 C 2.859375 25.289062 2.507812 25.933594 2.507812 26.632812 L 2.507812 32.703125 C 2.507812 33.832031 3.425781 34.75 4.550781 34.75 L 5.914062 34.75 L 5.914062 40.882812 C 5.914062 42.011719 6.832031 42.925781 7.960938 42.925781 L 30.742188 42.925781 C 31.128906 42.925781 31.503906 42.820312 31.828125 42.617188 L 41.753906 36.414062 C 42.082031 36.207031 42.308594 35.871094 42.375 35.488281 C 42.4375 35.101562 42.335938 34.710938 42.09375 34.40625 C 40.832031 32.828125 40.460938 30.742188 41.097656 28.824219 L 41.175781 28.59375 " fill-opacity="1" fill-rule="nonzero"/></g><path fill="#d2ae6d" d="M 8.640625 37.476562 L 27.726562 37.476562 L 27.726562 36.113281 L 8.640625 36.113281 L 8.640625 37.476562 " fill-opacity="1" fill-rule="nonzero"/><path fill="#d2ae6d" d="M 8.640625 40.203125 L 27.726562 40.203125 L 27.726562 38.839844 L 8.640625 38.839844 L 8.640625 40.203125 " fill-opacity="1" fill-rule="nonzero"/><g clip-path="url(#d34e1cee19)"><path fill="#d2ae6d" d="M 14.777344 5.089844 C 15.054688 5.496094 15.402344 5.84375 15.808594 6.121094 C 15.402344 6.398438 15.054688 6.746094 14.777344 7.152344 C 14.5 6.746094 14.148438 6.398438 13.746094 6.121094 C 14.148438 5.84375 14.5 5.496094 14.777344 5.089844 Z M 14.09375 9.359375 L 14.09375 9.527344 L 15.457031 9.527344 L 15.457031 9.359375 C 15.457031 7.949219 16.605469 6.804688 18.015625 6.804688 L 18.183594 6.804688 L 18.183594 5.441406 L 18.015625 5.441406 C 16.605469 5.441406 15.457031 4.292969 15.457031 2.882812 L 15.457031 2.714844 L 14.09375 2.714844 L 14.09375 2.882812 C 14.09375 4.292969 12.949219 5.441406 11.539062 5.441406 L 11.367188 5.441406 L 11.367188 6.804688 L 11.539062 6.804688 C 12.949219 6.804688 14.09375 7.949219 14.09375 9.359375 " fill-opacity="1" fill-rule="nonzero"/></g></svg>
