<svg xmlns="http://www.w3.org/2000/svg" xmlns:xlink="http://www.w3.org/1999/xlink" width="48" zoomAndPan="magnify" viewBox="0 0 37.5 37.499999" height="48" preserveAspectRatio="xMidYMid meet" version="1.0"><defs><clipPath id="1c121b0481"><path d="M 19.265625 28.25 L 24 28.25 L 24 31.824219 L 19.265625 31.824219 Z M 19.265625 28.25 " clip-rule="nonzero"/></clipPath><clipPath id="cdeb388f01"><path d="M 16.207031 28.25 L 21 28.25 L 21 31.824219 L 16.207031 31.824219 Z M 16.207031 28.25 " clip-rule="nonzero"/></clipPath><clipPath id="df924ebbb1"><path d="M 22.324219 26 L 34.984375 26 L 34.984375 31.824219 L 22.324219 31.824219 Z M 22.324219 26 " clip-rule="nonzero"/></clipPath><clipPath id="5d59ea4bb5"><path d="M 1.679688 16.015625 L 11.617188 16.015625 L 11.617188 31.824219 L 1.679688 31.824219 Z M 1.679688 16.015625 " clip-rule="nonzero"/></clipPath><clipPath id="f4d1a27fbe"><path d="M 2.445312 3.78125 L 20 3.78125 L 20 31.824219 L 2.445312 31.824219 Z M 2.445312 3.78125 " clip-rule="nonzero"/></clipPath></defs><path fill="#a27f2f" d="M 24.480469 22.136719 L 21.90625 22.136719 L 20.5 24.746094 L 23.035156 24.746094 L 24.480469 22.136719 " fill-opacity="1" fill-rule="nonzero"/><path fill="#a27f2f" d="M 27.84375 21.519531 L 29.488281 18.429688 L 27.15625 18.394531 L 25.472656 21.519531 L 27.84375 21.519531 " fill-opacity="1" fill-rule="nonzero"/><path fill="#a27f2f" d="M 27.5 22.136719 L 25.164062 22.136719 L 23.757812 24.746094 L 26.089844 24.746094 L 27.5 22.136719 " fill-opacity="1" fill-rule="nonzero"/><path fill="#a27f2f" d="M 22.007812 27.96875 L 24.34375 27.96875 L 25.75 25.363281 L 23.414062 25.363281 L 22.007812 27.96875 " fill-opacity="1" fill-rule="nonzero"/><g clip-path="url(#1c121b0481)"><path fill="#a27f2f" d="M 21.664062 28.585938 L 19.878906 31.878906 L 22.210938 31.878906 L 24 28.585938 L 21.664062 28.585938 " fill-opacity="1" fill-rule="nonzero"/></g><path fill="#a27f2f" d="M 22.730469 25.359375 L 20.15625 25.359375 L 18.75 27.96875 L 21.324219 27.96875 L 22.730469 25.359375 " fill-opacity="1" fill-rule="nonzero"/><g clip-path="url(#cdeb388f01)"><path fill="#a27f2f" d="M 18.441406 28.585938 L 16.65625 31.878906 L 19.191406 31.878906 L 20.980469 28.585938 L 18.441406 28.585938 " fill-opacity="1" fill-rule="nonzero"/></g><path fill="#a27f2f" d="M 29.113281 25.359375 L 26.4375 25.359375 L 25.027344 27.96875 L 27.703125 27.96875 L 29.113281 25.359375 " fill-opacity="1" fill-rule="nonzero"/><path fill="#a27f2f" d="M 26.46875 18.394531 L 23.929688 18.394531 L 22.25 21.519531 L 24.785156 21.519531 L 26.46875 18.394531 " fill-opacity="1" fill-rule="nonzero"/><path fill="#a27f2f" d="M 31.167969 21.519531 L 32.851562 18.429688 L 30.207031 18.429688 L 28.527344 21.519531 L 31.167969 21.519531 " fill-opacity="1" fill-rule="nonzero"/><path fill="#a27f2f" d="M 30.824219 22.136719 L 28.183594 22.136719 L 26.777344 24.746094 L 29.417969 24.746094 L 30.824219 22.136719 " fill-opacity="1" fill-rule="nonzero"/><g clip-path="url(#df924ebbb1)"><path fill="#a27f2f" d="M 34.871094 29.546875 L 32.988281 29.546875 L 32.988281 28.554688 L 34.871094 28.554688 C 35.113281 28.554688 35.320312 28.347656 35.320312 28.109375 C 35.320312 27.867188 35.113281 27.660156 34.871094 27.660156 L 32.988281 27.660156 L 32.988281 26.253906 C 31.476562 26.253906 30.242188 27.285156 30 28.621094 L 24.683594 28.621094 L 22.898438 31.949219 L 25.542969 31.949219 L 26.914062 29.410156 L 30 29.410156 C 30.207031 30.785156 31.441406 31.8125 32.988281 31.8125 L 32.988281 30.472656 L 34.871094 30.472656 C 35.113281 30.472656 35.320312 30.265625 35.320312 30.027344 C 35.320312 29.753906 35.113281 29.546875 34.871094 29.546875 " fill-opacity="1" fill-rule="nonzero"/></g><g clip-path="url(#5d59ea4bb5)"><path fill="#a27f2f" d="M 2.003906 19.320312 L 6.671875 21.039062 C 6.703125 21.105469 6.738281 21.175781 6.773438 21.207031 L 6.773438 31.914062 L 7.941406 31.914062 L 7.941406 24.777344 L 8.832031 26.632812 C 8.867188 26.699219 9.003906 26.902344 9.246094 26.902344 L 9.382812 26.871094 C 9.621094 26.769531 9.691406 26.496094 9.585938 26.320312 L 8.214844 21.246094 C 8.351562 21.070312 8.421875 20.832031 8.382812 20.625 C 8.695312 20.488281 9.070312 20.351562 9.207031 20.25 C 9.414062 20.113281 9.484375 19.976562 9.519531 19.9375 L 11.542969 16.78125 C 11.644531 16.578125 11.609375 16.335938 11.441406 16.199219 L 11.371094 16.132812 L 11.199219 16.09375 C 10.996094 16.09375 10.890625 16.269531 10.859375 16.269531 L 7.457031 19.835938 L 7.320312 19.835938 C 7.21875 19.871094 7.113281 19.90625 7.011719 19.976562 C 6.671875 19.632812 6.429688 19.425781 6.292969 19.320312 C 6.085938 19.1875 5.914062 19.152344 5.882812 19.152344 L 2.175781 18.53125 C 1.96875 18.570312 1.761719 18.601562 1.695312 18.84375 C 1.625 19.117188 1.800781 19.289062 2.003906 19.320312 " fill-opacity="1" fill-rule="nonzero"/></g><g clip-path="url(#f4d1a27fbe)"><path fill="#a27f2f" d="M 3.34375 14.210938 L 3.34375 14.074219 L 3.34375 14.210938 L 13.121094 14.242188 C 13.152344 14.28125 13.152344 14.3125 13.191406 14.3125 L 13.191406 31.914062 L 15.109375 31.914062 L 15.109375 18.394531 L 18.371094 23.0625 C 18.4375 23.132812 18.574219 23.269531 18.75 23.269531 C 18.816406 23.269531 18.886719 23.234375 18.953125 23.199219 C 19.191406 23.027344 19.160156 22.753906 19.089844 22.617188 L 15.214844 14.003906 C 15.351562 13.730469 15.417969 13.457031 15.386719 13.179688 C 15.351562 13.042969 15.316406 12.871094 15.246094 12.734375 C 15.695312 12.425781 16.585938 11.84375 16.859375 11.53125 C 17.035156 11.363281 17.171875 11.121094 17.203125 10.984375 L 19.710938 4.398438 C 19.742188 4.191406 19.710938 3.917969 19.46875 3.8125 L 19.332031 3.777344 C 19.128906 3.777344 18.988281 3.917969 18.953125 4.019531 L 14.046875 12.046875 C 13.636719 12.046875 13.257812 12.253906 13.015625 12.53125 C 12.949219 12.597656 12.914062 12.699219 12.878906 12.769531 C 12.296875 12.53125 11.402344 12.117188 11.027344 12.046875 C 10.71875 11.980469 10.410156 12.011719 10.375 12.011719 L 3.238281 13.351562 C 3.03125 13.417969 2.828125 13.59375 2.863281 13.832031 C 2.894531 14.074219 3.066406 14.210938 3.34375 14.210938 " fill-opacity="1" fill-rule="nonzero"/></g></svg>
