<svg xmlns="http://www.w3.org/2000/svg" xmlns:xlink="http://www.w3.org/1999/xlink" width="48" zoomAndPan="magnify" viewBox="0 0 45 44.999999" height="48" preserveAspectRatio="xMidYMid meet" version="1.0"><path fill="#d2ae6d" d="M 17.445312 34.679688 C 15.105469 33.019531 13.375 30.871094 12.257812 28.230469 C 12.175781 28.03125 12.175781 27.835938 12.257812 27.636719 C 12.339844 27.441406 12.476562 27.300781 12.675781 27.21875 C 12.871094 27.132812 13.066406 27.132812 13.265625 27.210938 C 13.464844 27.289062 13.605469 27.425781 13.691406 27.621094 C 14.695312 29.992188 16.246094 31.921875 18.347656 33.40625 C 18.519531 33.53125 18.625 33.699219 18.660156 33.910156 C 18.695312 34.121094 18.652344 34.316406 18.527344 34.492188 C 18.40625 34.664062 18.238281 34.769531 18.027344 34.808594 C 17.816406 34.84375 17.621094 34.800781 17.445312 34.679688 Z M 17.445312 34.679688 " fill-opacity="1" fill-rule="nonzero"/><path fill="#d2ae6d" d="M 11.492188 25.910156 C 11.394531 25.5 11.3125 25.078125 11.25 24.65625 C 11.21875 24.445312 11.265625 24.253906 11.394531 24.082031 C 11.519531 23.910156 11.691406 23.808594 11.902344 23.777344 C 12.113281 23.746094 12.304688 23.792969 12.476562 23.917969 C 12.652344 24.042969 12.753906 24.210938 12.785156 24.425781 C 12.84375 24.800781 12.917969 25.179688 13.007812 25.542969 C 13.054688 25.753906 13.027344 25.949219 12.914062 26.132812 C 12.800781 26.3125 12.640625 26.429688 12.433594 26.480469 C 12.222656 26.53125 12.027344 26.5 11.84375 26.390625 C 11.664062 26.277344 11.546875 26.117188 11.492188 25.910156 Z M 11.492188 25.910156 " fill-opacity="1" fill-rule="nonzero"/><path fill="#d2ae6d" d="M 20.777344 5.824219 C 20.574219 5.890625 20.421875 6.019531 20.328125 6.210938 C 20.230469 6.402344 20.214844 6.597656 20.28125 6.800781 C 20.347656 7.003906 20.472656 7.15625 20.664062 7.253906 C 20.855469 7.351562 21.050781 7.367188 21.253906 7.304688 C 22.21875 6.996094 23.207031 6.78125 24.210938 6.664062 C 23.730469 8.058594 24.386719 9.042969 25.511719 9.867188 C 25.671875 9.976562 25.824219 10.097656 25.964844 10.234375 C 25.984375 11.058594 24.386719 12.113281 23.410156 12.28125 C 20.574219 12.769531 18.316406 12.78125 17.625 14.0625 C 16.617188 15.929688 18.507812 17.449219 19.15625 18.226562 C 20.992188 20.425781 22.042969 20.554688 23.863281 20.277344 C 25.515625 20.03125 25.542969 21 27.492188 21.019531 C 28.367188 21.027344 28.878906 21.773438 29.539062 22.363281 C 30.300781 23.015625 31.128906 23.570312 32.023438 24.023438 C 33.472656 24.835938 32.820312 26 32.246094 27.25 C 30.679688 30.636719 28.464844 30.945312 26.230469 34.09375 C 25.777344 34.765625 25.492188 35.5 25.375 36.296875 C 24.898438 35.78125 24.589844 35.175781 24.457031 34.484375 C 24.015625 32.136719 27.734375 29.945312 23.539062 27.191406 C 22.867188 26.851562 22.371094 26.339844 22.042969 25.664062 C 21.507812 24.328125 22.519531 23.976562 21.847656 22.117188 C 20.851562 19.351562 16.949219 18.617188 14.914062 16.144531 C 16.226562 15.109375 17.222656 13.832031 17.90625 12.308594 C 18.773438 10.230469 18.921875 8.105469 18.351562 5.929688 C 18.328125 5.839844 18.292969 5.757812 18.25 5.675781 C 18.203125 5.597656 18.148438 5.527344 18.085938 5.460938 C 18.023438 5.398438 17.953125 5.339844 17.875 5.296875 C 17.796875 5.25 17.714844 5.214844 17.625 5.1875 C 17.539062 5.164062 17.449219 5.152344 17.359375 5.148438 C 17.269531 5.148438 17.179688 5.160156 17.089844 5.179688 C 17.003906 5.203125 16.917969 5.238281 16.839844 5.28125 C 16.761719 5.324219 16.6875 5.378906 16.625 5.441406 C 13.902344 8.042969 12.210938 6.820312 9.441406 10.234375 C 8.417969 11.496094 7.570312 13.832031 9.339844 17.789062 L 9.351562 17.8125 C 9.183594 18.433594 9.050781 19.058594 8.953125 19.691406 C 8.890625 19.621094 8.828125 19.550781 8.765625 19.484375 C 8.332031 16.570312 6.929688 14.328125 3.980469 14.679688 C 3.132812 14.832031 2.300781 14.761719 1.488281 14.46875 C 1.109375 14.320312 0.761719 14.378906 0.449219 14.644531 C 0.140625 14.914062 0.0273438 15.246094 0.113281 15.644531 C 0.296875 16.488281 0.632812 17.261719 1.121094 17.972656 C 1.613281 18.683594 2.21875 19.269531 2.941406 19.738281 C 3.65625 20.1875 4.425781 20.492188 5.253906 20.652344 C 6.082031 20.816406 6.910156 20.820312 7.742188 20.671875 C 8.246094 21.183594 8.582031 21.789062 8.746094 22.492188 C 8.753906 24.820312 9.214844 27.054688 10.125 29.195312 C 10.210938 29.390625 10.351562 29.53125 10.550781 29.609375 C 10.75 29.691406 10.949219 29.6875 11.144531 29.605469 C 11.34375 29.519531 11.480469 29.378906 11.5625 29.179688 C 11.640625 28.980469 11.640625 28.78125 11.558594 28.585938 C 10.867188 26.957031 10.460938 25.261719 10.335938 23.496094 C 10.210938 21.730469 10.378906 19.996094 10.835938 18.285156 C 11.820312 17.984375 12.753906 17.570312 13.632812 17.039062 C 15.914062 19.890625 19.621094 20.523438 20.382812 22.644531 C 20.851562 23.945312 19.847656 24.375 20.601562 26.246094 C 21.042969 27.226562 21.738281 27.976562 22.683594 28.492188 C 25.800781 30.535156 22.292969 31.390625 22.925781 34.769531 C 23.140625 35.996094 23.738281 36.996094 24.71875 37.765625 C 25.613281 38.359375 26.585938 38.144531 26.910156 36.5625 C 26.988281 35.996094 27.1875 35.472656 27.5 34.996094 C 29.574219 32.074219 31.921875 31.664062 33.660156 27.902344 C 34.714844 25.738281 34.960938 23.882812 32.785156 22.664062 C 31.988281 22.261719 31.25 21.773438 30.570312 21.195312 C 29.601562 20.335938 29.078125 19.472656 27.503906 19.460938 C 25.828125 19.441406 25.960938 18.390625 23.632812 18.738281 C 22.367188 18.929688 21.828125 19 20.355469 17.230469 C 19.78125 16.542969 18.570312 15.589844 18.996094 14.800781 C 19.289062 14.363281 21.859375 14.128906 23.675781 13.816406 C 25.042969 13.578125 27.570312 12.128906 27.523438 10.195312 C 27.480469 9.859375 27.363281 9.550781 27.171875 9.273438 C 26.980469 8.992188 26.734375 8.773438 26.433594 8.613281 C 25.246094 7.738281 25.617188 7.515625 25.914062 6.546875 C 26.25 6.535156 26.585938 6.542969 26.921875 6.578125 C 27.710938 7.929688 29.527344 9.375 31.207031 9.054688 C 31.867188 8.890625 32.429688 8.5625 32.894531 8.070312 C 33.605469 8.402344 34.289062 8.785156 34.945312 9.21875 C 34.824219 11.308594 36.308594 13.78125 39.089844 13.28125 C 39.238281 13.488281 39.375 13.703125 39.511719 13.917969 C 38.894531 14.496094 38.480469 15.195312 38.277344 16.015625 C 37.964844 17.214844 38.351562 17.867188 38.625 19.304688 C 39.191406 22.289062 38.390625 23.933594 39.746094 24.515625 C 40.300781 24.710938 40.808594 24.632812 41.273438 24.273438 C 41.460938 24.167969 41.691406 24.015625 41.890625 24.085938 C 41.804688 24.859375 41.664062 25.625 41.46875 26.375 C 41.273438 27.128906 41.023438 27.863281 40.71875 28.578125 C 40.414062 29.296875 40.058594 29.984375 39.652344 30.648438 C 39.25 31.3125 38.796875 31.941406 38.296875 32.539062 C 37.796875 33.136719 37.257812 33.691406 36.679688 34.210938 C 36.097656 34.726562 35.480469 35.199219 34.832031 35.628906 C 34.179688 36.054688 33.503906 36.429688 32.796875 36.757812 C 32.089844 37.085938 31.367188 37.359375 30.621094 37.578125 C 29.875 37.796875 29.113281 37.960938 28.34375 38.070312 C 27.574219 38.179688 26.800781 38.230469 26.023438 38.222656 C 25.246094 38.21875 24.472656 38.15625 23.703125 38.035156 C 22.933594 37.917969 22.179688 37.742188 21.4375 37.511719 C 20.691406 37.28125 19.972656 36.996094 19.269531 36.65625 C 18.570312 36.320312 17.898438 35.933594 17.253906 35.496094 C 16.609375 35.0625 16 34.578125 15.425781 34.054688 C 14.855469 33.527344 14.324219 32.964844 13.832031 32.359375 C 13.695312 32.195312 13.523438 32.101562 13.308594 32.078125 C 13.097656 32.058594 12.90625 32.117188 12.742188 32.25 C 12.578125 32.386719 12.480469 32.558594 12.457031 32.769531 C 12.4375 32.984375 12.492188 33.171875 12.625 33.339844 C 13.289062 34.15625 14.019531 34.910156 14.820312 35.59375 C 15.617188 36.277344 16.472656 36.886719 17.382812 37.417969 C 18.292969 37.945312 19.242188 38.390625 20.234375 38.746094 C 21.222656 39.105469 22.238281 39.371094 23.277344 39.542969 C 24.316406 39.714844 25.359375 39.792969 26.414062 39.777344 C 27.464844 39.761719 28.507812 39.648438 29.542969 39.445312 C 30.574219 39.238281 31.578125 38.941406 32.558594 38.554688 C 33.535156 38.164062 34.472656 37.691406 35.363281 37.132812 C 36.257812 36.574219 37.09375 35.941406 37.871094 35.230469 C 38.648438 34.523438 39.355469 33.746094 39.992188 32.910156 C 40.628906 32.070312 41.1875 31.183594 41.664062 30.242188 C 42.136719 29.304688 42.527344 28.332031 42.824219 27.320312 C 43.125 26.3125 43.328125 25.28125 43.441406 24.234375 C 43.554688 23.1875 43.570312 22.140625 43.492188 21.089844 C 43.417969 20.042969 43.246094 19.007812 42.980469 17.988281 C 42.714844 16.96875 42.359375 15.984375 41.914062 15.027344 C 41.46875 14.074219 40.941406 13.167969 40.332031 12.308594 C 39.722656 11.449219 39.042969 10.652344 38.289062 9.917969 C 37.535156 9.183594 36.71875 8.523438 35.847656 7.933594 C 34.972656 7.347656 34.054688 6.84375 33.085938 6.421875 C 32.121094 6.003906 31.128906 5.671875 30.101562 5.433594 C 29.078125 5.191406 28.039062 5.046875 26.988281 4.996094 C 25.933594 4.945312 24.886719 4.988281 23.84375 5.128906 C 22.800781 5.265625 21.777344 5.5 20.777344 5.824219 Z M 10.652344 11.214844 C 12.925781 8.414062 14.339844 9.328125 17.011719 7.167969 C 17.273438 8.722656 17.097656 10.222656 16.484375 11.675781 C 15.960938 12.785156 15.246094 13.753906 14.347656 14.589844 C 13.445312 15.421875 12.421875 16.054688 11.273438 16.488281 C 11.84375 14.753906 12.855469 13.328125 14.300781 12.214844 C 14.46875 12.082031 14.5625 11.910156 14.589844 11.695312 C 14.613281 11.484375 14.5625 11.292969 14.429688 11.125 C 14.296875 10.957031 14.125 10.859375 13.914062 10.832031 C 13.703125 10.804688 13.511719 10.855469 13.34375 10.984375 C 11.882812 12.113281 10.796875 13.53125 10.085938 15.234375 C 9.667969 13.554688 9.847656 12.203125 10.652344 11.214844 Z M 1.921875 16.207031 C 2.667969 16.332031 3.414062 16.339844 4.164062 16.226562 C 4.433594 16.175781 4.699219 16.175781 4.96875 16.226562 C 5.238281 16.277344 5.488281 16.371094 5.71875 16.515625 C 5.953125 16.65625 6.152344 16.835938 6.320312 17.050781 C 6.488281 17.265625 6.613281 17.503906 6.691406 17.765625 C 6.210938 17.429688 5.695312 17.175781 5.136719 17 C 4.929688 16.9375 4.734375 16.957031 4.546875 17.058594 C 4.355469 17.160156 4.230469 17.316406 4.167969 17.519531 C 4.109375 17.722656 4.125 17.921875 4.226562 18.109375 C 4.324219 18.296875 4.476562 18.425781 4.683594 18.488281 C 5.175781 18.636719 5.621094 18.871094 6.027344 19.1875 C 5.21875 19.117188 4.46875 18.863281 3.78125 18.425781 C 2.929688 17.882812 2.308594 17.140625 1.921875 16.207031 Z M 29.1875 6.839844 C 29.882812 6.976562 30.566406 7.160156 31.234375 7.394531 C 30.578125 7.765625 29.773438 7.316406 29.1875 6.839844 Z M 36.796875 10.691406 C 37.148438 11.011719 37.480469 11.34375 37.800781 11.691406 C 37.324219 11.5 36.992188 11.164062 36.796875 10.691406 Z M 40.449219 22.949219 C 40.464844 21.628906 40.367188 20.320312 40.15625 19.015625 C 39.914062 17.753906 39.609375 17.082031 39.78125 16.40625 C 39.886719 16.007812 40.058594 15.648438 40.300781 15.316406 C 41.445312 17.582031 42.003906 19.980469 41.976562 22.519531 C 41.417969 22.484375 40.910156 22.628906 40.449219 22.949219 Z M 40.449219 22.949219 " fill-opacity="1" fill-rule="nonzero"/><path fill="#d2ae6d" d="M 12.675781 30.945312 C 12.675781 31.160156 12.601562 31.34375 12.449219 31.496094 C 12.296875 31.648438 12.113281 31.722656 11.898438 31.722656 C 11.683594 31.722656 11.5 31.648438 11.347656 31.496094 C 11.195312 31.34375 11.121094 31.160156 11.121094 30.945312 C 11.121094 30.730469 11.195312 30.546875 11.347656 30.394531 C 11.5 30.242188 11.683594 30.167969 11.898438 30.167969 C 12.113281 30.167969 12.296875 30.242188 12.449219 30.394531 C 12.601562 30.546875 12.675781 30.730469 12.675781 30.945312 Z M 12.675781 30.945312 " fill-opacity="1" fill-rule="nonzero"/></svg>
