<svg xmlns="http://www.w3.org/2000/svg" xmlns:xlink="http://www.w3.org/1999/xlink" width="48" zoomAndPan="magnify" viewBox="0 0 45 44.999999" height="48" preserveAspectRatio="xMidYMid meet" version="1.0"><defs><clipPath id="833980fcba"><path d="M 1.425781 1.425781 L 34 1.425781 L 34 35 L 1.425781 35 Z M 1.425781 1.425781 " clip-rule="nonzero"/></clipPath><clipPath id="eb2854f1e4"><path d="M 11 9 L 43.425781 9 L 43.425781 43.425781 L 11 43.425781 Z M 11 9 " clip-rule="nonzero"/></clipPath><clipPath id="52e8cd3362"><path d="M 21 14 L 43.425781 14 L 43.425781 43.425781 L 21 43.425781 Z M 21 14 " clip-rule="nonzero"/></clipPath></defs><path fill="#d2ae6d" d="M 31.535156 17.730469 C 31.46875 17.597656 31.4375 17.464844 31.402344 17.335938 C 31.402344 17.464844 31.46875 17.597656 31.535156 17.730469 Z M 31.535156 17.730469 " fill-opacity="1" fill-rule="nonzero"/><path fill="#d2ae6d" d="M 31.765625 18.125 C 31.730469 18.089844 31.699219 18.023438 31.667969 17.992188 C 31.667969 18.847656 31.566406 19.703125 31.402344 20.523438 L 32.816406 19.472656 Z M 31.765625 18.125 " fill-opacity="1" fill-rule="nonzero"/><g clip-path="url(#833980fcba)"><path fill="#d2ae6d" d="M 17.859375 34.328125 C 18.023438 34.328125 18.1875 34.328125 18.386719 34.328125 L 17.566406 33.179688 C 17.234375 32.71875 17.136719 32.160156 17.234375 31.632812 C 17.234375 31.632812 17.234375 31.667969 17.234375 31.699219 C 9.90625 31.371094 4.054688 25.289062 4.054688 17.894531 C 4.054688 10.265625 10.234375 4.085938 17.859375 4.085938 C 24.863281 4.085938 30.613281 9.3125 31.535156 16.050781 C 31.699219 15.757812 31.894531 15.492188 32.191406 15.296875 L 33.867188 14.144531 C 32.160156 6.882812 25.617188 1.457031 17.859375 1.457031 C 8.789062 1.457031 1.425781 8.820312 1.425781 17.894531 C 1.425781 26.964844 8.789062 34.328125 17.859375 34.328125 Z M 17.859375 34.328125 " fill-opacity="1" fill-rule="nonzero"/></g><g clip-path="url(#eb2854f1e4)"><path fill="#d2ae6d" d="M 11.417969 43.269531 C 11.550781 43.433594 11.746094 43.53125 11.945312 43.53125 C 12.074219 43.53125 12.207031 43.5 12.339844 43.402344 L 22.199219 36.269531 C 22.496094 36.070312 22.5625 35.644531 22.363281 35.347656 L 20.097656 32.160156 L 36.003906 20.390625 C 36.136719 20.292969 36.234375 20.128906 36.269531 19.964844 C 36.300781 19.800781 36.234375 19.601562 36.136719 19.472656 L 34.261719 17.070312 L 43.238281 10.890625 C 43.46875 10.726562 43.566406 10.433594 43.5 10.167969 C 43.433594 9.90625 43.171875 9.707031 42.875 9.707031 L 38.929688 9.707031 C 38.570312 9.707031 38.273438 10.003906 38.273438 10.367188 C 38.273438 10.726562 38.570312 11.023438 38.929688 11.023438 L 40.773438 11.023438 L 32.949219 16.382812 C 32.785156 16.480469 32.683594 16.644531 32.683594 16.808594 C 32.683594 16.972656 32.71875 17.171875 32.816406 17.300781 L 34.691406 19.734375 L 18.78125 31.503906 C 18.484375 31.699219 18.417969 32.125 18.648438 32.421875 L 20.882812 35.609375 L 11.550781 42.382812 C 11.253906 42.546875 11.1875 42.972656 11.417969 43.269531 Z M 11.417969 43.269531 " fill-opacity="1" fill-rule="nonzero"/></g><g clip-path="url(#52e8cd3362)"><path fill="#d2ae6d" d="M 43.5 42.875 C 43.5 42.777344 43.5 16.25 43.5 16.25 C 43.5 15.527344 42.90625 14.933594 42.183594 14.933594 L 40.871094 14.933594 C 40.148438 14.933594 39.554688 15.527344 39.554688 16.25 L 39.554688 23.808594 L 38.242188 23.808594 C 37.515625 23.808594 36.925781 24.402344 36.925781 25.125 L 36.925781 42.21875 L 35.609375 42.21875 L 35.609375 27.097656 C 35.609375 26.375 35.019531 25.78125 34.296875 25.78125 L 32.980469 25.78125 C 32.257812 25.78125 31.667969 26.375 31.667969 27.097656 L 31.667969 33.671875 L 30.351562 33.671875 C 29.628906 33.671875 29.035156 34.261719 29.035156 34.984375 L 29.035156 42.21875 L 27.722656 42.21875 L 27.722656 33.015625 C 27.722656 32.289062 27.128906 31.699219 26.40625 31.699219 L 25.09375 31.699219 C 24.367188 31.699219 23.777344 32.289062 23.777344 33.015625 L 23.777344 38.273438 L 22.460938 38.273438 C 21.738281 38.273438 21.148438 38.863281 21.148438 39.589844 C 21.148438 39.589844 21.148438 42.777344 21.148438 42.875 C 21.148438 43.238281 21.445312 43.53125 21.804688 43.53125 L 42.84375 43.53125 C 43.203125 43.53125 43.5 43.238281 43.5 42.875 Z M 23.777344 42.21875 L 22.460938 42.21875 L 22.460938 39.589844 L 23.777344 39.589844 Z M 26.40625 42.21875 L 25.09375 42.21875 L 25.09375 33.015625 L 26.40625 33.015625 Z M 31.667969 42.21875 L 30.351562 42.21875 L 30.351562 34.984375 L 31.667969 34.984375 Z M 34.296875 42.21875 L 32.980469 42.21875 L 32.980469 27.097656 L 34.296875 27.097656 Z M 39.554688 42.21875 L 38.242188 42.21875 L 38.242188 25.125 L 39.554688 25.125 Z M 42.183594 42.21875 L 40.871094 42.21875 L 40.871094 16.25 L 42.183594 16.25 Z M 42.183594 42.21875 " fill-opacity="1" fill-rule="nonzero"/></g><path fill="#d2ae6d" d="M 30.351562 17.894531 C 30.351562 10.992188 24.761719 5.402344 17.859375 5.402344 C 10.957031 5.402344 5.371094 10.992188 5.371094 17.894531 C 5.371094 24.796875 10.957031 30.382812 17.859375 30.382812 C 17.925781 30.382812 18.023438 30.382812 18.089844 30.382812 L 29.761719 21.773438 C 30.121094 20.523438 30.351562 19.242188 30.351562 17.894531 Z M 19.011719 25.488281 L 19.011719 26.703125 C 19.011719 27.261719 18.550781 27.722656 17.992188 27.722656 C 17.433594 27.722656 16.972656 27.261719 16.972656 26.703125 L 16.972656 25.488281 C 14.871094 25.222656 13.191406 24.074219 12.46875 22.890625 C 12.339844 22.726562 12.273438 22.496094 12.273438 22.296875 C 12.273438 21.640625 12.796875 21.113281 13.421875 21.113281 C 13.914062 21.113281 14.179688 21.378906 14.375 21.609375 C 15.296875 22.527344 16.445312 23.285156 17.960938 23.285156 C 19.929688 23.285156 20.917969 22.625 20.917969 21.277344 C 20.917969 18.089844 12.960938 19.535156 12.960938 14.277344 C 12.960938 12.339844 14.179688 10.660156 16.972656 10.332031 L 16.972656 9.082031 C 16.972656 8.523438 17.433594 8.066406 17.992188 8.066406 C 18.550781 8.066406 19.011719 8.523438 19.011719 9.082031 L 19.011719 10.332031 C 20.753906 10.5625 22.199219 11.253906 22.957031 12.304688 C 23.085938 12.503906 23.1875 12.734375 23.1875 12.996094 C 23.1875 13.621094 22.660156 14.144531 22.003906 14.144531 C 21.707031 14.144531 21.378906 13.980469 21.050781 13.652344 C 20.359375 12.996094 19.242188 12.503906 17.992188 12.503906 C 16.183594 12.503906 15.492188 13.355469 15.492188 14.246094 C 15.492188 17.105469 23.449219 15.789062 23.449219 21.246094 C 23.449219 23.644531 21.9375 25.222656 19.011719 25.488281 Z M 19.011719 25.488281 " fill-opacity="1" fill-rule="nonzero"/></svg>
