<svg xmlns="http://www.w3.org/2000/svg" xmlns:xlink="http://www.w3.org/1999/xlink" width="48" zoomAndPan="magnify" viewBox="0 0 45 44.999999" height="48" preserveAspectRatio="xMidYMid meet" version="1.0"><defs><clipPath id="32a20651d2"><path d="M 1.164062 2.246094 L 43.828125 2.246094 L 43.828125 42.707031 L 1.164062 42.707031 Z M 1.164062 2.246094 " clip-rule="nonzero"/></clipPath></defs><g clip-path="url(#32a20651d2)"><path fill="#d2ae6d" d="M 29.5 30.871094 C 29.511719 30.871094 28.261719 31.109375 27.171875 30.605469 C 31.925781 30.953125 36.089844 26.480469 36.097656 22.789062 C 37.453125 25.757812 33.570312 30.292969 29.5 30.871094 Z M 41.855469 35.433594 C 38.34375 38.691406 22.164062 38.46875 19.496094 35.214844 C 19.203125 34.859375 19.285156 34.523438 19.289062 34.167969 C 20.238281 35.296875 22.933594 36.019531 24.292969 36.0625 C 21.371094 35.417969 17.617188 33.933594 20.09375 32.273438 C 21.636719 31.242188 24.417969 30.75 26.257812 30.53125 C 27.921875 31.949219 30.644531 31.449219 32.664062 30.292969 C 36.296875 30.433594 39.6875 31.050781 41.386719 32.167969 C 42.925781 33.171875 42.382812 34.316406 40.773438 35.140625 C 37.324219 36.777344 30.335938 36.585938 26.535156 36.421875 C 25.828125 36.390625 29.949219 37.09375 34.691406 36.859375 C 36.90625 36.75 41.25 36.332031 42.3125 34.402344 C 42.3125 34.835938 42.304688 34.984375 41.855469 35.433594 Z M 32.820312 18.488281 C 33.761719 18.796875 34.578125 19.398438 35.136719 20.359375 C 35.488281 21.011719 35.449219 20.988281 35.601562 21.457031 C 36.511719 25.261719 32.492188 30.0625 27.8125 30.074219 C 27.867188 30.074219 26.828125 30.117188 25.914062 29.824219 C 24.371094 29.339844 23.289062 27.878906 23.089844 26.46875 C 27.03125 28.652344 33.785156 22.886719 32.820312 18.488281 Z M 32.15625 17.808594 C 32.546875 18.363281 32.574219 18.625 32.59375 19.363281 C 32.597656 23.554688 26.214844 28.285156 22.90625 25.695312 C 26.042969 26.898438 33.0625 21.863281 32.15625 17.808594 Z M 24.707031 8.929688 C 25.953125 11.886719 18.28125 18.152344 15.835938 16.566406 C 19.675781 15.636719 23.257812 12.40625 24.707031 8.929688 Z M 26.09375 9.261719 C 27.789062 13.082031 17.121094 21.460938 15.269531 17.152344 C 15.246094 17.0625 15.207031 16.96875 15.183594 16.71875 C 17.921875 19.5 26.820312 11.6875 24.855469 8.554688 C 24.886719 8.472656 24.914062 8.390625 24.941406 8.308594 C 25.410156 8.445312 25.8125 8.742188 26.09375 9.261719 Z M 21.933594 6.171875 C 20.242188 8.710938 14.425781 13.980469 11.445312 13.265625 C 14.601562 12.925781 19.296875 8.605469 21.199219 5.566406 C 21.582031 4.953125 22.164062 3.996094 22.222656 3.289062 C 22.542969 3.824219 22.480469 4.519531 22.382812 5.140625 C 22.382812 5.175781 22.925781 4.113281 22.496094 3.242188 C 23.117188 3.433594 23.667969 3.78125 24.105469 4.332031 C 26.921875 7.859375 20.761719 15.4375 14.972656 16.257812 C 12.519531 16.601562 10.949219 15.351562 10.664062 13.535156 C 13.59375 15.425781 20.519531 9.519531 21.933594 6.171875 Z M 21.199219 2.589844 C 21.484375 2.636719 21.847656 2.742188 21.945312 3.015625 C 22.027344 3.324219 21.871094 4.1875 21.738281 4.507812 C 20.648438 7.328125 13.8125 13.074219 10.835938 12.703125 C 10.25 12.609375 10.304688 11.835938 10.425781 11.253906 C 11.34375 7.269531 17.863281 2.078125 21.199219 2.589844 Z M 22.226562 22.296875 C 21.308594 20.820312 19.101562 19.660156 18.394531 20.808594 C 17.71875 20.105469 17.015625 19.441406 16.328125 18.757812 C 19.738281 19.660156 24.074219 15.925781 25.773438 12.972656 C 25.503906 13.296875 25.183594 13.890625 24.140625 14.796875 C 24.785156 14.007812 26.214844 12.34375 26.515625 10.328125 C 26.589844 10.851562 26.34375 11.664062 26.363281 11.726562 C 26.585938 11.132812 26.679688 10.769531 26.652344 10.164062 C 27.5 11.644531 31.246094 16.71875 31.4375 17.183594 C 33.007812 20.183594 28.808594 24.03125 25.566406 25.164062 C 23.929688 25.738281 22.9375 25.476562 21.945312 24.628906 C 22.960938 24.394531 22.796875 23.195312 22.226562 22.296875 Z M 21.355469 24.347656 C 21.472656 24.21875 21.632812 24.042969 21.65625 23.984375 C 22.132812 23.101562 20.222656 21.210938 19.175781 21.320312 C 18.949219 21.367188 19.003906 21.300781 18.53125 21.769531 C 18.449219 21.410156 18.519531 21.207031 18.519531 21.191406 C 18.785156 20.121094 20.335938 20.792969 21.199219 21.601562 C 21.238281 21.601562 22.269531 22.675781 22.3125 23.4375 C 22.414062 24.113281 22.042969 24.347656 21.355469 24.347656 Z M 5.785156 41.050781 C 5.535156 39.867188 3.992188 38.382812 2.707031 38.234375 C 5.839844 33.792969 13.300781 27.140625 17.636719 23.027344 C 17.660156 23.027344 19.023438 21.683594 19.035156 21.683594 C 19.519531 21.238281 21.246094 22.589844 21.421875 23.570312 C 21.464844 23.828125 21.355469 23.894531 21.164062 24.109375 C 18.183594 27.445312 14.230469 32.519531 10.214844 36.800781 C 7.730469 39.4375 7.089844 39.871094 5.785156 41.050781 Z M 5.292969 41.960938 C 5.785156 40.828125 3.945312 38.996094 2.710938 38.691406 C 2.363281 38.632812 2.199219 38.582031 1.808594 38.808594 C 2.425781 37.546875 5.3125 39.527344 5.566406 41.15625 C 5.617188 41.472656 5.5625 41.789062 5.292969 41.960938 Z M 1.855469 41.789062 C 1.550781 41.289062 1.777344 40.714844 1.976562 40.714844 C 2.136719 40.679688 2.375 40.804688 2.515625 40.890625 C 3.058594 41.238281 3.457031 41.984375 3.25 42.097656 C 2.703125 42.402344 2.117188 42.222656 1.855469 41.789062 Z M 3.246094 42.347656 C 3.359375 42.292969 3.484375 42.242188 3.507812 42.082031 C 3.59375 41.59375 2.953125 40.910156 2.480469 40.679688 C 1.992188 40.449219 1.738281 40.523438 1.601562 40.921875 C 1.179688 40.085938 1.382812 39.359375 1.816406 39.0625 C 2.820312 38.183594 5.40625 40.585938 5.113281 41.773438 C 4.816406 42.59375 4.046875 42.625 3.246094 42.347656 Z M 21.613281 40 C 20.496094 39.675781 18.394531 38.945312 18.046875 37.839844 C 18.015625 37.734375 18 37.632812 18.011719 37.558594 C 18.109375 37 18.78125 35.855469 19.082031 35.195312 C 19.109375 35.140625 19.078125 35.253906 19.261719 35.511719 C 21.480469 38.664062 32.953125 38.589844 37.132812 37.890625 C 38.742188 37.554688 41.917969 36.75 42.476562 35.199219 C 42.730469 35.757812 43.449219 37 43.542969 37.558594 C 43.574219 37.738281 43.492188 37.933594 43.382812 38.105469 C 41.535156 40.972656 29.179688 42.195312 21.613281 40 Z M 42.695312 34.929688 C 42.546875 34.621094 42.550781 34.734375 42.566406 33.578125 C 42.59375 31.441406 38.195312 30.246094 33.191406 29.960938 C 35.773438 28.21875 37.984375 24.425781 36.042969 21.976562 C 35.832031 20.351562 34.695312 18.667969 32.6875 18.117188 C 32.507812 17.726562 32.195312 17.304688 31.90625 17.097656 C 31.5625 16.382812 29.421875 13.585938 27.570312 10.847656 C 27.117188 10.167969 26.792969 9.617188 26.421875 9.261719 C 26.179688 8.644531 25.6875 8.199219 25.035156 8.007812 C 25.890625 5.003906 24.261719 3.011719 22.046875 2.65625 C 21.503906 2.066406 19.929688 2.226562 19.148438 2.4375 C 15.101562 3.515625 8.152344 9.875 10.136719 13.007812 C 10.183594 15.144531 11.773438 16.992188 14.640625 16.761719 C 14.699219 17.5 15.0625 18.113281 15.695312 18.492188 C 16.542969 19.394531 17.417969 20.261719 18.253906 21.15625 C 18.203125 21.417969 18.25 21.699219 18.335938 21.960938 C 14.835938 25.429688 5.878906 33.230469 2.429688 38.214844 L 2.441406 38.222656 C 1.957031 38.25 1.652344 38.558594 1.582031 38.976562 C 1.296875 39.238281 1.105469 39.683594 1.183594 40.273438 C 1.234375 40.5625 1.351562 40.96875 1.542969 41.171875 C 1.464844 42.035156 2.1875 42.628906 2.964844 42.445312 C 3.777344 42.855469 4.609375 42.882812 5.085938 42.304688 C 5.511719 42.214844 5.800781 41.914062 5.816406 41.40625 C 10.96875 37.296875 16.738281 29.609375 21.136719 24.59375 C 21.222656 24.617188 21.304688 24.632812 21.386719 24.644531 C 21.539062 24.792969 21.691406 24.929688 21.851562 25.0625 C 21.921875 25.589844 22.179688 25.828125 22.613281 26.152344 C 22.695312 27.871094 23.769531 29.535156 25.523438 30.242188 C 21.757812 30.765625 18.890625 31.886719 18.992188 33.589844 C 18.992188 34.660156 18.992188 34.527344 18.992188 34.648438 C 18.757812 35.28125 17.785156 36.667969 17.726562 37.601562 C 17.667969 42.488281 38.59375 43.277344 43.128906 39.070312 C 44.5 37.75 43.582031 36.75 42.695312 34.929688 " fill-opacity="1" fill-rule="nonzero"/></g></svg>
