<svg xmlns="http://www.w3.org/2000/svg" xmlns:xlink="http://www.w3.org/1999/xlink" width="48" zoomAndPan="magnify" viewBox="0 0 45 44.999999" height="48" preserveAspectRatio="xMidYMid meet" version="1.0"><defs><clipPath id="ad28e3aee6"><path d="M 0 30.765625 L 22.320312 30.765625 L 22.320312 35.800781 L 0 35.800781 Z M 0 30.765625 " clip-rule="nonzero"/></clipPath><clipPath id="0e63121b10"><path d="M 7.238281 6.9375 L 44.164062 6.9375 L 44.164062 34.6875 L 7.238281 34.6875 Z M 7.238281 6.9375 " clip-rule="nonzero"/></clipPath></defs><g clip-path="url(#ad28e3aee6)"><path fill="#d2ae6d" d="M 22.179688 34.308594 C 22.179688 35.132812 21.476562 35.800781 20.613281 35.800781 L 1.566406 35.800781 C 0.699219 35.800781 0 35.132812 0 34.308594 C 0 33.523438 0.640625 32.878906 1.453125 32.824219 C 1.449219 32.789062 1.441406 32.757812 1.441406 32.726562 L 1.441406 31.59375 C 1.441406 31.195312 1.777344 30.875 2.195312 30.875 L 19.984375 30.875 C 20.398438 30.875 20.738281 31.195312 20.738281 31.59375 L 20.738281 32.726562 C 20.738281 32.757812 20.730469 32.789062 20.726562 32.824219 C 21.539062 32.878906 22.179688 33.523438 22.179688 34.308594 " fill-opacity="1" fill-rule="nonzero"/></g><g clip-path="url(#0e63121b10)"><path fill="#d2ae6d" d="M 15.691406 10.03125 L 25.828125 15.992188 C 26.394531 16.308594 27.121094 16.132812 27.457031 15.59375 L 28.066406 14.609375 C 28.398438 14.070312 28.210938 13.378906 27.644531 13.058594 L 17.507812 7.097656 C 16.945312 6.777344 16.214844 6.957031 15.882812 7.496094 L 15.273438 8.480469 C 14.9375 9.019531 15.125 9.710938 15.691406 10.03125 Z M 7.898438 22.539062 L 18.035156 28.503906 C 18.601562 28.820312 19.328125 28.640625 19.660156 28.101562 L 20.269531 27.121094 C 20.605469 26.582031 20.417969 25.886719 19.851562 25.570312 L 9.714844 19.605469 C 9.148438 19.289062 8.421875 19.46875 8.085938 20.003906 L 7.476562 20.988281 C 7.144531 21.527344 7.332031 22.222656 7.898438 22.539062 Z M 43.691406 30.738281 C 43.074219 29.683594 42.136719 28.953125 41.019531 28.425781 C 38.007812 27.003906 26.160156 20.507812 24.945312 20.339844 C 24.730469 20.3125 24.605469 20.355469 24.492188 20.542969 C 24.113281 21.179688 23.71875 21.808594 23.3125 22.425781 C 23.191406 22.613281 23.214844 22.738281 23.34375 22.90625 C 23.964844 23.691406 35 31.535156 37.921875 33.476562 C 38.738281 34.019531 39.636719 34.386719 40.625 34.554688 C 40.9375 34.5625 41.253906 34.589844 41.570312 34.574219 C 42.816406 34.527344 43.734375 33.925781 44.054688 32.917969 C 44.300781 32.144531 44.089844 31.417969 43.691406 30.738281 Z M 20.292969 24.542969 C 17.199219 22.792969 13.527344 20.457031 10.433594 18.707031 C 12.042969 16.125 13.625 13.589844 15.230469 11.011719 C 18.3125 12.757812 21.980469 15.09375 25.089844 16.851562 C 23.488281 19.414062 21.902344 21.964844 20.292969 24.542969 " fill-opacity="1" fill-rule="nonzero"/></g></svg>
