<svg xmlns="http://www.w3.org/2000/svg" xmlns:xlink="http://www.w3.org/1999/xlink" width="48" zoomAndPan="magnify" viewBox="0 0 45 44.999999" height="48" preserveAspectRatio="xMidYMid meet" version="1.0"><defs><clipPath id="f1a8fb8681"><path d="M 22 5.136719 L 45 5.136719 L 45 39.636719 L 22 39.636719 Z M 22 5.136719 " clip-rule="nonzero"/></clipPath><clipPath id="413025f548"><path d="M 0 5.136719 L 23 5.136719 L 23 39.636719 L 0 39.636719 Z M 0 5.136719 " clip-rule="nonzero"/></clipPath></defs><g clip-path="url(#f1a8fb8681)"><path fill="#d2ae6d" d="M 22.496094 5.136719 L 23.285156 6.246094 C 23.4375 6.433594 23.527344 6.671875 23.527344 6.929688 C 23.527344 7.257812 23.378906 7.554688 23.144531 7.75 C 22.597656 8.246094 22.886719 8.699219 23.484375 8.984375 C 23.496094 9.722656 23.480469 10.203125 23.496094 10.519531 C 23.710938 10.671875 23.886719 10.875 24.011719 11.109375 C 24.222656 11.113281 24.429688 11.132812 24.621094 11.15625 C 27.441406 11.390625 29.972656 12.730469 32.617188 13.597656 C 33.9375 14.03125 35.382812 14.167969 36.726562 13.746094 C 36.886719 13.699219 37.054688 13.648438 37.222656 13.59375 L 37.402344 13.09375 C 37.363281 13.089844 37.324219 13.082031 37.289062 13.066406 C 36.589844 12.957031 36.363281 12.035156 36.777344 11.515625 C 37.417969 10.570312 38.859375 10.660156 39.632812 11.386719 C 40.367188 11.945312 40.367188 13.09375 39.75 13.742188 C 39.386719 14.136719 38.949219 14.425781 38.472656 14.644531 L 43.769531 29.410156 L 44.988281 29.410156 C 44.632812 29.617188 44.324219 29.855469 43.996094 30.015625 C 41.101562 31.691406 37.535156 32.027344 34.304688 31.183594 C 32.769531 30.75 31.585938 30.25 30.339844 29.417969 L 31.539062 29.414062 L 36.648438 15.191406 C 36.425781 15.234375 36.203125 15.273438 35.984375 15.308594 C 33.585938 15.644531 31.328125 14.589844 29.125 13.804688 C 27.488281 13.199219 25.789062 12.699219 24.03125 12.667969 L 24.03125 12.671875 C 23.902344 12.929688 23.714844 13.148438 23.480469 13.3125 L 23.480469 33.1875 C 23.480469 36.976562 27.054688 37.675781 27.792969 37.675781 C 28.527344 37.675781 29.210938 38.019531 29.210938 38.574219 C 30.707031 38.621094 32.488281 38.574219 33.605469 38.574219 C 34.726562 38.574219 35.566406 38.898438 35.566406 39.828125 C 31.210938 39.859375 26.851562 39.839844 22.496094 39.84375 Z M 37.867188 11.644531 C 37.746094 11.644531 37.597656 11.667969 37.492188 11.726562 C 37.003906 11.917969 37.125 12.636719 37.5625 12.652344 C 37.589844 12.582031 37.570312 12.511719 37.644531 12.496094 C 37.714844 12.480469 37.742188 12.5625 37.757812 12.613281 C 37.796875 12.597656 37.839844 12.585938 37.878906 12.5625 C 38.328125 12.238281 37.605469 11.777344 38.171875 11.941406 C 38.742188 12.308594 38.339844 12.804688 37.890625 13.015625 L 37.984375 13.28125 C 38.257812 13.132812 38.5 12.941406 38.675781 12.671875 C 38.945312 12.144531 38.390625 11.644531 37.867188 11.644531 Z M 37.769531 13.0625 L 37.722656 13.074219 L 37.722656 13.410156 L 37.871094 13.339844 Z M 37.597656 13.101562 L 37.53125 13.105469 L 37.375 13.542969 L 37.597656 13.460938 Z M 38.359375 14.695312 C 38.152344 14.785156 37.9375 14.859375 37.722656 14.929688 L 37.714844 29.414062 L 43.640625 29.410156 Z M 37.597656 14.964844 L 36.792969 15.160156 L 31.671875 29.417969 L 37.585938 29.414062 L 37.597656 29.367188 Z M 37.597656 14.964844 " fill-opacity="1" fill-rule="nonzero"/></g><g clip-path="url(#413025f548)"><path fill="#d2ae6d" d="M 22.503906 5.136719 L 21.714844 6.246094 C 21.5625 6.433594 21.472656 6.671875 21.472656 6.929688 C 21.472656 7.257812 21.621094 7.554688 21.855469 7.75 C 22.402344 8.246094 22.113281 8.699219 21.515625 8.984375 C 21.503906 9.722656 21.519531 10.203125 21.503906 10.519531 C 21.289062 10.671875 21.113281 10.875 20.988281 11.109375 C 20.777344 11.113281 20.570312 11.132812 20.378906 11.15625 C 17.558594 11.390625 15.027344 12.730469 12.382812 13.597656 C 11.0625 14.03125 9.617188 14.167969 8.273438 13.746094 C 8.113281 13.699219 7.945312 13.648438 7.777344 13.59375 L 7.597656 13.09375 C 7.636719 13.089844 7.675781 13.082031 7.710938 13.066406 C 8.410156 12.957031 8.636719 12.035156 8.222656 11.515625 C 7.582031 10.570312 6.140625 10.660156 5.367188 11.386719 C 4.632812 11.945312 4.632812 13.09375 5.25 13.742188 C 5.613281 14.136719 6.050781 14.425781 6.527344 14.644531 L 1.230469 29.410156 L 0.0117188 29.410156 C 0.367188 29.617188 0.675781 29.855469 1.003906 30.015625 C 3.898438 31.691406 7.464844 32.027344 10.695312 31.183594 C 12.230469 30.75 13.414062 30.25 14.660156 29.417969 L 13.460938 29.414062 L 8.351562 15.191406 C 8.574219 15.234375 8.796875 15.273438 9.015625 15.308594 C 11.414062 15.644531 13.671875 14.589844 15.875 13.804688 C 17.511719 13.199219 19.210938 12.699219 20.96875 12.667969 L 20.96875 12.671875 C 21.097656 12.929688 21.285156 13.148438 21.519531 13.3125 L 21.519531 33.1875 C 21.519531 36.976562 17.945312 37.675781 17.207031 37.675781 C 16.472656 37.675781 15.789062 38.019531 15.789062 38.574219 C 14.292969 38.621094 12.511719 38.574219 11.394531 38.574219 C 10.273438 38.574219 9.433594 38.898438 9.433594 39.828125 C 13.789062 39.859375 18.148438 39.839844 22.503906 39.84375 Z M 7.132812 11.644531 C 7.253906 11.644531 7.402344 11.667969 7.507812 11.726562 C 7.996094 11.917969 7.875 12.636719 7.4375 12.652344 C 7.410156 12.582031 7.429688 12.511719 7.355469 12.496094 C 7.285156 12.480469 7.257812 12.5625 7.242188 12.613281 C 7.203125 12.597656 7.160156 12.585938 7.121094 12.5625 C 6.671875 12.238281 7.394531 11.777344 6.828125 11.941406 C 6.257812 12.308594 6.660156 12.804688 7.109375 13.015625 L 7.015625 13.28125 C 6.742188 13.132812 6.5 12.941406 6.324219 12.671875 C 6.054688 12.144531 6.609375 11.644531 7.132812 11.644531 Z M 7.230469 13.0625 L 7.277344 13.074219 L 7.277344 13.410156 L 7.128906 13.339844 Z M 7.402344 13.101562 L 7.46875 13.105469 L 7.625 13.542969 L 7.402344 13.460938 Z M 6.640625 14.695312 C 6.847656 14.785156 7.0625 14.859375 7.277344 14.929688 L 7.285156 29.414062 L 1.359375 29.410156 Z M 7.402344 14.964844 L 8.207031 15.160156 L 13.328125 29.417969 L 7.414062 29.414062 L 7.402344 29.367188 Z M 7.402344 14.964844 " fill-opacity="1" fill-rule="nonzero"/></g></svg>
