<svg xmlns="http://www.w3.org/2000/svg" xmlns:xlink="http://www.w3.org/1999/xlink" width="48" zoomAndPan="magnify" viewBox="0 0 45 44.999999" height="48" preserveAspectRatio="xMidYMid meet" version="1.0"><defs><clipPath id="7a4d5d5e49"><path d="M 3.222656 2.265625 L 35 2.265625 L 35 42.765625 L 3.222656 42.765625 Z M 3.222656 2.265625 " clip-rule="nonzero"/></clipPath><clipPath id="c735e22fed"><path d="M 26 9 L 43.722656 9 L 43.722656 37 L 26 37 Z M 26 9 " clip-rule="nonzero"/></clipPath></defs><path fill="#d2ae6d" d="M 25.386719 35.460938 L 14.636719 35.460938 C 14.289062 35.460938 14.003906 35.746094 14.003906 36.09375 C 14.003906 36.441406 14.289062 36.726562 14.636719 36.726562 L 25.734375 36.726562 C 25.511719 36.34375 25.386719 35.902344 25.386719 35.460938 Z M 25.386719 35.460938 " fill-opacity="1" fill-rule="nonzero"/><path fill="#d2ae6d" d="M 11.222656 9.601562 C 10.9375 9.378906 10.558594 9.441406 10.339844 9.726562 L 8.789062 11.78125 L 8.09375 11.148438 C 7.839844 10.929688 7.429688 10.929688 7.207031 11.179688 C 6.988281 11.433594 6.988281 11.84375 7.242188 12.066406 L 8.441406 13.171875 C 8.566406 13.269531 8.726562 13.332031 8.882812 13.332031 C 8.917969 13.332031 8.917969 13.332031 8.949219 13.332031 C 9.136719 13.300781 9.296875 13.234375 9.390625 13.078125 L 11.351562 10.453125 C 11.570312 10.234375 11.507812 9.820312 11.222656 9.601562 Z M 11.222656 9.601562 " fill-opacity="1" fill-rule="nonzero"/><path fill="#d2ae6d" d="M 29.8125 8.273438 L 14.636719 8.273438 C 14.289062 8.273438 14.003906 8.558594 14.003906 8.90625 C 14.003906 9.253906 14.289062 9.539062 14.636719 9.539062 L 29.8125 9.539062 C 30.160156 9.539062 30.445312 9.253906 30.445312 8.90625 C 30.445312 8.558594 30.160156 8.273438 29.8125 8.273438 Z M 29.8125 8.273438 " fill-opacity="1" fill-rule="nonzero"/><path fill="#d2ae6d" d="M 29.8125 10.800781 L 14.636719 10.800781 C 14.289062 10.800781 14.003906 11.085938 14.003906 11.433594 C 14.003906 11.78125 14.289062 12.066406 14.636719 12.066406 L 29.8125 12.066406 C 30.160156 12.066406 30.445312 11.78125 30.445312 11.433594 C 30.445312 11.085938 30.160156 10.800781 29.8125 10.800781 Z M 29.8125 10.800781 " fill-opacity="1" fill-rule="nonzero"/><path fill="#d2ae6d" d="M 29.8125 13.332031 L 14.636719 13.332031 C 14.289062 13.332031 14.003906 13.617188 14.003906 13.964844 C 14.003906 14.3125 14.289062 14.59375 14.636719 14.59375 L 29.8125 14.59375 C 30.160156 14.59375 30.445312 14.3125 30.445312 13.964844 C 30.445312 13.617188 30.160156 13.332031 29.8125 13.332031 Z M 29.8125 13.332031 " fill-opacity="1" fill-rule="nonzero"/><path fill="#d2ae6d" d="M 30.445312 19.96875 C 30.445312 19.621094 30.160156 19.335938 29.8125 19.335938 L 14.636719 19.335938 C 14.289062 19.335938 14.003906 19.621094 14.003906 19.96875 C 14.003906 20.316406 14.289062 20.601562 14.636719 20.601562 L 29.8125 20.601562 C 30.160156 20.601562 30.445312 20.316406 30.445312 19.96875 Z M 30.445312 19.96875 " fill-opacity="1" fill-rule="nonzero"/><path fill="#d2ae6d" d="M 11.222656 20.664062 C 10.9375 20.445312 10.558594 20.507812 10.339844 20.792969 L 8.789062 22.847656 L 8.09375 22.214844 C 7.839844 21.992188 7.429688 21.992188 7.207031 22.246094 C 6.988281 22.5 6.988281 22.910156 7.242188 23.132812 L 8.441406 24.238281 C 8.566406 24.332031 8.726562 24.394531 8.882812 24.394531 C 8.917969 24.394531 8.917969 24.394531 8.949219 24.394531 C 9.136719 24.363281 9.296875 24.300781 9.390625 24.144531 L 11.351562 21.519531 C 11.570312 21.296875 11.507812 20.886719 11.222656 20.664062 Z M 11.222656 20.664062 " fill-opacity="1" fill-rule="nonzero"/><path fill="#d2ae6d" d="M 10.972656 31.855469 C 10.71875 31.601562 10.339844 31.601562 10.085938 31.855469 L 9.265625 32.679688 L 8.441406 31.855469 C 8.1875 31.601562 7.808594 31.601562 7.558594 31.855469 C 7.304688 32.109375 7.304688 32.488281 7.558594 32.742188 L 8.378906 33.5625 L 7.558594 34.386719 C 7.304688 34.636719 7.304688 35.015625 7.558594 35.269531 C 7.683594 35.398438 7.839844 35.460938 8 35.460938 C 8.15625 35.460938 8.316406 35.398438 8.441406 35.269531 L 9.265625 34.449219 L 10.085938 35.269531 C 10.210938 35.398438 10.371094 35.460938 10.527344 35.460938 C 10.6875 35.460938 10.84375 35.398438 10.972656 35.269531 C 11.222656 35.015625 11.222656 34.636719 10.972656 34.386719 L 10.148438 33.5625 L 10.972656 32.742188 C 11.222656 32.488281 11.222656 32.109375 10.972656 31.855469 Z M 10.972656 31.855469 " fill-opacity="1" fill-rule="nonzero"/><path fill="#d2ae6d" d="M 14.003906 33.5625 C 14.003906 33.910156 14.289062 34.195312 14.636719 34.195312 L 25.480469 34.195312 L 25.574219 32.929688 L 14.636719 32.929688 C 14.289062 32.929688 14.003906 33.214844 14.003906 33.5625 Z M 14.003906 33.5625 " fill-opacity="1" fill-rule="nonzero"/><path fill="#d2ae6d" d="M 25.765625 30.402344 L 14.636719 30.402344 C 14.289062 30.402344 14.003906 30.6875 14.003906 31.035156 C 14.003906 31.382812 14.289062 31.667969 14.636719 31.667969 L 25.671875 31.667969 Z M 25.765625 30.402344 " fill-opacity="1" fill-rule="nonzero"/><path fill="#d2ae6d" d="M 28.390625 24.394531 L 14.636719 24.394531 C 14.289062 24.394531 14.003906 24.679688 14.003906 25.027344 C 14.003906 25.375 14.289062 25.660156 14.636719 25.660156 L 27.726562 25.660156 Z M 28.390625 24.394531 " fill-opacity="1" fill-rule="nonzero"/><path fill="#d2ae6d" d="M 29.75 21.867188 L 14.636719 21.867188 C 14.289062 21.867188 14.003906 22.152344 14.003906 22.5 C 14.003906 22.847656 14.289062 23.132812 14.636719 23.132812 L 29.085938 23.132812 Z M 29.75 21.867188 " fill-opacity="1" fill-rule="nonzero"/><g clip-path="url(#7a4d5d5e49)"><path fill="#d2ae6d" d="M 32.972656 34.703125 L 32.972656 40.203125 C 32.972656 40.898438 32.40625 41.464844 31.710938 41.464844 L 5.785156 41.464844 C 5.089844 41.464844 4.523438 40.898438 4.523438 40.203125 L 4.523438 4.796875 C 4.523438 4.101562 5.089844 3.53125 5.785156 3.53125 L 31.710938 3.53125 C 32.40625 3.53125 32.972656 4.101562 32.972656 4.796875 L 32.972656 15.859375 L 34.238281 13.488281 L 34.238281 4.796875 C 34.238281 3.40625 33.101562 2.265625 31.710938 2.265625 L 5.785156 2.265625 C 4.394531 2.265625 3.257812 3.40625 3.257812 4.796875 L 3.257812 40.203125 C 3.257812 41.59375 4.394531 42.730469 5.785156 42.730469 L 31.710938 42.730469 C 33.101562 42.730469 34.238281 41.59375 34.238281 40.203125 L 34.238281 33.691406 C 34.175781 33.753906 34.113281 33.816406 34.046875 33.878906 Z M 32.972656 34.703125 " fill-opacity="1" fill-rule="nonzero"/></g><g clip-path="url(#c735e22fed)"><path fill="#d2ae6d" d="M 42.710938 11.277344 C 42.710938 11.277344 39.867188 9.757812 39.867188 9.757812 C 38.917969 9.253906 37.746094 9.632812 37.273438 10.550781 L 27.1875 29.359375 C 27.15625 29.421875 27.125 29.515625 27.125 29.613281 L 26.652344 35.398438 C 26.652344 35.398438 26.652344 35.429688 26.652344 35.429688 C 26.621094 36.15625 27.21875 36.726562 27.914062 36.726562 C 28.199219 36.726562 28.484375 36.628906 28.707031 36.472656 C 28.707031 36.472656 33.257812 32.867188 33.257812 32.867188 C 33.320312 32.804688 33.382812 32.742188 33.417969 32.679688 L 43.5 13.867188 C 44.007812 12.953125 43.628906 11.75 42.710938 11.277344 Z M 27.914062 35.460938 L 28.292969 30.371094 L 32.023438 32.234375 Z M 32.785156 31.191406 L 28.738281 29.136719 L 35.753906 16.050781 L 39.832031 18.074219 Z M 42.394531 13.269531 L 40.402344 16.964844 L 36.324219 14.941406 L 38.347656 11.148438 C 38.507812 10.832031 38.917969 10.707031 39.234375 10.863281 L 42.078125 12.382812 C 42.234375 12.476562 42.332031 12.605469 42.394531 12.761719 C 42.488281 12.953125 42.457031 13.109375 42.394531 13.269531 Z M 42.394531 13.269531 " fill-opacity="1" fill-rule="nonzero"/></g></svg>
