<svg xmlns="http://www.w3.org/2000/svg" xmlns:xlink="http://www.w3.org/1999/xlink" width="48" zoomAndPan="magnify" viewBox="0 0 45 44.999999" height="48" preserveAspectRatio="xMidYMid meet" version="1.0"><defs><clipPath id="96fc5ac08c"><path d="M 14 1.3125 L 29 1.3125 L 29 16 L 14 16 Z M 14 1.3125 " clip-rule="nonzero"/></clipPath><clipPath id="64930a4245"><path d="M 4.5 17 L 39.75 17 L 39.75 44 L 4.5 44 Z M 4.5 17 " clip-rule="nonzero"/></clipPath></defs><g clip-path="url(#96fc5ac08c)"><path fill="#d2ae6d" d="M 28.800781 7.308594 C 29.703125 11.03125 27.382812 14.769531 23.621094 15.65625 C 21.8125 16.085938 19.910156 15.785156 18.324219 14.820312 C 16.742188 13.859375 15.609375 12.3125 15.175781 10.523438 C 14.746094 8.734375 15.050781 6.847656 16.019531 5.285156 C 16.992188 3.71875 18.554688 2.597656 20.359375 2.171875 C 24.121094 1.285156 27.902344 3.582031 28.800781 7.308594 Z M 28.800781 7.308594 " fill-opacity="1" fill-rule="evenodd"/></g><g clip-path="url(#64930a4245)"><path fill="#d2ae6d" d="M 21.992188 22.625 L 30.382812 25.542969 L 30.382812 29.65625 L 33.855469 28.316406 C 34.539062 28.050781 35.109375 29.117188 34.285156 29.433594 L 29.929688 31.117188 C 28.535156 31.9375 28.164062 33.539062 28.601562 34.785156 C 28.664062 34.960938 28.746094 35.136719 28.839844 35.300781 C 27.402344 38.046875 25.003906 40.085938 21.992188 41.730469 C 18.976562 40.085938 16.578125 38.046875 15.140625 35.300781 C 15.234375 35.136719 15.316406 34.960938 15.378906 34.785156 C 15.816406 33.542969 15.449219 31.949219 14.0625 31.125 L 9.691406 29.433594 C 9.136719 29.21875 9.425781 28.050781 10.121094 28.316406 L 13.597656 29.65625 L 13.597656 25.542969 Z M 15.964844 17.527344 C 14.21875 17.527344 12.867188 17.851562 11.769531 18.652344 C 10.671875 19.453125 9.871094 20.671875 9.058594 22.351562 L 5.417969 29.851562 C 4.847656 31.039062 4.605469 32.132812 4.894531 33.109375 C 5.183594 34.085938 6.007812 34.820312 7.191406 35.28125 L 11.03125 36.769531 C 11.941406 37.125 12.835938 37.050781 13.527344 36.675781 C 13.648438 36.613281 13.757812 36.539062 13.867188 36.457031 C 15.605469 39.53125 18.363281 41.808594 21.707031 43.582031 C 21.882812 43.671875 22.09375 43.671875 22.273438 43.582031 C 25.617188 41.808594 28.375 39.53125 30.113281 36.457031 C 30.222656 36.539062 30.332031 36.613281 30.453125 36.675781 C 31.148438 37.050781 32.035156 37.125 32.945312 36.769531 L 36.78125 35.28125 C 37.96875 34.820312 38.796875 34.085938 39.085938 33.109375 C 39.375 32.132812 39.132812 31.039062 38.558594 29.851562 L 34.921875 22.351562 C 34.109375 20.671875 33.304688 19.453125 32.210938 18.652344 C 31.113281 17.851562 29.761719 17.527344 28.015625 17.527344 Z M 15.964844 17.527344 " fill-opacity="1" fill-rule="nonzero"/></g><path fill="#d2ae6d" d="M 20.5625 35.640625 C 20.785156 35.863281 21.148438 35.863281 21.371094 35.640625 L 22.453125 34.566406 L 26.542969 30.425781 C 26.761719 30.203125 26.761719 29.847656 26.539062 29.625 L 25.683594 28.777344 C 25.460938 28.558594 25.035156 28.625 24.808594 28.84375 L 20.972656 32.683594 L 19.117188 30.824219 C 18.894531 30.601562 18.535156 30.601562 18.316406 30.828125 L 17.441406 31.707031 C 17.222656 31.933594 17.222656 32.296875 17.441406 32.515625 L 20.5625 35.640625 " fill-opacity="1" fill-rule="evenodd"/></svg>
