<svg xmlns="http://www.w3.org/2000/svg" xmlns:xlink="http://www.w3.org/1999/xlink" width="48" zoomAndPan="magnify" viewBox="0 0 45 44.999999" height="48" preserveAspectRatio="xMidYMid meet" version="1.0"><defs><clipPath id="ff31c437a8"><path d="M 1.058594 34 L 8 34 L 8 41 L 1.058594 41 Z M 1.058594 34 " clip-rule="nonzero"/></clipPath><clipPath id="ede6c34706"><path d="M 19 4.5 L 26 4.5 L 26 12 L 19 12 Z M 19 4.5 " clip-rule="nonzero"/></clipPath><clipPath id="47277329dd"><path d="M 37 34 L 43.808594 34 L 43.808594 41 L 37 41 Z M 37 34 " clip-rule="nonzero"/></clipPath></defs><path fill="#d2ae6d" d="M 17.253906 40.882812 L 14.839844 40.882812 C 14.554688 40.882812 14.277344 40.828125 14.015625 40.71875 C 13.75 40.609375 13.515625 40.453125 13.3125 40.253906 C 13.113281 40.050781 12.957031 39.816406 12.847656 39.554688 C 12.738281 39.289062 12.683594 39.015625 12.683594 38.726562 L 12.683594 36.3125 C 12.683594 36.027344 12.738281 35.75 12.847656 35.488281 C 12.957031 35.222656 13.113281 34.988281 13.3125 34.789062 C 13.515625 34.585938 13.75 34.429688 14.015625 34.320312 C 14.277344 34.210938 14.554688 34.15625 14.839844 34.15625 L 17.253906 34.15625 C 17.539062 34.15625 17.816406 34.210938 18.078125 34.320312 C 18.34375 34.429688 18.578125 34.585938 18.78125 34.789062 C 18.980469 34.988281 19.136719 35.222656 19.246094 35.488281 C 19.355469 35.75 19.410156 36.027344 19.410156 36.3125 L 19.410156 38.726562 C 19.410156 39.015625 19.355469 39.289062 19.246094 39.554688 C 19.136719 39.816406 18.980469 40.050781 18.78125 40.253906 C 18.578125 40.453125 18.34375 40.609375 18.078125 40.71875 C 17.816406 40.828125 17.539062 40.882812 17.253906 40.882812 Z M 17.253906 40.882812 " fill-opacity="1" fill-rule="nonzero"/><g clip-path="url(#ff31c437a8)"><path fill="#d2ae6d" d="M 5.636719 40.882812 L 3.21875 40.882812 C 2.933594 40.882812 2.660156 40.828125 2.394531 40.71875 C 2.132812 40.609375 1.898438 40.453125 1.695312 40.253906 C 1.496094 40.050781 1.339844 39.816406 1.230469 39.554688 C 1.121094 39.289062 1.066406 39.015625 1.066406 38.726562 L 1.066406 36.3125 C 1.066406 36.027344 1.121094 35.75 1.230469 35.488281 C 1.339844 35.222656 1.496094 34.988281 1.695312 34.789062 C 1.898438 34.585938 2.132812 34.429688 2.394531 34.320312 C 2.660156 34.210938 2.933594 34.15625 3.21875 34.15625 L 5.636719 34.15625 C 5.921875 34.15625 6.199219 34.210938 6.460938 34.320312 C 6.726562 34.429688 6.960938 34.585938 7.160156 34.789062 C 7.363281 34.988281 7.519531 35.222656 7.628906 35.488281 C 7.738281 35.75 7.792969 36.027344 7.792969 36.3125 L 7.792969 38.726562 C 7.792969 39.015625 7.738281 39.289062 7.628906 39.554688 C 7.519531 39.816406 7.363281 40.050781 7.160156 40.253906 C 6.960938 40.453125 6.726562 40.609375 6.460938 40.71875 C 6.199219 40.828125 5.921875 40.882812 5.636719 40.882812 Z M 5.636719 40.882812 " fill-opacity="1" fill-rule="nonzero"/></g><path fill="#d2ae6d" d="M 35.964844 26.261719 L 33.546875 26.261719 C 33.261719 26.261719 32.988281 26.207031 32.722656 26.097656 C 32.460938 25.988281 32.226562 25.832031 32.023438 25.628906 C 31.820312 25.429688 31.667969 25.195312 31.558594 24.929688 C 31.449219 24.667969 31.394531 24.390625 31.394531 24.105469 L 31.394531 21.6875 C 31.394531 21.402344 31.449219 21.128906 31.558594 20.863281 C 31.667969 20.601562 31.820312 20.367188 32.023438 20.164062 C 32.226562 19.964844 32.460938 19.808594 32.722656 19.699219 C 32.988281 19.589844 33.261719 19.535156 33.546875 19.535156 L 35.964844 19.535156 C 36.25 19.535156 36.527344 19.589844 36.789062 19.699219 C 37.054688 19.808594 37.285156 19.964844 37.488281 20.164062 C 37.691406 20.367188 37.847656 20.601562 37.957031 20.863281 C 38.066406 21.128906 38.121094 21.402344 38.121094 21.6875 L 38.121094 24.105469 C 38.121094 24.390625 38.066406 24.667969 37.957031 24.929688 C 37.847656 25.195312 37.691406 25.429688 37.488281 25.628906 C 37.285156 25.832031 37.054688 25.988281 36.789062 26.097656 C 36.527344 26.207031 36.25 26.261719 35.964844 26.261719 Z M 35.964844 26.261719 " fill-opacity="1" fill-rule="nonzero"/><g clip-path="url(#ede6c34706)"><path fill="#d2ae6d" d="M 23.707031 11.226562 L 21.289062 11.226562 C 21.003906 11.226562 20.726562 11.171875 20.464844 11.0625 C 20.199219 10.953125 19.96875 10.796875 19.765625 10.59375 C 19.5625 10.390625 19.40625 10.160156 19.296875 9.894531 C 19.1875 9.632812 19.132812 9.355469 19.132812 9.070312 L 19.132812 6.652344 C 19.132812 6.367188 19.1875 6.09375 19.296875 5.828125 C 19.40625 5.566406 19.5625 5.332031 19.765625 5.128906 C 19.96875 4.925781 20.199219 4.773438 20.464844 4.664062 C 20.726562 4.554688 21.003906 4.5 21.289062 4.5 L 23.707031 4.5 C 23.992188 4.5 24.265625 4.554688 24.53125 4.664062 C 24.792969 4.773438 25.027344 4.925781 25.230469 5.128906 C 25.433594 5.332031 25.585938 5.566406 25.695312 5.828125 C 25.804688 6.09375 25.859375 6.367188 25.859375 6.652344 L 25.859375 9.070312 C 25.859375 9.355469 25.804688 9.632812 25.695312 9.894531 C 25.585938 10.160156 25.433594 10.390625 25.230469 10.59375 C 25.027344 10.796875 24.792969 10.953125 24.53125 11.0625 C 24.265625 11.171875 23.992188 11.226562 23.707031 11.226562 Z M 23.707031 11.226562 " fill-opacity="1" fill-rule="nonzero"/></g><path fill="#d2ae6d" d="M 11.445312 26.261719 L 9.03125 26.261719 C 8.742188 26.261719 8.46875 26.207031 8.203125 26.097656 C 7.941406 25.988281 7.707031 25.832031 7.503906 25.628906 C 7.304688 25.429688 7.148438 25.195312 7.039062 24.929688 C 6.929688 24.667969 6.875 24.390625 6.875 24.105469 L 6.875 21.6875 C 6.875 21.402344 6.929688 21.128906 7.039062 20.863281 C 7.148438 20.601562 7.304688 20.367188 7.503906 20.164062 C 7.707031 19.964844 7.941406 19.808594 8.203125 19.699219 C 8.46875 19.589844 8.742188 19.535156 9.03125 19.535156 L 11.445312 19.535156 C 11.730469 19.535156 12.007812 19.589844 12.269531 19.699219 C 12.535156 19.808594 12.769531 19.964844 12.96875 20.164062 C 13.171875 20.367188 13.328125 20.601562 13.4375 20.863281 C 13.546875 21.128906 13.601562 21.402344 13.601562 21.6875 L 13.601562 24.105469 C 13.601562 24.390625 13.546875 24.667969 13.4375 24.929688 C 13.328125 25.195312 13.171875 25.429688 12.96875 25.628906 C 12.769531 25.832031 12.535156 25.988281 12.269531 26.097656 C 12.007812 26.207031 11.730469 26.261719 11.445312 26.261719 Z M 11.445312 26.261719 " fill-opacity="1" fill-rule="nonzero"/><path fill="#d2ae6d" d="M 17.378906 30.171875 L 17.378906 33.085938 C 17.339844 33.085938 17.296875 33.085938 17.253906 33.085938 L 15.503906 33.085938 L 15.503906 31.109375 L 4.972656 31.109375 L 4.972656 33.085938 L 3.21875 33.085938 C 3.179688 33.085938 3.136719 33.085938 3.097656 33.085938 L 3.097656 30.171875 C 3.097656 29.914062 3.1875 29.691406 3.371094 29.507812 C 3.554688 29.324219 3.773438 29.234375 4.035156 29.234375 L 16.441406 29.234375 C 16.703125 29.234375 16.921875 29.324219 17.105469 29.507812 C 17.289062 29.691406 17.378906 29.914062 17.378906 30.171875 Z M 17.378906 30.171875 " fill-opacity="1" fill-rule="nonzero"/><g clip-path="url(#47277329dd)"><path fill="#d2ae6d" d="M 41.773438 40.882812 L 39.359375 40.882812 C 39.070312 40.882812 38.796875 40.828125 38.53125 40.71875 C 38.269531 40.609375 38.035156 40.453125 37.832031 40.253906 C 37.632812 40.050781 37.476562 39.816406 37.367188 39.554688 C 37.257812 39.289062 37.203125 39.015625 37.203125 38.726562 L 37.203125 36.3125 C 37.203125 36.027344 37.257812 35.75 37.367188 35.488281 C 37.476562 35.222656 37.632812 34.988281 37.832031 34.789062 C 38.035156 34.585938 38.269531 34.429688 38.53125 34.320312 C 38.796875 34.210938 39.070312 34.15625 39.359375 34.15625 L 41.773438 34.15625 C 42.058594 34.15625 42.335938 34.210938 42.597656 34.320312 C 42.863281 34.429688 43.097656 34.585938 43.296875 34.789062 C 43.5 34.988281 43.65625 35.222656 43.765625 35.488281 C 43.875 35.75 43.929688 36.027344 43.929688 36.3125 L 43.929688 38.726562 C 43.929688 39.015625 43.875 39.289062 43.765625 39.554688 C 43.65625 39.816406 43.5 40.050781 43.296875 40.253906 C 43.097656 40.453125 42.863281 40.609375 42.597656 40.71875 C 42.335938 40.828125 42.058594 40.882812 41.773438 40.882812 Z M 41.773438 40.882812 " fill-opacity="1" fill-rule="nonzero"/></g><path fill="#d2ae6d" d="M 30.15625 40.882812 L 27.738281 40.882812 C 27.453125 40.882812 27.179688 40.828125 26.914062 40.71875 C 26.652344 40.609375 26.417969 40.453125 26.214844 40.253906 C 26.011719 40.050781 25.859375 39.816406 25.75 39.554688 C 25.640625 39.289062 25.585938 39.015625 25.585938 38.726562 L 25.585938 36.3125 C 25.585938 36.027344 25.640625 35.75 25.75 35.488281 C 25.859375 35.222656 26.011719 34.988281 26.214844 34.789062 C 26.417969 34.585938 26.652344 34.429688 26.914062 34.320312 C 27.179688 34.210938 27.453125 34.15625 27.738281 34.15625 L 30.15625 34.15625 C 30.441406 34.15625 30.71875 34.210938 30.980469 34.320312 C 31.246094 34.429688 31.476562 34.585938 31.679688 34.789062 C 31.882812 34.988281 32.039062 35.222656 32.148438 35.488281 C 32.257812 35.75 32.3125 36.027344 32.3125 36.3125 L 32.3125 38.726562 C 32.3125 39.015625 32.257812 39.289062 32.148438 39.554688 C 32.039062 39.816406 31.882812 40.050781 31.679688 40.253906 C 31.476562 40.453125 31.246094 40.609375 30.980469 40.71875 C 30.71875 40.828125 30.441406 40.882812 30.15625 40.882812 Z M 30.15625 40.882812 " fill-opacity="1" fill-rule="nonzero"/><path fill="#d2ae6d" d="M 41.898438 30.171875 L 41.898438 33.085938 C 41.855469 33.085938 41.816406 33.085938 41.773438 33.085938 L 40.023438 33.085938 L 40.023438 31.109375 L 29.492188 31.109375 L 29.492188 33.085938 L 27.738281 33.085938 C 27.699219 33.085938 27.65625 33.085938 27.617188 33.085938 L 27.617188 30.171875 C 27.617188 29.914062 27.707031 29.691406 27.890625 29.507812 C 28.074219 29.324219 28.292969 29.234375 28.554688 29.234375 L 40.960938 29.234375 C 41.21875 29.234375 41.441406 29.324219 41.625 29.507812 C 41.808594 29.691406 41.898438 29.914062 41.898438 30.171875 Z M 41.898438 30.171875 " fill-opacity="1" fill-rule="nonzero"/><path fill="#d2ae6d" d="M 35.695312 15.136719 L 35.695312 18.464844 L 33.820312 18.464844 L 33.820312 16.070312 L 11.175781 16.070312 L 11.175781 18.460938 L 9.300781 18.460938 L 9.300781 15.136719 C 9.300781 14.875 9.390625 14.65625 9.574219 14.472656 C 9.757812 14.289062 9.980469 14.199219 10.238281 14.199219 L 34.757812 14.199219 C 35.015625 14.199219 35.238281 14.289062 35.417969 14.472656 C 35.601562 14.65625 35.695312 14.875 35.695312 15.136719 Z M 35.695312 15.136719 " fill-opacity="1" fill-rule="nonzero"/><path fill="#d2ae6d" d="M 11.175781 27.332031 L 11.175781 30.171875 C 11.175781 30.429688 11.082031 30.652344 10.902344 30.835938 C 10.71875 31.019531 10.496094 31.109375 10.238281 31.109375 C 9.980469 31.109375 9.757812 31.019531 9.574219 30.835938 C 9.390625 30.652344 9.300781 30.429688 9.300781 30.171875 L 9.300781 27.332031 Z M 11.175781 27.332031 " fill-opacity="1" fill-rule="nonzero"/><path fill="#d2ae6d" d="M 23.433594 12.296875 L 23.433594 15.136719 C 23.433594 15.394531 23.34375 15.617188 23.160156 15.796875 C 22.976562 15.980469 22.757812 16.074219 22.496094 16.074219 C 22.238281 16.074219 22.015625 15.980469 21.835938 15.796875 C 21.652344 15.617188 21.558594 15.394531 21.558594 15.136719 L 21.558594 12.296875 Z M 23.433594 12.296875 " fill-opacity="1" fill-rule="nonzero"/><path fill="#d2ae6d" d="M 35.695312 27.332031 L 35.695312 30.015625 C 35.695312 30.273438 35.601562 30.496094 35.417969 30.679688 C 35.238281 30.863281 35.015625 30.953125 34.757812 30.953125 C 34.496094 30.953125 34.277344 30.863281 34.09375 30.679688 C 33.910156 30.496094 33.820312 30.273438 33.820312 30.015625 L 33.820312 27.332031 Z M 35.695312 27.332031 " fill-opacity="1" fill-rule="nonzero"/></svg>
