<svg xmlns="http://www.w3.org/2000/svg" xmlns:xlink="http://www.w3.org/1999/xlink" width="48" zoomAndPan="magnify" viewBox="0 0 45 44.999999" height="48" preserveAspectRatio="xMidYMid meet" version="1.0"><defs><clipPath id="6f4c7c970c"><path d="M 0 15 L 45 15 L 45 40.5 L 0 40.5 Z M 0 15 " clip-rule="nonzero"/></clipPath><clipPath id="b017dce694"><path d="M 18 4.5 L 21 4.5 L 21 14 L 18 14 Z M 18 4.5 " clip-rule="nonzero"/></clipPath><clipPath id="91fef4e17a"><path d="M 24 4.5 L 28 4.5 L 28 14 L 24 14 Z M 24 4.5 " clip-rule="nonzero"/></clipPath></defs><g clip-path="url(#6f4c7c970c)"><path fill="#d2ae6d" d="M -0.0234375 29.976562 C -0.0234375 29.683594 -0.0234375 29.398438 -0.0234375 29.109375 C 0.121094 29.097656 0.144531 28.980469 0.183594 28.875 C 1.003906 26.539062 1.828125 24.203125 2.652344 21.867188 C 3.03125 20.957031 3.394531 20.039062 3.625 19.070312 C 4.039062 17.984375 4.445312 16.890625 4.867188 15.800781 C 5.167969 15.03125 5.84375 14.832031 6.566406 15.25 C 7.777344 15.949219 9.066406 16.472656 10.363281 16.976562 C 11.355469 17.914062 12.597656 17.867188 13.824219 17.859375 C 14.972656 18.058594 16.132812 18.113281 17.292969 18.160156 C 17.738281 18.203125 18.195312 18.386719 18.625 18.101562 C 19.339844 17.625 20.050781 17.148438 20.765625 16.671875 C 21.84375 16.105469 23.042969 16.074219 24.214844 15.933594 C 25.34375 15.972656 26.417969 16.230469 27.449219 16.675781 C 28.613281 17.28125 29.640625 18.316406 31.144531 17.804688 C 32.433594 17.847656 33.65625 17.664062 34.625 16.699219 C 35.523438 16.222656 36.371094 15.664062 37.191406 15.066406 C 37.425781 15.0625 37.65625 15.054688 37.886719 15.050781 C 37.9375 15.078125 37.988281 15.105469 38.039062 15.132812 C 38.632812 16.210938 39.226562 17.292969 39.816406 18.375 C 40.261719 19.386719 40.734375 20.390625 41.335938 21.324219 C 41.410156 21.496094 41.488281 21.664062 41.566406 21.835938 C 42.707031 24.085938 43.847656 26.335938 44.988281 28.589844 C 44.988281 28.765625 44.988281 28.9375 44.988281 29.109375 C 43.277344 30.285156 41.292969 30.917969 39.453125 31.835938 C 39.144531 31.988281 38.769531 31.878906 38.609375 31.585938 C 38.246094 30.914062 37.875 31.078125 37.429688 31.476562 C 37.136719 31.738281 36.808594 31.972656 36.496094 32.222656 C 36.175781 32.367188 35.851562 32.496094 36.03125 32.96875 C 36.398438 33.933594 36.117188 34.765625 35.464844 35.507812 C 35.175781 35.683594 34.886719 35.855469 34.601562 36.03125 C 34.222656 36.199219 33.59375 35.746094 33.4375 36.402344 C 33.144531 37.652344 32.339844 38.300781 31.148438 38.570312 C 30.429688 38.519531 29.542969 37.890625 29.214844 39.144531 C 28.761719 39.535156 28.242188 39.8125 27.671875 39.984375 C 27.136719 39.949219 26.59375 39.917969 26.109375 39.65625 C 25.871094 39.527344 25.703125 39.585938 25.488281 39.703125 C 25.070312 39.933594 24.632812 40.128906 24.207031 40.335938 C 23.082031 40.484375 22.023438 40.226562 20.992188 39.800781 C 20.71875 39.609375 20.492188 39.363281 20.085938 39.613281 C 19.097656 40.210938 18.160156 39.996094 17.289062 39.328125 C 17.230469 39.269531 17.175781 39.207031 17.121094 39.148438 C 16.957031 38.882812 16.949219 38.460938 16.457031 38.523438 C 15.417969 38.65625 14.664062 38.136719 14.007812 37.417969 C 13.925781 36.992188 13.714844 36.84375 13.242188 36.84375 C 12.21875 36.839844 11.433594 36.351562 10.988281 35.410156 C 10.851562 35.128906 10.710938 35 10.375 34.945312 C 9.191406 34.761719 8.484375 34.050781 8.371094 32.839844 C 8.335938 32.449219 8.152344 32.28125 7.816406 32.203125 C 7.335938 31.964844 6.945312 31.257812 6.371094 31.601562 C 5.867188 31.90625 5.476562 31.863281 5 31.714844 C 3.703125 31.320312 2.410156 30.925781 1.105469 30.558594 C 0.683594 30.433594 0.296875 30.273438 -0.0234375 29.976562 Z M 34.375 30.867188 C 34.632812 31.335938 34.9375 31.355469 35.332031 31.011719 C 35.613281 30.765625 35.933594 30.566406 36.234375 30.34375 C 37.257812 29.605469 37.257812 29.605469 36.519531 28.5625 C 35.363281 26.390625 34.34375 24.160156 33.523438 21.839844 C 33.421875 21.484375 33.328125 21.121094 33.222656 20.765625 C 32.773438 19.265625 32.773438 19.265625 31.132812 19.488281 C 29.992188 19.628906 28.867188 19.691406 27.921875 18.851562 C 26.710938 18.039062 25.414062 17.375 23.917969 17.699219 C 23.261719 17.84375 22.5 17.5625 21.9375 18.132812 C 21.472656 18.179688 21.082031 18.382812 20.742188 18.695312 C 20.378906 18.914062 20.015625 19.132812 19.65625 19.355469 C 18.734375 19.933594 17.976562 20.628906 17.992188 21.839844 C 17.890625 22.503906 17.636719 23.085938 17.132812 23.5625 C 16.957031 23.726562 16.855469 23.996094 16.777344 24.234375 C 16.585938 24.808594 16.816406 25.121094 17.417969 25.152344 C 18.078125 25.191406 18.664062 25.003906 19.167969 24.566406 C 19.695312 24.109375 20.175781 23.582031 20.429688 22.945312 C 20.796875 22.019531 21.515625 21.738281 22.386719 21.679688 C 22.898438 21.644531 23.414062 21.707031 23.933594 21.722656 C 24.140625 21.820312 24.351562 21.917969 24.558594 22.011719 C 25.59375 22.910156 26.625 23.804688 27.65625 24.699219 C 27.851562 24.941406 28.054688 25.171875 28.347656 25.308594 C 29.222656 26.226562 30.167969 27.070312 31.148438 27.875 C 31.488281 28.296875 31.886719 28.664062 32.335938 28.972656 C 32.960938 29.660156 33.648438 30.285156 34.375 30.867188 Z M 16.246094 21.835938 C 16.40625 21.289062 16.539062 20.734375 16.726562 20.199219 C 16.851562 19.835938 16.722656 19.757812 16.390625 19.742188 C 15.535156 19.707031 14.679688 19.644531 13.828125 19.589844 C 13.085938 19.515625 12.34375 19.460938 11.605469 19.359375 C 11.179688 19.300781 11.074219 19.492188 11.015625 19.867188 C 10.914062 20.515625 10.753906 21.15625 10.617188 21.800781 C 10.472656 22.332031 10.328125 22.859375 10.179688 23.390625 C 9.457031 25.191406 8.785156 27.015625 7.917969 28.761719 C 7.28125 30.035156 7.300781 30.03125 8.574219 30.722656 C 8.894531 30.898438 9.117188 30.984375 9.34375 30.605469 C 9.585938 30.199219 9.996094 29.972656 10.398438 29.75 C 11.386719 29.488281 12.269531 29.664062 12.921875 30.488281 C 13.222656 30.871094 13.511719 30.671875 13.824219 30.609375 C 14.589844 30.613281 15.375 30.714844 15.835938 31.355469 C 16.273438 31.960938 16.722656 31.941406 17.289062 31.710938 C 17.882812 31.789062 18.441406 31.957031 18.960938 32.25 C 19.257812 32.621094 19.660156 32.9375 19.75 33.421875 C 19.851562 34.003906 20.191406 34.199219 20.722656 34.207031 C 21.0625 34.464844 21.492188 35.003906 21.726562 34.933594 C 22.777344 34.597656 23.210938 35.425781 23.851562 35.867188 C 24.710938 36.578125 25.558594 37.300781 26.433594 37.988281 C 26.921875 38.371094 27.515625 38.558594 27.964844 37.996094 C 28.410156 37.4375 28 36.941406 27.582031 36.582031 C 26.480469 35.617188 25.347656 34.695312 24.226562 33.757812 C 23.691406 33.191406 23.097656 32.6875 22.46875 32.230469 C 22.109375 31.902344 21.753906 31.566406 21.390625 31.242188 C 20.988281 30.878906 20.871094 30.453125 21.238281 30.03125 C 21.613281 29.605469 22.054688 29.695312 22.464844 30.03125 C 22.953125 30.429688 23.4375 30.832031 23.925781 31.234375 C 24.261719 31.617188 24.640625 31.953125 25.074219 32.226562 C 25.777344 32.945312 26.539062 33.59375 27.351562 34.183594 C 27.957031 34.816406 28.628906 35.378906 29.347656 35.886719 C 29.859375 36.378906 30.324219 36.964844 31.160156 36.851562 C 32.007812 36.230469 32.085938 35.6875 31.328125 35.035156 C 29.027344 33.042969 26.699219 31.082031 24.382812 29.113281 C 24.300781 28.988281 24.21875 28.863281 24.136719 28.742188 C 24.070312 28.464844 24.171875 28.210938 24.242188 27.949219 C 24.800781 27.496094 25.269531 27.671875 25.765625 28.101562 C 27.894531 29.953125 30.046875 31.78125 32.183594 33.625 C 32.601562 33.988281 33.042969 34.304688 33.59375 34.429688 C 33.921875 34.503906 34.222656 34.449219 34.441406 34.160156 C 34.671875 33.859375 34.601562 33.550781 34.417969 33.277344 C 34.125 32.84375 33.753906 32.488281 33.3125 32.207031 C 32.636719 31.582031 31.964844 30.957031 31.292969 30.332031 C 28.921875 28.027344 26.472656 25.808594 23.964844 23.660156 C 23.109375 22.925781 22.277344 23.105469 21.683594 24.042969 C 21.40625 24.472656 21.089844 24.882812 20.792969 25.304688 C 20.738281 25.308594 20.714844 25.335938 20.71875 25.390625 C 19.769531 26.332031 18.625 26.808594 17.292969 26.847656 C 16.328125 26.65625 15.507812 26.265625 15.128906 25.265625 C 14.949219 24.34375 15.199219 23.535156 15.691406 22.753906 C 15.878906 22.449219 16.277344 22.269531 16.246094 21.835938 Z M 17.824219 33.566406 C 17.679688 33.378906 17.492188 33.382812 17.289062 33.445312 C 16.863281 33.382812 16.667969 33.6875 16.476562 33.96875 C 16.152344 34.445312 15.871094 34.945312 15.535156 35.410156 C 15.1875 35.882812 15.167969 36.332031 15.625 36.695312 C 16.109375 37.082031 16.605469 36.976562 16.976562 36.496094 C 17.378906 35.972656 17.761719 35.433594 18.113281 34.875 C 18.429688 34.367188 18.398438 33.894531 17.824219 33.566406 Z M 39.644531 21.828125 C 39.25 20.871094 38.792969 19.945312 38.238281 19.066406 C 38.179688 18.808594 38.089844 18.566406 37.894531 18.375 C 37.324219 16.933594 37.324219 16.933594 36.082031 17.742188 C 35.917969 17.847656 35.765625 17.976562 35.609375 18.097656 C 34.34375 18.78125 34.335938 18.78125 34.75 20.144531 C 34.921875 20.714844 35.132812 21.273438 35.328125 21.835938 C 36.214844 24.621094 37.535156 27.195312 39.148438 29.625 C 39.347656 29.921875 39.507812 30.089844 39.90625 29.886719 C 40.800781 29.429688 41.71875 29.015625 42.636719 28.605469 C 42.945312 28.472656 43.015625 28.316406 42.851562 28.015625 C 42.359375 27.113281 41.882812 26.199219 41.398438 25.285156 C 40.882812 24.097656 40.304688 22.941406 39.644531 21.828125 Z M 8.816406 18.171875 C 8.078125 17.816406 7.332031 17.472656 6.597656 17.101562 C 6.304688 16.957031 6.140625 16.964844 6.027344 17.3125 C 5.519531 18.824219 4.992188 20.332031 4.476562 21.835938 C 3.566406 24.109375 2.765625 26.421875 1.992188 28.746094 C 1.796875 28.976562 1.910156 29.097656 2.148438 29.167969 C 3.105469 29.460938 4.070312 29.742188 5.023438 30.046875 C 5.335938 30.144531 5.429688 29.964844 5.542969 29.753906 C 6.910156 27.230469 8.140625 24.648438 8.828125 21.84375 C 9.195312 20.980469 9.289062 20.042969 9.503906 19.140625 C 9.652344 18.519531 9.410156 18.238281 8.816406 18.171875 Z M 14.042969 32.234375 C 13.996094 32.25 13.863281 32.253906 13.78125 32.320312 C 13.121094 32.855469 12.636719 33.53125 12.402344 34.339844 C 12.300781 34.691406 12.535156 35.019531 12.90625 35.148438 C 13.25 35.269531 13.609375 35.261719 13.847656 34.933594 C 14.203125 34.449219 14.558594 33.957031 14.859375 33.433594 C 15.171875 32.886719 14.742188 32.226562 14.042969 32.234375 Z M 22.222656 36.605469 C 21.988281 37.042969 21.804688 37.425781 21.582031 37.785156 C 21.46875 37.980469 21.398438 38.09375 21.632812 38.273438 C 22.28125 38.757812 23.621094 38.851562 24.378906 38.398438 C 23.667969 37.808594 22.972656 37.230469 22.222656 36.605469 Z M 20.484375 36.417969 C 20.496094 36.140625 20.410156 35.941406 20.199219 35.804688 C 19.984375 35.664062 19.742188 35.652344 19.566406 35.824219 C 19.050781 36.324219 18.65625 36.917969 18.339844 37.554688 C 18.195312 37.839844 18.34375 38.132812 18.640625 38.265625 C 18.976562 38.417969 19.15625 38.277344 19.226562 37.910156 C 19.277344 37.648438 19.507812 37.515625 19.753906 37.394531 C 20.164062 37.195312 20.335938 36.792969 20.484375 36.417969 Z M 11.796875 31.828125 C 11.773438 31.496094 11.558594 31.292969 11.195312 31.269531 C 10.820312 31.242188 9.988281 32.253906 10 32.710938 C 10.007812 33.09375 10.222656 33.292969 10.59375 33.3125 C 10.957031 33.328125 11.804688 32.308594 11.796875 31.828125 Z M 11.796875 31.828125 " fill-opacity="1" fill-rule="nonzero"/></g><g clip-path="url(#b017dce694)"><path fill="#d2ae6d" d="M 19.367188 4.523438 C 20.128906 5.503906 19.953125 6.730469 20.210938 7.835938 C 20.492188 9.027344 20.664062 10.242188 20.886719 11.445312 C 20.851562 11.964844 21.125 12.507812 20.746094 12.996094 C 19.835938 13.335938 19.511719 13.160156 19.328125 12.238281 C 19.269531 11.960938 19.207031 11.6875 19.148438 11.414062 C 18.960938 10.261719 18.773438 9.113281 18.585938 7.960938 C 18.484375 7.25 18.425781 6.527344 18.265625 5.832031 C 18.136719 5.28125 18.277344 4.878906 18.671875 4.523438 C 18.90625 4.523438 19.136719 4.523438 19.367188 4.523438 Z M 19.367188 4.523438 " fill-opacity="1" fill-rule="nonzero"/></g><g clip-path="url(#91fef4e17a)"><path fill="#d2ae6d" d="M 25.945312 4.523438 C 26.234375 4.523438 26.523438 4.523438 26.8125 4.523438 C 27.179688 4.941406 27.238281 5.417969 27.144531 5.953125 C 27.027344 6.625 26.964844 7.3125 26.875 7.988281 C 26.722656 9.140625 26.570312 10.289062 26.414062 11.4375 C 26.351562 11.769531 26.300781 12.105469 26.226562 12.433594 C 26.113281 12.945312 25.816406 13.269531 25.261719 13.15625 C 24.773438 13.058594 24.566406 12.703125 24.621094 12.207031 C 24.644531 11.953125 24.671875 11.699219 24.695312 11.445312 C 24.859375 10.300781 25.015625 9.15625 25.179688 8.007812 C 25.503906 6.863281 25.296875 5.601562 25.945312 4.523438 Z M 25.945312 4.523438 " fill-opacity="1" fill-rule="nonzero"/></g><path fill="#d2ae6d" d="M 30.304688 11.679688 C 30.964844 10.6875 31.644531 9.707031 32.273438 8.695312 C 32.636719 8.117188 33.0625 7.90625 33.695312 8.234375 C 34.011719 8.660156 33.980469 9.066406 33.691406 9.503906 C 33.328125 10.050781 32.996094 10.625 32.652344 11.183594 C 32.066406 12.070312 31.484375 12.953125 30.898438 13.839844 C 30.492188 14.046875 30.082031 14.121094 29.746094 13.726562 C 29.375 13.292969 29.574219 12.886719 29.835938 12.484375 C 30.007812 12.222656 30.152344 11.949219 30.304688 11.679688 Z M 30.304688 11.679688 " fill-opacity="1" fill-rule="nonzero"/><path fill="#d2ae6d" d="M 14.082031 13.492188 C 13.648438 12.777344 13.207031 12.070312 12.660156 11.4375 C 12.402344 11.03125 12.160156 10.617188 11.886719 10.222656 C 11.574219 9.761719 11.488281 9.296875 11.984375 8.957031 C 12.464844 8.625 12.898438 8.804688 13.214844 9.285156 C 13.320312 9.449219 13.453125 9.597656 13.574219 9.753906 C 13.964844 10.320312 14.351562 10.886719 14.738281 11.449219 C 14.953125 11.789062 15.15625 12.136719 15.386719 12.460938 C 15.710938 12.921875 15.933594 13.394531 15.394531 13.824219 C 14.847656 14.261719 14.445312 13.90625 14.082031 13.492188 Z M 14.082031 13.492188 " fill-opacity="1" fill-rule="nonzero"/></svg>
