<svg xmlns="http://www.w3.org/2000/svg" xmlns:xlink="http://www.w3.org/1999/xlink" width="45" zoomAndPan="magnify" viewBox="0 0 300 299.999988" height="45" preserveAspectRatio="xMidYMid meet" version="1.0"><defs><filter x="0%" y="0%" width="100%" height="100%" id="54b5ba3b76"><feColorMatrix values="0 0 0 0 1 0 0 0 0 1 0 0 0 0 1 0 0 0 1 0" color-interpolation-filters="sRGB"/></filter><mask id="466bd64aa3"><g filter="url(#54b5ba3b76)"><rect x="-30" width="360" fill="#000000" y="-29.999999" height="359.999986" fill-opacity="0.73"/></g></mask><clipPath id="685e232922"><path d="M 0.339844 0.175781 L 153 0.175781 L 153 246 L 0.339844 246 Z M 0.339844 0.175781 " clip-rule="nonzero"/></clipPath><clipPath id="90096468f7"><path d="M 83 8 L 239 8 L 239 274.332031 L 83 274.332031 Z M 83 8 " clip-rule="nonzero"/></clipPath><clipPath id="cb4d4b5813"><rect x="0" width="240" y="0" height="278"/></clipPath><mask id="3835b0cc6f"><g filter="url(#54b5ba3b76)"><rect x="-30" width="360" fill="#000000" y="-29.999999" height="359.999986" fill-opacity="0.47"/></g></mask><clipPath id="b2dd3ba0c2"><path d="M 0.875 0.195312 L 153 0.195312 L 153 246 L 0.875 246 Z M 0.875 0.195312 " clip-rule="nonzero"/></clipPath><clipPath id="4140dddd6b"><path d="M 83 8 L 239.550781 8 L 239.550781 274.351562 L 83 274.351562 Z M 83 8 " clip-rule="nonzero"/></clipPath><clipPath id="cb424e6d2e"><rect x="0" width="240" y="0" height="278"/></clipPath></defs><g mask="url(#466bd64aa3)"><g transform="matrix(1, 0, 0, 1, 13, 5)"><g clip-path="url(#cb4d4b5813)"><g clip-path="url(#685e232922)"><path fill="#b08e4e" d="M 68.507812 178.777344 C 36.6875 127.460938 8.101562 58.964844 68.535156 17.65625 C 92.433594 1.320312 123.035156 -4.199219 152.25 4.28125 C 127.453125 -1.324219 102.027344 4.160156 82.113281 18.289062 C 39.371094 48.597656 40.191406 95.71875 61.78125 139.707031 C 43.773438 85.808594 50.871094 48.097656 83.074219 26.597656 C 53.15625 58.007812 54.328125 100.699219 86.554688 154.660156 C 73.121094 182.535156 74.632812 212.804688 91.09375 245.476562 C 38.214844 199.566406 -32.785156 116.277344 17.535156 45.234375 C -0.851562 98.558594 13.761719 149.398438 61.386719 197.78125 C -5.835938 112.300781 4.398438 41.320312 65.398438 10.363281 C 6.207031 47.363281 24.792969 136.097656 68.496094 178.777344 Z M 68.507812 178.777344 " fill-opacity="1" fill-rule="evenodd"/></g><g clip-path="url(#90096468f7)"><path fill="#d2ae6d" d="M 162.53125 183.023438 C 219.273438 125.441406 228.585938 71.394531 190.464844 20.898438 C 225.902344 53.761719 234.046875 91.71875 214.882812 134.789062 C 202.003906 161.402344 183.503906 186.09375 159.382812 208.839844 C 216.839844 163.667969 240.371094 114.769531 229.976562 62.179688 C 252.054688 108.972656 233.617188 158.957031 174.683594 212.144531 C 147.773438 233.4375 130.933594 250.222656 124.144531 262.507812 L 124.082031 262.605469 L 124.019531 262.726562 L 123.796875 263.144531 L 123.6875 263.351562 L 123.664062 263.390625 L 123.578125 263.558594 L 123.269531 264.160156 L 123.257812 264.171875 L 122.960938 264.785156 L 122.902344 264.917969 L 122.863281 264.992188 L 122.605469 265.554688 L 122.59375 265.589844 L 122.554688 265.664062 L 122.507812 265.789062 L 122.347656 266.179688 L 122.261719 266.375 L 122.261719 266.398438 L 122.039062 266.949219 L 121.964844 267.121094 L 121.953125 267.144531 L 121.707031 267.820312 L 121.5 268.441406 L 121.472656 268.515625 L 121.277344 269.175781 L 121.265625 269.1875 L 121.265625 269.203125 L 121.105469 269.863281 L 121.09375 269.886719 C 120.996094 270.300781 120.910156 270.707031 120.847656 271.097656 L 120.835938 271.148438 L 120.820312 271.269531 L 120.75 271.769531 L 120.6875 272.394531 L 120.6875 272.429688 L 120.664062 272.921875 L 120.648438 273.007812 L 120.648438 273.617188 L 120.675781 274.179688 C 88.765625 241.035156 77.144531 207.824219 85.789062 174.570312 C 90.601562 156.105469 98.816406 147.160156 107.070312 131.558594 C 121.890625 103.550781 119.765625 80.351562 100.6875 61.972656 C 119.371094 64.222656 128.375 71.945312 127.722656 85.148438 C 133.394531 89.332031 136.234375 91.414062 136.234375 91.414062 C 136.503906 84.855469 134.242188 79.8125 129.46875 76.324219 C 143.554688 81.429688 154.179688 93.980469 161.339844 113.988281 C 157.6875 110.242188 154.292969 106.84375 151.140625 103.796875 C 158.535156 114.671875 160.304688 125.894531 156.46875 137.445312 C 155.558594 132.757812 154.046875 128.683594 151.917969 125.257812 C 152.25 158.441406 105.65625 173.320312 109.949219 211.742188 C 119.925781 176.613281 142.066406 165.894531 160.550781 138.863281 C 185.449219 102.460938 188.152344 67.34375 168.65625 33.5 C 196.972656 56.101562 197.441406 94.484375 170.085938 148.664062 C 193.949219 116.667969 201.5 86.1875 192.742188 57.214844 C 176.171875 19.527344 146.566406 5.101562 103.945312 13.960938 C 153.886719 -2.816406 203.011719 22.488281 208.449219 75.003906 C 211.648438 105.777344 196.714844 141.300781 162.433594 183.035156 Z M 162.53125 183.023438 " fill-opacity="1" fill-rule="evenodd"/></g></g></g></g><g mask="url(#3835b0cc6f)"><g transform="matrix(1, 0, 0, 1, 38, 20)"><g clip-path="url(#cb424e6d2e)"><g clip-path="url(#b2dd3ba0c2)"><path fill="#b08e4e" d="M 69.042969 178.796875 C 37.222656 127.476562 8.636719 58.980469 69.066406 17.671875 C 92.964844 1.335938 123.570312 -4.179688 152.78125 4.296875 C 127.984375 -1.304688 102.5625 4.175781 82.644531 18.308594 C 39.902344 48.617188 40.726562 95.738281 62.3125 139.726562 C 44.304688 85.828125 51.402344 48.113281 83.605469 26.617188 C 53.691406 58.027344 54.859375 100.71875 87.085938 154.679688 C 73.65625 182.550781 75.167969 212.824219 91.625 245.492188 C 38.746094 199.585938 -32.25 116.292969 18.070312 45.25 C -0.320312 98.578125 14.292969 149.417969 61.921875 197.796875 C -5.300781 112.316406 4.933594 41.335938 65.929688 10.378906 C 6.742188 47.382812 25.328125 136.117188 69.03125 178.796875 Z M 69.042969 178.796875 " fill-opacity="1" fill-rule="evenodd"/></g><g clip-path="url(#4140dddd6b)"><path fill="#d2ae6d" d="M 163.066406 183.042969 C 219.808594 125.457031 229.117188 71.414062 191 20.914062 C 226.4375 53.78125 234.582031 91.738281 215.417969 134.808594 C 202.539062 161.421875 184.039062 186.113281 159.917969 208.859375 C 217.371094 163.683594 240.902344 114.789062 230.507812 62.199219 C 252.589844 108.988281 234.148438 158.972656 175.21875 212.164062 C 148.304688 233.453125 131.464844 250.242188 124.675781 262.527344 L 124.617188 262.625 L 124.554688 262.746094 L 124.332031 263.160156 L 124.222656 263.371094 L 124.195312 263.40625 L 124.109375 263.578125 L 123.804688 264.175781 L 123.792969 264.191406 L 123.496094 264.800781 L 123.433594 264.9375 L 123.398438 265.007812 L 123.140625 265.574219 L 123.125 265.609375 L 123.089844 265.683594 L 123.039062 265.804688 L 122.882812 266.195312 L 122.792969 266.390625 L 122.792969 266.417969 L 122.574219 266.96875 L 122.5 267.140625 L 122.488281 267.164062 L 122.242188 267.835938 L 122.214844 267.910156 L 122.03125 268.460938 L 122.007812 268.535156 L 121.8125 269.195312 L 121.796875 269.207031 L 121.796875 269.21875 L 121.636719 269.878906 L 121.625 269.902344 C 121.527344 270.320312 121.441406 270.722656 121.378906 271.117188 L 121.367188 271.164062 L 121.355469 271.285156 L 121.28125 271.789062 L 121.21875 272.414062 L 121.21875 272.449219 L 121.195312 272.9375 L 121.183594 273.023438 L 121.183594 273.636719 L 121.207031 274.199219 C 89.300781 241.050781 77.675781 207.84375 86.324219 174.585938 C 91.132812 156.121094 99.351562 147.175781 107.605469 131.578125 C 122.425781 103.570312 120.296875 80.367188 101.21875 61.992188 C 119.902344 64.242188 128.90625 71.964844 128.257812 85.164062 C 133.925781 89.351562 136.769531 91.429688 136.769531 91.429688 C 137.039062 84.871094 134.773438 79.832031 130.003906 76.34375 C 144.085938 81.445312 154.714844 94 161.871094 114.003906 C 158.21875 110.261719 154.824219 106.859375 151.675781 103.8125 C 159.070312 114.691406 160.839844 125.910156 157.003906 137.460938 C 156.09375 132.777344 154.578125 128.699219 152.449219 125.273438 C 152.78125 158.460938 106.1875 173.339844 110.480469 211.757812 C 120.457031 176.628906 142.597656 165.910156 161.085938 138.882812 C 185.980469 102.480469 188.6875 67.363281 169.191406 33.519531 C 197.507812 56.117188 197.972656 94.5 170.617188 148.683594 C 194.480469 116.683594 202.035156 86.207031 193.277344 57.230469 C 176.707031 19.542969 147.101562 5.117188 104.480469 13.976562 C 154.417969 -2.796875 203.546875 22.503906 208.984375 75.023438 C 212.179688 105.796875 197.25 141.316406 162.96875 183.054688 Z M 163.066406 183.042969 " fill-opacity="1" fill-rule="evenodd"/></g></g></g></g></svg>