<svg xmlns="http://www.w3.org/2000/svg" xmlns:xlink="http://www.w3.org/1999/xlink" width="800" zoomAndPan="magnify" viewBox="0 0 600 89.999999" height="120" preserveAspectRatio="xMidYMid meet" version="1.0"><defs><g/></defs><g fill="#ffffff" fill-opacity="1"><g transform="translate(15.56447, 37.91257)"><g><path d="M 20.953125 -19.5625 C 21.015625 -19.5625 21.046875 -19.5 21.046875 -19.375 C 21.046875 -19.25 21.015625 -19.1875 20.953125 -19.1875 C 20.242188 -19.1875 19.625 -19 19.09375 -18.625 C 18.570312 -18.25 18.132812 -17.613281 17.78125 -16.71875 L 11.109375 -0.03125 C 11.085938 0.0507812 10.972656 0.09375 10.765625 0.09375 C 10.597656 0.09375 10.484375 0.0507812 10.421875 -0.03125 L 2.625 -16.96875 C 2.269531 -17.78125 1.894531 -18.351562 1.5 -18.6875 C 1.101562 -19.019531 0.59375 -19.1875 -0.03125 -19.1875 C -0.09375 -19.1875 -0.125 -19.25 -0.125 -19.375 C -0.125 -19.5 -0.09375 -19.5625 -0.03125 -19.5625 L 1.15625 -19.53125 C 1.738281 -19.488281 2.207031 -19.46875 2.5625 -19.46875 C 3.394531 -19.46875 4.296875 -19.488281 5.265625 -19.53125 L 6.546875 -19.5625 C 6.609375 -19.5625 6.640625 -19.5 6.640625 -19.375 C 6.640625 -19.25 6.609375 -19.1875 6.546875 -19.1875 C 5.898438 -19.1875 5.414062 -19.101562 5.09375 -18.9375 C 4.769531 -18.769531 4.609375 -18.488281 4.609375 -18.09375 C 4.609375 -17.84375 4.703125 -17.507812 4.890625 -17.09375 L 11.421875 -2.75 L 17.0625 -16.875 C 17.226562 -17.3125 17.3125 -17.65625 17.3125 -17.90625 C 17.3125 -18.34375 17.113281 -18.664062 16.71875 -18.875 C 16.320312 -19.082031 15.707031 -19.1875 14.875 -19.1875 C 14.8125 -19.1875 14.78125 -19.25 14.78125 -19.375 C 14.78125 -19.5 14.8125 -19.5625 14.875 -19.5625 L 16.21875 -19.53125 C 16.925781 -19.488281 17.570312 -19.46875 18.15625 -19.46875 C 18.59375 -19.46875 19.085938 -19.488281 19.640625 -19.53125 Z M 20.953125 -19.5625 "/></g></g></g><g fill="#ffffff" fill-opacity="1"><g transform="translate(41.367814, 37.91257)"><g><path d="M 6.234375 -2.53125 C 6.234375 -1.90625 6.296875 -1.441406 6.421875 -1.140625 C 6.546875 -0.835938 6.789062 -0.632812 7.15625 -0.53125 C 7.519531 -0.425781 8.097656 -0.375 8.890625 -0.375 C 8.953125 -0.375 8.984375 -0.3125 8.984375 -0.1875 C 8.984375 -0.0625 8.953125 0 8.890625 0 C 8.265625 0 7.765625 -0.0078125 7.390625 -0.03125 L 5.171875 -0.0625 L 3 -0.03125 C 2.625 -0.0078125 2.113281 0 1.46875 0 C 1.40625 0 1.375 -0.0625 1.375 -0.1875 C 1.375 -0.3125 1.40625 -0.375 1.46875 -0.375 C 2.257812 -0.375 2.835938 -0.425781 3.203125 -0.53125 C 3.566406 -0.632812 3.816406 -0.835938 3.953125 -1.140625 C 4.097656 -1.441406 4.171875 -1.90625 4.171875 -2.53125 L 4.171875 -17.03125 C 4.171875 -17.65625 4.097656 -18.113281 3.953125 -18.40625 C 3.816406 -18.695312 3.566406 -18.898438 3.203125 -19.015625 C 2.835938 -19.128906 2.257812 -19.1875 1.46875 -19.1875 C 1.40625 -19.1875 1.375 -19.25 1.375 -19.375 C 1.375 -19.5 1.40625 -19.5625 1.46875 -19.5625 L 3 -19.53125 C 3.882812 -19.488281 4.609375 -19.46875 5.171875 -19.46875 C 5.796875 -19.46875 6.546875 -19.488281 7.421875 -19.53125 L 8.890625 -19.5625 C 8.953125 -19.5625 8.984375 -19.5 8.984375 -19.375 C 8.984375 -19.25 8.953125 -19.1875 8.890625 -19.1875 C 8.117188 -19.1875 7.550781 -19.125 7.1875 -19 C 6.820312 -18.875 6.570312 -18.660156 6.4375 -18.359375 C 6.300781 -18.054688 6.234375 -17.59375 6.234375 -16.96875 Z M 6.234375 -2.53125 "/></g></g></g><g fill="#ffffff" fill-opacity="1"><g transform="translate(56.712804, 37.91257)"><g><path d="M 5.796875 -2.65625 C 5.796875 -2.050781 5.859375 -1.613281 5.984375 -1.34375 C 6.109375 -1.070312 6.335938 -0.890625 6.671875 -0.796875 C 7.003906 -0.703125 7.546875 -0.65625 8.296875 -0.65625 L 11.703125 -0.65625 C 12.898438 -0.65625 13.851562 -1.019531 14.5625 -1.75 C 15.269531 -2.476562 15.738281 -3.492188 15.96875 -4.796875 C 15.96875 -4.859375 16.023438 -4.882812 16.140625 -4.875 C 16.253906 -4.863281 16.3125 -4.828125 16.3125 -4.765625 C 16.125 -3.023438 16.03125 -1.59375 16.03125 -0.46875 C 16.03125 -0.300781 16 -0.179688 15.9375 -0.109375 C 15.875 -0.0351562 15.75 0 15.5625 0 L 1.09375 0 C 1.050781 0 1.03125 -0.0625 1.03125 -0.1875 C 1.03125 -0.3125 1.050781 -0.375 1.09375 -0.375 C 1.882812 -0.375 2.460938 -0.425781 2.828125 -0.53125 C 3.191406 -0.632812 3.4375 -0.835938 3.5625 -1.140625 C 3.6875 -1.441406 3.75 -1.90625 3.75 -2.53125 L 3.75 -17.03125 C 3.75 -17.65625 3.6875 -18.113281 3.5625 -18.40625 C 3.4375 -18.695312 3.191406 -18.898438 2.828125 -19.015625 C 2.460938 -19.128906 1.882812 -19.1875 1.09375 -19.1875 C 1.050781 -19.1875 1.03125 -19.25 1.03125 -19.375 C 1.03125 -19.5 1.050781 -19.5625 1.09375 -19.5625 L 2.625 -19.53125 C 3.507812 -19.488281 4.222656 -19.46875 4.765625 -19.46875 C 5.347656 -19.46875 6.078125 -19.488281 6.953125 -19.53125 L 8.453125 -19.5625 C 8.515625 -19.5625 8.546875 -19.5 8.546875 -19.375 C 8.546875 -19.25 8.515625 -19.1875 8.453125 -19.1875 C 7.679688 -19.1875 7.113281 -19.128906 6.75 -19.015625 C 6.382812 -18.898438 6.132812 -18.691406 6 -18.390625 C 5.863281 -18.085938 5.796875 -17.625 5.796875 -17 Z M 5.796875 -2.65625 "/></g></g></g><g fill="#ffffff" fill-opacity="1"><g transform="translate(78.351601, 37.91257)"><g><path d="M 5.796875 -2.65625 C 5.796875 -2.050781 5.859375 -1.613281 5.984375 -1.34375 C 6.109375 -1.070312 6.335938 -0.890625 6.671875 -0.796875 C 7.003906 -0.703125 7.546875 -0.65625 8.296875 -0.65625 L 11.703125 -0.65625 C 12.898438 -0.65625 13.851562 -1.019531 14.5625 -1.75 C 15.269531 -2.476562 15.738281 -3.492188 15.96875 -4.796875 C 15.96875 -4.859375 16.023438 -4.882812 16.140625 -4.875 C 16.253906 -4.863281 16.3125 -4.828125 16.3125 -4.765625 C 16.125 -3.023438 16.03125 -1.59375 16.03125 -0.46875 C 16.03125 -0.300781 16 -0.179688 15.9375 -0.109375 C 15.875 -0.0351562 15.75 0 15.5625 0 L 1.09375 0 C 1.050781 0 1.03125 -0.0625 1.03125 -0.1875 C 1.03125 -0.3125 1.050781 -0.375 1.09375 -0.375 C 1.882812 -0.375 2.460938 -0.425781 2.828125 -0.53125 C 3.191406 -0.632812 3.4375 -0.835938 3.5625 -1.140625 C 3.6875 -1.441406 3.75 -1.90625 3.75 -2.53125 L 3.75 -17.03125 C 3.75 -17.65625 3.6875 -18.113281 3.5625 -18.40625 C 3.4375 -18.695312 3.191406 -18.898438 2.828125 -19.015625 C 2.460938 -19.128906 1.882812 -19.1875 1.09375 -19.1875 C 1.050781 -19.1875 1.03125 -19.25 1.03125 -19.375 C 1.03125 -19.5 1.050781 -19.5625 1.09375 -19.5625 L 2.625 -19.53125 C 3.507812 -19.488281 4.222656 -19.46875 4.765625 -19.46875 C 5.347656 -19.46875 6.078125 -19.488281 6.953125 -19.53125 L 8.453125 -19.5625 C 8.515625 -19.5625 8.546875 -19.5 8.546875 -19.375 C 8.546875 -19.25 8.515625 -19.1875 8.453125 -19.1875 C 7.679688 -19.1875 7.113281 -19.128906 6.75 -19.015625 C 6.382812 -18.898438 6.132812 -18.691406 6 -18.390625 C 5.863281 -18.085938 5.796875 -17.625 5.796875 -17 Z M 5.796875 -2.65625 "/></g></g></g><g fill="#ffffff" fill-opacity="1"><g transform="translate(99.990397, 37.91257)"><g><path d="M 21.890625 -0.375 C 21.972656 -0.375 22.015625 -0.3125 22.015625 -0.1875 C 22.015625 -0.0625 21.972656 0 21.890625 0 C 21.492188 0 20.878906 -0.0195312 20.046875 -0.0625 C 19.203125 -0.101562 18.59375 -0.125 18.21875 -0.125 C 17.757812 -0.125 17.175781 -0.101562 16.46875 -0.0625 C 15.800781 -0.0195312 15.289062 0 14.9375 0 C 14.851562 0 14.8125 -0.0625 14.8125 -0.1875 C 14.8125 -0.3125 14.851562 -0.375 14.9375 -0.375 C 15.707031 -0.375 16.269531 -0.445312 16.625 -0.59375 C 16.976562 -0.738281 17.15625 -0.988281 17.15625 -1.34375 C 17.15625 -1.632812 17.019531 -2.082031 16.75 -2.6875 L 13.15625 -10.359375 L 7.234375 -10.359375 L 4.546875 -3.984375 C 4.253906 -3.265625 4.109375 -2.675781 4.109375 -2.21875 C 4.109375 -0.988281 5.128906 -0.375 7.171875 -0.375 C 7.273438 -0.375 7.328125 -0.3125 7.328125 -0.1875 C 7.328125 -0.0625 7.273438 0 7.171875 0 C 6.796875 0 6.253906 -0.0195312 5.546875 -0.0625 C 4.753906 -0.101562 4.0625 -0.125 3.46875 -0.125 C 2.925781 -0.125 2.300781 -0.101562 1.59375 -0.0625 C 0.96875 -0.0195312 0.445312 0 0.03125 0 C -0.0703125 0 -0.125 -0.0625 -0.125 -0.1875 C -0.125 -0.3125 -0.0703125 -0.375 0.03125 -0.375 C 0.613281 -0.375 1.109375 -0.484375 1.515625 -0.703125 C 1.921875 -0.921875 2.304688 -1.304688 2.671875 -1.859375 C 3.035156 -2.410156 3.4375 -3.210938 3.875 -4.265625 L 10.484375 -19.859375 C 10.523438 -19.921875 10.597656 -19.953125 10.703125 -19.953125 C 10.804688 -19.953125 10.867188 -19.921875 10.890625 -19.859375 L 18.28125 -4.296875 C 18.988281 -2.742188 19.59375 -1.703125 20.09375 -1.171875 C 20.601562 -0.640625 21.203125 -0.375 21.890625 -0.375 Z M 7.515625 -11.015625 L 12.84375 -11.015625 L 10.015625 -16.96875 Z M 7.515625 -11.015625 "/></g></g></g><g fill="#ffffff" fill-opacity="1"><g transform="translate(126.920993, 37.91257)"><g><path d="M 21.390625 -0.375 C 21.429688 -0.375 21.453125 -0.3125 21.453125 -0.1875 C 21.453125 -0.0625 21.429688 0 21.390625 0 L 17.34375 0 C 16.820312 0 15.847656 -0.890625 14.421875 -2.671875 C 12.992188 -4.460938 11.253906 -6.953125 9.203125 -10.140625 C 8.703125 -9.992188 8.140625 -9.921875 7.515625 -9.921875 C 7.117188 -9.921875 6.648438 -9.941406 6.109375 -9.984375 L 6.109375 -2.53125 C 6.109375 -1.882812 6.171875 -1.414062 6.296875 -1.125 C 6.421875 -0.832031 6.664062 -0.632812 7.03125 -0.53125 C 7.394531 -0.425781 7.972656 -0.375 8.765625 -0.375 C 8.828125 -0.375 8.859375 -0.3125 8.859375 -0.1875 C 8.859375 -0.0625 8.828125 0 8.765625 0 C 8.117188 0 7.609375 -0.0078125 7.234375 -0.03125 L 5.078125 -0.0625 L 2.9375 -0.03125 C 2.5625 -0.0078125 2.03125 0 1.34375 0 C 1.300781 0 1.28125 -0.0625 1.28125 -0.1875 C 1.28125 -0.3125 1.300781 -0.375 1.34375 -0.375 C 2.132812 -0.375 2.71875 -0.429688 3.09375 -0.546875 C 3.46875 -0.660156 3.726562 -0.863281 3.875 -1.15625 C 4.03125 -1.445312 4.109375 -1.90625 4.109375 -2.53125 L 4.109375 -17.03125 C 4.109375 -17.65625 4.035156 -18.113281 3.890625 -18.40625 C 3.753906 -18.695312 3.503906 -18.898438 3.140625 -19.015625 C 2.773438 -19.128906 2.195312 -19.1875 1.40625 -19.1875 C 1.34375 -19.1875 1.3125 -19.25 1.3125 -19.375 C 1.3125 -19.5 1.34375 -19.5625 1.40625 -19.5625 L 2.9375 -19.53125 C 3.820312 -19.488281 4.535156 -19.46875 5.078125 -19.46875 C 5.453125 -19.46875 5.804688 -19.476562 6.140625 -19.5 C 6.472656 -19.519531 6.765625 -19.539062 7.015625 -19.5625 C 7.679688 -19.632812 8.285156 -19.671875 8.828125 -19.671875 C 10.515625 -19.671875 11.816406 -19.320312 12.734375 -18.625 C 13.660156 -17.9375 14.125 -16.976562 14.125 -15.75 C 14.125 -14.75 13.832031 -13.800781 13.25 -12.90625 C 12.664062 -12.019531 11.890625 -11.316406 10.921875 -10.796875 C 12.703125 -8.148438 14.195312 -6.078125 15.40625 -4.578125 C 16.613281 -3.085938 17.6875 -2.015625 18.625 -1.359375 C 19.570312 -0.703125 20.492188 -0.375 21.390625 -0.375 Z M 6.109375 -10.765625 C 6.628906 -10.679688 7.242188 -10.640625 7.953125 -10.640625 C 9.390625 -10.640625 10.421875 -10.945312 11.046875 -11.5625 C 11.679688 -12.1875 12 -13.21875 12 -14.65625 C 12 -17.675781 10.722656 -19.1875 8.171875 -19.1875 C 7.609375 -19.1875 7.1875 -19.140625 6.90625 -19.046875 C 6.625 -18.953125 6.421875 -18.753906 6.296875 -18.453125 C 6.171875 -18.148438 6.109375 -17.65625 6.109375 -16.96875 Z M 6.109375 -10.765625 "/></g></g></g><g fill="#ffffff" fill-opacity="1"><g transform="translate(152.943528, 37.91257)"><g><path d="M 21.390625 -0.375 C 21.429688 -0.375 21.453125 -0.3125 21.453125 -0.1875 C 21.453125 -0.0625 21.429688 0 21.390625 0 L 17.34375 0 C 16.820312 0 15.847656 -0.890625 14.421875 -2.671875 C 12.992188 -4.460938 11.253906 -6.953125 9.203125 -10.140625 C 8.703125 -9.992188 8.140625 -9.921875 7.515625 -9.921875 C 7.117188 -9.921875 6.648438 -9.941406 6.109375 -9.984375 L 6.109375 -2.53125 C 6.109375 -1.882812 6.171875 -1.414062 6.296875 -1.125 C 6.421875 -0.832031 6.664062 -0.632812 7.03125 -0.53125 C 7.394531 -0.425781 7.972656 -0.375 8.765625 -0.375 C 8.828125 -0.375 8.859375 -0.3125 8.859375 -0.1875 C 8.859375 -0.0625 8.828125 0 8.765625 0 C 8.117188 0 7.609375 -0.0078125 7.234375 -0.03125 L 5.078125 -0.0625 L 2.9375 -0.03125 C 2.5625 -0.0078125 2.03125 0 1.34375 0 C 1.300781 0 1.28125 -0.0625 1.28125 -0.1875 C 1.28125 -0.3125 1.300781 -0.375 1.34375 -0.375 C 2.132812 -0.375 2.71875 -0.429688 3.09375 -0.546875 C 3.46875 -0.660156 3.726562 -0.863281 3.875 -1.15625 C 4.03125 -1.445312 4.109375 -1.90625 4.109375 -2.53125 L 4.109375 -17.03125 C 4.109375 -17.65625 4.035156 -18.113281 3.890625 -18.40625 C 3.753906 -18.695312 3.503906 -18.898438 3.140625 -19.015625 C 2.773438 -19.128906 2.195312 -19.1875 1.40625 -19.1875 C 1.34375 -19.1875 1.3125 -19.25 1.3125 -19.375 C 1.3125 -19.5 1.34375 -19.5625 1.40625 -19.5625 L 2.9375 -19.53125 C 3.820312 -19.488281 4.535156 -19.46875 5.078125 -19.46875 C 5.453125 -19.46875 5.804688 -19.476562 6.140625 -19.5 C 6.472656 -19.519531 6.765625 -19.539062 7.015625 -19.5625 C 7.679688 -19.632812 8.285156 -19.671875 8.828125 -19.671875 C 10.515625 -19.671875 11.816406 -19.320312 12.734375 -18.625 C 13.660156 -17.9375 14.125 -16.976562 14.125 -15.75 C 14.125 -14.75 13.832031 -13.800781 13.25 -12.90625 C 12.664062 -12.019531 11.890625 -11.316406 10.921875 -10.796875 C 12.703125 -8.148438 14.195312 -6.078125 15.40625 -4.578125 C 16.613281 -3.085938 17.6875 -2.015625 18.625 -1.359375 C 19.570312 -0.703125 20.492188 -0.375 21.390625 -0.375 Z M 6.109375 -10.765625 C 6.628906 -10.679688 7.242188 -10.640625 7.953125 -10.640625 C 9.390625 -10.640625 10.421875 -10.945312 11.046875 -11.5625 C 11.679688 -12.1875 12 -13.21875 12 -14.65625 C 12 -17.675781 10.722656 -19.1875 8.171875 -19.1875 C 7.609375 -19.1875 7.1875 -19.140625 6.90625 -19.046875 C 6.625 -18.953125 6.421875 -18.753906 6.296875 -18.453125 C 6.171875 -18.148438 6.109375 -17.65625 6.109375 -16.96875 Z M 6.109375 -10.765625 "/></g></g></g><g fill="#ffffff" fill-opacity="1"><g transform="translate(178.966064, 37.91257)"><g><path d="M 11.453125 0.375 C 9.515625 0.375 7.789062 -0.078125 6.28125 -0.984375 C 4.769531 -1.890625 3.597656 -3.117188 2.765625 -4.671875 C 1.941406 -6.234375 1.53125 -7.929688 1.53125 -9.765625 C 1.53125 -11.921875 2.070312 -13.765625 3.15625 -15.296875 C 4.25 -16.828125 5.644531 -17.976562 7.34375 -18.75 C 9.039062 -19.53125 10.78125 -19.921875 12.5625 -19.921875 C 14.539062 -19.921875 16.28125 -19.453125 17.78125 -18.515625 C 19.289062 -17.585938 20.445312 -16.363281 21.25 -14.84375 C 22.050781 -13.320312 22.453125 -11.703125 22.453125 -9.984375 C 22.453125 -8.085938 21.945312 -6.34375 20.9375 -4.75 C 19.9375 -3.164062 18.597656 -1.914062 16.921875 -1 C 15.242188 -0.0820312 13.421875 0.375 11.453125 0.375 Z M 12.5625 -0.28125 C 13.976562 -0.28125 15.253906 -0.625 16.390625 -1.3125 C 17.523438 -2 18.421875 -3.007812 19.078125 -4.34375 C 19.742188 -5.6875 20.078125 -7.273438 20.078125 -9.109375 C 20.078125 -11.078125 19.707031 -12.820312 18.96875 -14.34375 C 18.238281 -15.863281 17.210938 -17.050781 15.890625 -17.90625 C 14.566406 -18.757812 13.015625 -19.1875 11.234375 -19.1875 C 8.941406 -19.1875 7.144531 -18.445312 5.84375 -16.96875 C 4.550781 -15.488281 3.90625 -13.453125 3.90625 -10.859375 C 3.90625 -8.898438 4.269531 -7.109375 5 -5.484375 C 5.738281 -3.867188 6.765625 -2.597656 8.078125 -1.671875 C 9.390625 -0.742188 10.882812 -0.28125 12.5625 -0.28125 Z M 12.5625 -0.28125 "/></g></g></g><g fill="#ffffff" fill-opacity="1"><g transform="translate(207.900664, 37.91257)"><g><path d="M 14.875 -4.671875 C 14.875 -4.710938 14.914062 -4.734375 15 -4.734375 C 15.0625 -4.734375 15.117188 -4.722656 15.171875 -4.703125 C 15.222656 -4.679688 15.25 -4.648438 15.25 -4.609375 C 15.0625 -3.285156 14.96875 -1.90625 14.96875 -0.46875 C 14.96875 -0.300781 14.929688 -0.179688 14.859375 -0.109375 C 14.785156 -0.0351562 14.65625 0 14.46875 0 L 1.34375 0 C 1.300781 0 1.28125 -0.0625 1.28125 -0.1875 C 1.28125 -0.3125 1.300781 -0.375 1.34375 -0.375 C 2.132812 -0.375 2.710938 -0.425781 3.078125 -0.53125 C 3.441406 -0.632812 3.691406 -0.835938 3.828125 -1.140625 C 3.972656 -1.441406 4.046875 -1.90625 4.046875 -2.53125 L 4.046875 -17.03125 C 4.046875 -17.65625 3.972656 -18.113281 3.828125 -18.40625 C 3.691406 -18.695312 3.441406 -18.898438 3.078125 -19.015625 C 2.710938 -19.128906 2.132812 -19.1875 1.34375 -19.1875 C 1.300781 -19.1875 1.28125 -19.25 1.28125 -19.375 C 1.28125 -19.5 1.300781 -19.5625 1.34375 -19.5625 L 13.9375 -19.5625 C 14.125 -19.5625 14.21875 -19.46875 14.21875 -19.28125 L 14.28125 -15.4375 C 14.28125 -15.375 14.226562 -15.335938 14.125 -15.328125 C 14.019531 -15.316406 13.957031 -15.34375 13.9375 -15.40625 C 13.875 -16.507812 13.539062 -17.367188 12.9375 -17.984375 C 12.332031 -18.597656 11.523438 -18.90625 10.515625 -18.90625 L 8.609375 -18.90625 C 7.878906 -18.90625 7.34375 -18.847656 7 -18.734375 C 6.65625 -18.617188 6.414062 -18.421875 6.28125 -18.140625 C 6.144531 -17.859375 6.078125 -17.4375 6.078125 -16.875 L 6.078125 -10.515625 L 9.890625 -10.515625 C 10.890625 -10.515625 11.601562 -10.679688 12.03125 -11.015625 C 12.46875 -11.347656 12.6875 -11.914062 12.6875 -12.71875 C 12.6875 -12.757812 12.75 -12.78125 12.875 -12.78125 C 13 -12.78125 13.0625 -12.757812 13.0625 -12.71875 L 13.03125 -10.171875 C 13.03125 -9.566406 13.039062 -9.109375 13.0625 -8.796875 L 13.09375 -7.296875 C 13.09375 -7.253906 13.03125 -7.234375 12.90625 -7.234375 C 12.78125 -7.234375 12.71875 -7.253906 12.71875 -7.296875 C 12.71875 -8.210938 12.488281 -8.867188 12.03125 -9.265625 C 11.582031 -9.660156 10.835938 -9.859375 9.796875 -9.859375 L 6.078125 -9.859375 L 6.078125 -2.65625 C 6.078125 -2.070312 6.140625 -1.644531 6.265625 -1.375 C 6.390625 -1.101562 6.617188 -0.914062 6.953125 -0.8125 C 7.285156 -0.707031 7.804688 -0.65625 8.515625 -0.65625 L 11.015625 -0.65625 C 12.023438 -0.65625 12.863281 -1.007812 13.53125 -1.71875 C 14.195312 -2.425781 14.644531 -3.410156 14.875 -4.671875 Z M 14.875 -4.671875 "/></g></g></g><g fill="#ffffff" fill-opacity="1"><g transform="translate(229.664693, 37.91257)"><g><path d="M 5.796875 -2.65625 C 5.796875 -2.050781 5.859375 -1.613281 5.984375 -1.34375 C 6.109375 -1.070312 6.335938 -0.890625 6.671875 -0.796875 C 7.003906 -0.703125 7.546875 -0.65625 8.296875 -0.65625 L 11.703125 -0.65625 C 12.898438 -0.65625 13.851562 -1.019531 14.5625 -1.75 C 15.269531 -2.476562 15.738281 -3.492188 15.96875 -4.796875 C 15.96875 -4.859375 16.023438 -4.882812 16.140625 -4.875 C 16.253906 -4.863281 16.3125 -4.828125 16.3125 -4.765625 C 16.125 -3.023438 16.03125 -1.59375 16.03125 -0.46875 C 16.03125 -0.300781 16 -0.179688 15.9375 -0.109375 C 15.875 -0.0351562 15.75 0 15.5625 0 L 1.09375 0 C 1.050781 0 1.03125 -0.0625 1.03125 -0.1875 C 1.03125 -0.3125 1.050781 -0.375 1.09375 -0.375 C 1.882812 -0.375 2.460938 -0.425781 2.828125 -0.53125 C 3.191406 -0.632812 3.4375 -0.835938 3.5625 -1.140625 C 3.6875 -1.441406 3.75 -1.90625 3.75 -2.53125 L 3.75 -17.03125 C 3.75 -17.65625 3.6875 -18.113281 3.5625 -18.40625 C 3.4375 -18.695312 3.191406 -18.898438 2.828125 -19.015625 C 2.460938 -19.128906 1.882812 -19.1875 1.09375 -19.1875 C 1.050781 -19.1875 1.03125 -19.25 1.03125 -19.375 C 1.03125 -19.5 1.050781 -19.5625 1.09375 -19.5625 L 2.625 -19.53125 C 3.507812 -19.488281 4.222656 -19.46875 4.765625 -19.46875 C 5.347656 -19.46875 6.078125 -19.488281 6.953125 -19.53125 L 8.453125 -19.5625 C 8.515625 -19.5625 8.546875 -19.5 8.546875 -19.375 C 8.546875 -19.25 8.515625 -19.1875 8.453125 -19.1875 C 7.679688 -19.1875 7.113281 -19.128906 6.75 -19.015625 C 6.382812 -18.898438 6.132812 -18.691406 6 -18.390625 C 5.863281 -18.085938 5.796875 -17.625 5.796875 -17 Z M 5.796875 -2.65625 "/></g></g></g><g fill="#ffffff" fill-opacity="1"><g transform="translate(251.303478, 37.91257)"><g><path d="M 3.1875 -2.21875 C 3.820312 -2.21875 4.316406 -1.984375 4.671875 -1.515625 C 5.023438 -1.046875 5.203125 -0.375 5.203125 0.5 C 5.203125 1.332031 5.015625 2.109375 4.640625 2.828125 C 4.265625 3.546875 3.707031 4.265625 2.96875 4.984375 C 2.945312 5.003906 2.914062 5.015625 2.875 5.015625 C 2.8125 5.015625 2.757812 4.984375 2.71875 4.921875 C 2.675781 4.859375 2.675781 4.804688 2.71875 4.765625 C 3.75 3.710938 4.265625 2.476562 4.265625 1.0625 C 4.265625 0.476562 4.160156 0.0507812 3.953125 -0.21875 C 3.753906 0.09375 3.425781 0.25 2.96875 0.25 C 2.59375 0.25 2.296875 0.132812 2.078125 -0.09375 C 1.859375 -0.320312 1.75 -0.613281 1.75 -0.96875 C 1.75 -1.800781 2.226562 -2.21875 3.1875 -2.21875 Z M 3.1875 -2.21875 "/></g></g></g><g fill="#ffffff" fill-opacity="1"><g transform="translate(263.204097, 37.91257)"><g/></g></g><g fill="#ffffff" fill-opacity="1"><g transform="translate(275.480448, 37.91257)"><g><path d="M 5.796875 -2.65625 C 5.796875 -2.050781 5.859375 -1.613281 5.984375 -1.34375 C 6.109375 -1.070312 6.335938 -0.890625 6.671875 -0.796875 C 7.003906 -0.703125 7.546875 -0.65625 8.296875 -0.65625 L 11.703125 -0.65625 C 12.898438 -0.65625 13.851562 -1.019531 14.5625 -1.75 C 15.269531 -2.476562 15.738281 -3.492188 15.96875 -4.796875 C 15.96875 -4.859375 16.023438 -4.882812 16.140625 -4.875 C 16.253906 -4.863281 16.3125 -4.828125 16.3125 -4.765625 C 16.125 -3.023438 16.03125 -1.59375 16.03125 -0.46875 C 16.03125 -0.300781 16 -0.179688 15.9375 -0.109375 C 15.875 -0.0351562 15.75 0 15.5625 0 L 1.09375 0 C 1.050781 0 1.03125 -0.0625 1.03125 -0.1875 C 1.03125 -0.3125 1.050781 -0.375 1.09375 -0.375 C 1.882812 -0.375 2.460938 -0.425781 2.828125 -0.53125 C 3.191406 -0.632812 3.4375 -0.835938 3.5625 -1.140625 C 3.6875 -1.441406 3.75 -1.90625 3.75 -2.53125 L 3.75 -17.03125 C 3.75 -17.65625 3.6875 -18.113281 3.5625 -18.40625 C 3.4375 -18.695312 3.191406 -18.898438 2.828125 -19.015625 C 2.460938 -19.128906 1.882812 -19.1875 1.09375 -19.1875 C 1.050781 -19.1875 1.03125 -19.25 1.03125 -19.375 C 1.03125 -19.5 1.050781 -19.5625 1.09375 -19.5625 L 2.625 -19.53125 C 3.507812 -19.488281 4.222656 -19.46875 4.765625 -19.46875 C 5.347656 -19.46875 6.078125 -19.488281 6.953125 -19.53125 L 8.453125 -19.5625 C 8.515625 -19.5625 8.546875 -19.5 8.546875 -19.375 C 8.546875 -19.25 8.515625 -19.1875 8.453125 -19.1875 C 7.679688 -19.1875 7.113281 -19.128906 6.75 -19.015625 C 6.382812 -18.898438 6.132812 -18.691406 6 -18.390625 C 5.863281 -18.085938 5.796875 -17.625 5.796875 -17 Z M 5.796875 -2.65625 "/></g></g></g><g fill="#ffffff" fill-opacity="1"><g transform="translate(297.119233, 37.91257)"><g><path d="M 14.875 -4.671875 C 14.875 -4.710938 14.914062 -4.734375 15 -4.734375 C 15.0625 -4.734375 15.117188 -4.722656 15.171875 -4.703125 C 15.222656 -4.679688 15.25 -4.648438 15.25 -4.609375 C 15.0625 -3.285156 14.96875 -1.90625 14.96875 -0.46875 C 14.96875 -0.300781 14.929688 -0.179688 14.859375 -0.109375 C 14.785156 -0.0351562 14.65625 0 14.46875 0 L 1.34375 0 C 1.300781 0 1.28125 -0.0625 1.28125 -0.1875 C 1.28125 -0.3125 1.300781 -0.375 1.34375 -0.375 C 2.132812 -0.375 2.710938 -0.425781 3.078125 -0.53125 C 3.441406 -0.632812 3.691406 -0.835938 3.828125 -1.140625 C 3.972656 -1.441406 4.046875 -1.90625 4.046875 -2.53125 L 4.046875 -17.03125 C 4.046875 -17.65625 3.972656 -18.113281 3.828125 -18.40625 C 3.691406 -18.695312 3.441406 -18.898438 3.078125 -19.015625 C 2.710938 -19.128906 2.132812 -19.1875 1.34375 -19.1875 C 1.300781 -19.1875 1.28125 -19.25 1.28125 -19.375 C 1.28125 -19.5 1.300781 -19.5625 1.34375 -19.5625 L 13.9375 -19.5625 C 14.125 -19.5625 14.21875 -19.46875 14.21875 -19.28125 L 14.28125 -15.4375 C 14.28125 -15.375 14.226562 -15.335938 14.125 -15.328125 C 14.019531 -15.316406 13.957031 -15.34375 13.9375 -15.40625 C 13.875 -16.507812 13.539062 -17.367188 12.9375 -17.984375 C 12.332031 -18.597656 11.523438 -18.90625 10.515625 -18.90625 L 8.609375 -18.90625 C 7.878906 -18.90625 7.34375 -18.847656 7 -18.734375 C 6.65625 -18.617188 6.414062 -18.421875 6.28125 -18.140625 C 6.144531 -17.859375 6.078125 -17.4375 6.078125 -16.875 L 6.078125 -10.515625 L 9.890625 -10.515625 C 10.890625 -10.515625 11.601562 -10.679688 12.03125 -11.015625 C 12.46875 -11.347656 12.6875 -11.914062 12.6875 -12.71875 C 12.6875 -12.757812 12.75 -12.78125 12.875 -12.78125 C 13 -12.78125 13.0625 -12.757812 13.0625 -12.71875 L 13.03125 -10.171875 C 13.03125 -9.566406 13.039062 -9.109375 13.0625 -8.796875 L 13.09375 -7.296875 C 13.09375 -7.253906 13.03125 -7.234375 12.90625 -7.234375 C 12.78125 -7.234375 12.71875 -7.253906 12.71875 -7.296875 C 12.71875 -8.210938 12.488281 -8.867188 12.03125 -9.265625 C 11.582031 -9.660156 10.835938 -9.859375 9.796875 -9.859375 L 6.078125 -9.859375 L 6.078125 -2.65625 C 6.078125 -2.070312 6.140625 -1.644531 6.265625 -1.375 C 6.390625 -1.101562 6.617188 -0.914062 6.953125 -0.8125 C 7.285156 -0.707031 7.804688 -0.65625 8.515625 -0.65625 L 11.015625 -0.65625 C 12.023438 -0.65625 12.863281 -1.007812 13.53125 -1.71875 C 14.195312 -2.425781 14.644531 -3.410156 14.875 -4.671875 Z M 14.875 -4.671875 "/></g></g></g><g fill="#ffffff" fill-opacity="1"><g transform="translate(318.883262, 37.91257)"><g><path d="M 13 -19.921875 C 14 -19.921875 15.007812 -19.820312 16.03125 -19.625 C 17.050781 -19.4375 17.863281 -19.164062 18.46875 -18.8125 C 18.65625 -18.726562 18.773438 -18.640625 18.828125 -18.546875 C 18.878906 -18.453125 18.914062 -18.289062 18.9375 -18.0625 L 19.28125 -14.5625 C 19.28125 -14.5 19.226562 -14.460938 19.125 -14.453125 C 19.019531 -14.441406 18.957031 -14.46875 18.9375 -14.53125 C 18.476562 -16.132812 17.628906 -17.316406 16.390625 -18.078125 C 15.148438 -18.835938 13.613281 -19.21875 11.78125 -19.21875 C 10.1875 -19.21875 8.796875 -18.867188 7.609375 -18.171875 C 6.421875 -17.472656 5.5 -16.488281 4.84375 -15.21875 C 4.195312 -13.945312 3.875 -12.472656 3.875 -10.796875 C 3.875 -8.859375 4.273438 -7.0625 5.078125 -5.40625 C 5.890625 -3.757812 6.976562 -2.457031 8.34375 -1.5 C 9.707031 -0.539062 11.1875 -0.0625 12.78125 -0.0625 C 14.28125 -0.0625 15.582031 -0.472656 16.6875 -1.296875 C 17.789062 -2.117188 18.632812 -3.390625 19.21875 -5.109375 C 19.21875 -5.171875 19.257812 -5.203125 19.34375 -5.203125 C 19.40625 -5.203125 19.460938 -5.191406 19.515625 -5.171875 C 19.578125 -5.148438 19.609375 -5.117188 19.609375 -5.078125 L 19.15625 -1.53125 C 19.113281 -1.28125 19.066406 -1.117188 19.015625 -1.046875 C 18.960938 -0.972656 18.84375 -0.894531 18.65625 -0.8125 C 16.78125 -0.0195312 14.800781 0.375 12.71875 0.375 C 10.207031 0.375 8.109375 -0.128906 6.421875 -1.140625 C 4.742188 -2.148438 3.507812 -3.4375 2.71875 -5 C 1.925781 -6.570312 1.53125 -8.222656 1.53125 -9.953125 C 1.53125 -11.878906 2.0625 -13.601562 3.125 -15.125 C 4.195312 -16.644531 5.609375 -17.820312 7.359375 -18.65625 C 9.109375 -19.5 10.988281 -19.921875 13 -19.921875 Z M 13 -19.921875 "/></g></g></g><g fill="#ffffff" fill-opacity="1"><g transform="translate(344.780554, 37.91257)"><g><path d="M 21.890625 -0.375 C 21.972656 -0.375 22.015625 -0.3125 22.015625 -0.1875 C 22.015625 -0.0625 21.972656 0 21.890625 0 C 21.492188 0 20.878906 -0.0195312 20.046875 -0.0625 C 19.203125 -0.101562 18.59375 -0.125 18.21875 -0.125 C 17.757812 -0.125 17.175781 -0.101562 16.46875 -0.0625 C 15.800781 -0.0195312 15.289062 0 14.9375 0 C 14.851562 0 14.8125 -0.0625 14.8125 -0.1875 C 14.8125 -0.3125 14.851562 -0.375 14.9375 -0.375 C 15.707031 -0.375 16.269531 -0.445312 16.625 -0.59375 C 16.976562 -0.738281 17.15625 -0.988281 17.15625 -1.34375 C 17.15625 -1.632812 17.019531 -2.082031 16.75 -2.6875 L 13.15625 -10.359375 L 7.234375 -10.359375 L 4.546875 -3.984375 C 4.253906 -3.265625 4.109375 -2.675781 4.109375 -2.21875 C 4.109375 -0.988281 5.128906 -0.375 7.171875 -0.375 C 7.273438 -0.375 7.328125 -0.3125 7.328125 -0.1875 C 7.328125 -0.0625 7.273438 0 7.171875 0 C 6.796875 0 6.253906 -0.0195312 5.546875 -0.0625 C 4.753906 -0.101562 4.0625 -0.125 3.46875 -0.125 C 2.925781 -0.125 2.300781 -0.101562 1.59375 -0.0625 C 0.96875 -0.0195312 0.445312 0 0.03125 0 C -0.0703125 0 -0.125 -0.0625 -0.125 -0.1875 C -0.125 -0.3125 -0.0703125 -0.375 0.03125 -0.375 C 0.613281 -0.375 1.109375 -0.484375 1.515625 -0.703125 C 1.921875 -0.921875 2.304688 -1.304688 2.671875 -1.859375 C 3.035156 -2.410156 3.4375 -3.210938 3.875 -4.265625 L 10.484375 -19.859375 C 10.523438 -19.921875 10.597656 -19.953125 10.703125 -19.953125 C 10.804688 -19.953125 10.867188 -19.921875 10.890625 -19.859375 L 18.28125 -4.296875 C 18.988281 -2.742188 19.59375 -1.703125 20.09375 -1.171875 C 20.601562 -0.640625 21.203125 -0.375 21.890625 -0.375 Z M 7.515625 -11.015625 L 12.84375 -11.015625 L 10.015625 -16.96875 Z M 7.515625 -11.015625 "/></g></g></g><g fill="#ffffff" fill-opacity="1"><g transform="translate(371.711156, 37.91257)"><g><path d="M 21.390625 -0.375 C 21.429688 -0.375 21.453125 -0.3125 21.453125 -0.1875 C 21.453125 -0.0625 21.429688 0 21.390625 0 L 17.34375 0 C 16.820312 0 15.847656 -0.890625 14.421875 -2.671875 C 12.992188 -4.460938 11.253906 -6.953125 9.203125 -10.140625 C 8.703125 -9.992188 8.140625 -9.921875 7.515625 -9.921875 C 7.117188 -9.921875 6.648438 -9.941406 6.109375 -9.984375 L 6.109375 -2.53125 C 6.109375 -1.882812 6.171875 -1.414062 6.296875 -1.125 C 6.421875 -0.832031 6.664062 -0.632812 7.03125 -0.53125 C 7.394531 -0.425781 7.972656 -0.375 8.765625 -0.375 C 8.828125 -0.375 8.859375 -0.3125 8.859375 -0.1875 C 8.859375 -0.0625 8.828125 0 8.765625 0 C 8.117188 0 7.609375 -0.0078125 7.234375 -0.03125 L 5.078125 -0.0625 L 2.9375 -0.03125 C 2.5625 -0.0078125 2.03125 0 1.34375 0 C 1.300781 0 1.28125 -0.0625 1.28125 -0.1875 C 1.28125 -0.3125 1.300781 -0.375 1.34375 -0.375 C 2.132812 -0.375 2.71875 -0.429688 3.09375 -0.546875 C 3.46875 -0.660156 3.726562 -0.863281 3.875 -1.15625 C 4.03125 -1.445312 4.109375 -1.90625 4.109375 -2.53125 L 4.109375 -17.03125 C 4.109375 -17.65625 4.035156 -18.113281 3.890625 -18.40625 C 3.753906 -18.695312 3.503906 -18.898438 3.140625 -19.015625 C 2.773438 -19.128906 2.195312 -19.1875 1.40625 -19.1875 C 1.34375 -19.1875 1.3125 -19.25 1.3125 -19.375 C 1.3125 -19.5 1.34375 -19.5625 1.40625 -19.5625 L 2.9375 -19.53125 C 3.820312 -19.488281 4.535156 -19.46875 5.078125 -19.46875 C 5.453125 -19.46875 5.804688 -19.476562 6.140625 -19.5 C 6.472656 -19.519531 6.765625 -19.539062 7.015625 -19.5625 C 7.679688 -19.632812 8.285156 -19.671875 8.828125 -19.671875 C 10.515625 -19.671875 11.816406 -19.320312 12.734375 -18.625 C 13.660156 -17.9375 14.125 -16.976562 14.125 -15.75 C 14.125 -14.75 13.832031 -13.800781 13.25 -12.90625 C 12.664062 -12.019531 11.890625 -11.316406 10.921875 -10.796875 C 12.703125 -8.148438 14.195312 -6.078125 15.40625 -4.578125 C 16.613281 -3.085938 17.6875 -2.015625 18.625 -1.359375 C 19.570312 -0.703125 20.492188 -0.375 21.390625 -0.375 Z M 6.109375 -10.765625 C 6.628906 -10.679688 7.242188 -10.640625 7.953125 -10.640625 C 9.390625 -10.640625 10.421875 -10.945312 11.046875 -11.5625 C 11.679688 -12.1875 12 -13.21875 12 -14.65625 C 12 -17.675781 10.722656 -19.1875 8.171875 -19.1875 C 7.609375 -19.1875 7.1875 -19.140625 6.90625 -19.046875 C 6.625 -18.953125 6.421875 -18.753906 6.296875 -18.453125 C 6.171875 -18.148438 6.109375 -17.65625 6.109375 -16.96875 Z M 6.109375 -10.765625 "/></g></g></g><g fill="#ffffff" fill-opacity="1"><g transform="translate(397.733691, 37.91257)"><g><path d="M 11.453125 0.375 C 9.515625 0.375 7.789062 -0.078125 6.28125 -0.984375 C 4.769531 -1.890625 3.597656 -3.117188 2.765625 -4.671875 C 1.941406 -6.234375 1.53125 -7.929688 1.53125 -9.765625 C 1.53125 -11.921875 2.070312 -13.765625 3.15625 -15.296875 C 4.25 -16.828125 5.644531 -17.976562 7.34375 -18.75 C 9.039062 -19.53125 10.78125 -19.921875 12.5625 -19.921875 C 14.539062 -19.921875 16.28125 -19.453125 17.78125 -18.515625 C 19.289062 -17.585938 20.445312 -16.363281 21.25 -14.84375 C 22.050781 -13.320312 22.453125 -11.703125 22.453125 -9.984375 C 22.453125 -8.085938 21.945312 -6.34375 20.9375 -4.75 C 19.9375 -3.164062 18.597656 -1.914062 16.921875 -1 C 15.242188 -0.0820312 13.421875 0.375 11.453125 0.375 Z M 12.5625 -0.28125 C 13.976562 -0.28125 15.253906 -0.625 16.390625 -1.3125 C 17.523438 -2 18.421875 -3.007812 19.078125 -4.34375 C 19.742188 -5.6875 20.078125 -7.273438 20.078125 -9.109375 C 20.078125 -11.078125 19.707031 -12.820312 18.96875 -14.34375 C 18.238281 -15.863281 17.210938 -17.050781 15.890625 -17.90625 C 14.566406 -18.757812 13.015625 -19.1875 11.234375 -19.1875 C 8.941406 -19.1875 7.144531 -18.445312 5.84375 -16.96875 C 4.550781 -15.488281 3.90625 -13.453125 3.90625 -10.859375 C 3.90625 -8.898438 4.269531 -7.109375 5 -5.484375 C 5.738281 -3.867188 6.765625 -2.597656 8.078125 -1.671875 C 9.390625 -0.742188 10.882812 -0.28125 12.5625 -0.28125 Z M 12.5625 -0.28125 "/></g></g></g><g fill="#ffffff" fill-opacity="1"><g transform="translate(426.668267, 37.91257)"><g><path d="M 4.546875 -15.90625 C 4.546875 -15.09375 4.742188 -14.382812 5.140625 -13.78125 C 5.535156 -13.175781 6.015625 -12.664062 6.578125 -12.25 C 7.140625 -11.84375 7.929688 -11.328125 8.953125 -10.703125 C 10.035156 -10.054688 10.878906 -9.515625 11.484375 -9.078125 C 12.097656 -8.640625 12.617188 -8.082031 13.046875 -7.40625 C 13.472656 -6.726562 13.6875 -5.921875 13.6875 -4.984375 C 13.6875 -3.972656 13.4375 -3.0625 12.9375 -2.25 C 12.4375 -1.4375 11.695312 -0.796875 10.71875 -0.328125 C 9.75 0.140625 8.585938 0.375 7.234375 0.375 C 5.628906 0.375 4.15625 0.0078125 2.8125 -0.71875 C 2.707031 -0.78125 2.640625 -0.851562 2.609375 -0.9375 C 2.578125 -1.019531 2.550781 -1.144531 2.53125 -1.3125 L 2.125 -5.578125 C 2.101562 -5.660156 2.148438 -5.710938 2.265625 -5.734375 C 2.378906 -5.753906 2.445312 -5.722656 2.46875 -5.640625 C 2.800781 -4.128906 3.421875 -2.832031 4.328125 -1.75 C 5.242188 -0.664062 6.453125 -0.125 7.953125 -0.125 C 8.992188 -0.125 9.875 -0.410156 10.59375 -0.984375 C 11.3125 -1.554688 11.671875 -2.46875 11.671875 -3.71875 C 11.671875 -4.664062 11.460938 -5.484375 11.046875 -6.171875 C 10.628906 -6.859375 10.125 -7.425781 9.53125 -7.875 C 8.9375 -8.320312 8.128906 -8.847656 7.109375 -9.453125 C 6.109375 -10.054688 5.316406 -10.578125 4.734375 -11.015625 C 4.160156 -11.453125 3.675781 -12.003906 3.28125 -12.671875 C 2.882812 -13.347656 2.6875 -14.132812 2.6875 -15.03125 C 2.6875 -16.070312 2.960938 -16.960938 3.515625 -17.703125 C 4.078125 -18.441406 4.800781 -18.992188 5.6875 -19.359375 C 6.570312 -19.734375 7.515625 -19.921875 8.515625 -19.921875 C 9.742188 -19.921875 10.96875 -19.664062 12.1875 -19.15625 C 12.5 -19.050781 12.65625 -18.875 12.65625 -18.625 L 12.875 -15.03125 C 12.875 -14.945312 12.820312 -14.90625 12.71875 -14.90625 C 12.613281 -14.90625 12.550781 -14.945312 12.53125 -15.03125 C 12.363281 -16.113281 11.910156 -17.117188 11.171875 -18.046875 C 10.441406 -18.972656 9.390625 -19.4375 8.015625 -19.4375 C 6.847656 -19.4375 5.976562 -19.097656 5.40625 -18.421875 C 4.832031 -17.742188 4.546875 -16.90625 4.546875 -15.90625 Z M 4.546875 -15.90625 "/></g></g></g><g fill="#ffffff" fill-opacity="1"><g transform="translate(446.991921, 37.91257)"><g/></g></g><g fill="#ffffff" fill-opacity="1"><g transform="translate(459.268272, 37.91257)"><g><path d="M 19.21875 -19.5625 C 19.257812 -19.5625 19.28125 -19.5 19.28125 -19.375 C 19.28125 -19.25 19.257812 -19.1875 19.21875 -19.1875 C 18.46875 -19.1875 17.707031 -18.910156 16.9375 -18.359375 C 16.164062 -17.804688 15.476562 -17.050781 14.875 -16.09375 L 10.671875 -9.640625 L 10.671875 -2.53125 C 10.671875 -1.882812 10.734375 -1.414062 10.859375 -1.125 C 10.984375 -0.832031 11.226562 -0.632812 11.59375 -0.53125 C 11.96875 -0.425781 12.550781 -0.375 13.34375 -0.375 C 13.40625 -0.375 13.4375 -0.3125 13.4375 -0.1875 C 13.4375 -0.0625 13.40625 0 13.34375 0 C 12.695312 0 12.195312 -0.0078125 11.84375 -0.03125 L 9.640625 -0.0625 L 7.484375 -0.03125 C 7.109375 -0.0078125 6.597656 0 5.953125 0 C 5.890625 0 5.859375 -0.0625 5.859375 -0.1875 C 5.859375 -0.3125 5.890625 -0.375 5.953125 -0.375 C 6.742188 -0.375 7.320312 -0.425781 7.6875 -0.53125 C 8.050781 -0.632812 8.300781 -0.835938 8.4375 -1.140625 C 8.570312 -1.441406 8.640625 -1.90625 8.640625 -2.53125 L 8.640625 -9.140625 L 3.4375 -16.75 C 2.851562 -17.664062 2.300781 -18.300781 1.78125 -18.65625 C 1.257812 -19.007812 0.65625 -19.1875 -0.03125 -19.1875 C -0.09375 -19.1875 -0.125 -19.25 -0.125 -19.375 C -0.125 -19.5 -0.09375 -19.5625 -0.03125 -19.5625 C 0.21875 -19.5625 0.59375 -19.539062 1.09375 -19.5 L 2.1875 -19.46875 C 2.894531 -19.46875 3.796875 -19.488281 4.890625 -19.53125 L 6.578125 -19.5625 C 6.617188 -19.5625 6.640625 -19.5 6.640625 -19.375 C 6.640625 -19.25 6.617188 -19.1875 6.578125 -19.1875 C 5.492188 -19.1875 4.953125 -18.96875 4.953125 -18.53125 C 4.953125 -18.300781 5.054688 -18.039062 5.265625 -17.75 L 10.296875 -10.359375 L 14.125 -16.21875 C 14.582031 -16.945312 14.8125 -17.5625 14.8125 -18.0625 C 14.8125 -18.8125 14.25 -19.1875 13.125 -19.1875 C 13.082031 -19.1875 13.0625 -19.25 13.0625 -19.375 C 13.0625 -19.5 13.082031 -19.5625 13.125 -19.5625 L 14.59375 -19.53125 C 15.382812 -19.488281 16.113281 -19.46875 16.78125 -19.46875 C 17.132812 -19.46875 17.5625 -19.488281 18.0625 -19.53125 Z M 19.21875 -19.5625 "/></g></g></g><g fill="#ffffff" fill-opacity="1"><g transform="translate(483.28681, 37.91257)"><g/></g></g><g fill="#ffffff" fill-opacity="1"><g transform="translate(495.563161, 37.91257)"><g><path d="M 21.890625 -0.375 C 21.972656 -0.375 22.015625 -0.3125 22.015625 -0.1875 C 22.015625 -0.0625 21.972656 0 21.890625 0 C 21.492188 0 20.878906 -0.0195312 20.046875 -0.0625 C 19.203125 -0.101562 18.59375 -0.125 18.21875 -0.125 C 17.757812 -0.125 17.175781 -0.101562 16.46875 -0.0625 C 15.800781 -0.0195312 15.289062 0 14.9375 0 C 14.851562 0 14.8125 -0.0625 14.8125 -0.1875 C 14.8125 -0.3125 14.851562 -0.375 14.9375 -0.375 C 15.707031 -0.375 16.269531 -0.445312 16.625 -0.59375 C 16.976562 -0.738281 17.15625 -0.988281 17.15625 -1.34375 C 17.15625 -1.632812 17.019531 -2.082031 16.75 -2.6875 L 13.15625 -10.359375 L 7.234375 -10.359375 L 4.546875 -3.984375 C 4.253906 -3.265625 4.109375 -2.675781 4.109375 -2.21875 C 4.109375 -0.988281 5.128906 -0.375 7.171875 -0.375 C 7.273438 -0.375 7.328125 -0.3125 7.328125 -0.1875 C 7.328125 -0.0625 7.273438 0 7.171875 0 C 6.796875 0 6.253906 -0.0195312 5.546875 -0.0625 C 4.753906 -0.101562 4.0625 -0.125 3.46875 -0.125 C 2.925781 -0.125 2.300781 -0.101562 1.59375 -0.0625 C 0.96875 -0.0195312 0.445312 0 0.03125 0 C -0.0703125 0 -0.125 -0.0625 -0.125 -0.1875 C -0.125 -0.3125 -0.0703125 -0.375 0.03125 -0.375 C 0.613281 -0.375 1.109375 -0.484375 1.515625 -0.703125 C 1.921875 -0.921875 2.304688 -1.304688 2.671875 -1.859375 C 3.035156 -2.410156 3.4375 -3.210938 3.875 -4.265625 L 10.484375 -19.859375 C 10.523438 -19.921875 10.597656 -19.953125 10.703125 -19.953125 C 10.804688 -19.953125 10.867188 -19.921875 10.890625 -19.859375 L 18.28125 -4.296875 C 18.988281 -2.742188 19.59375 -1.703125 20.09375 -1.171875 C 20.601562 -0.640625 21.203125 -0.375 21.890625 -0.375 Z M 7.515625 -11.015625 L 12.84375 -11.015625 L 10.015625 -16.96875 Z M 7.515625 -11.015625 "/></g></g></g><g fill="#ffffff" fill-opacity="1"><g transform="translate(522.493763, 37.91257)"><g><path d="M 4.546875 -15.90625 C 4.546875 -15.09375 4.742188 -14.382812 5.140625 -13.78125 C 5.535156 -13.175781 6.015625 -12.664062 6.578125 -12.25 C 7.140625 -11.84375 7.929688 -11.328125 8.953125 -10.703125 C 10.035156 -10.054688 10.878906 -9.515625 11.484375 -9.078125 C 12.097656 -8.640625 12.617188 -8.082031 13.046875 -7.40625 C 13.472656 -6.726562 13.6875 -5.921875 13.6875 -4.984375 C 13.6875 -3.972656 13.4375 -3.0625 12.9375 -2.25 C 12.4375 -1.4375 11.695312 -0.796875 10.71875 -0.328125 C 9.75 0.140625 8.585938 0.375 7.234375 0.375 C 5.628906 0.375 4.15625 0.0078125 2.8125 -0.71875 C 2.707031 -0.78125 2.640625 -0.851562 2.609375 -0.9375 C 2.578125 -1.019531 2.550781 -1.144531 2.53125 -1.3125 L 2.125 -5.578125 C 2.101562 -5.660156 2.148438 -5.710938 2.265625 -5.734375 C 2.378906 -5.753906 2.445312 -5.722656 2.46875 -5.640625 C 2.800781 -4.128906 3.421875 -2.832031 4.328125 -1.75 C 5.242188 -0.664062 6.453125 -0.125 7.953125 -0.125 C 8.992188 -0.125 9.875 -0.410156 10.59375 -0.984375 C 11.3125 -1.554688 11.671875 -2.46875 11.671875 -3.71875 C 11.671875 -4.664062 11.460938 -5.484375 11.046875 -6.171875 C 10.628906 -6.859375 10.125 -7.425781 9.53125 -7.875 C 8.9375 -8.320312 8.128906 -8.847656 7.109375 -9.453125 C 6.109375 -10.054688 5.316406 -10.578125 4.734375 -11.015625 C 4.160156 -11.453125 3.675781 -12.003906 3.28125 -12.671875 C 2.882812 -13.347656 2.6875 -14.132812 2.6875 -15.03125 C 2.6875 -16.070312 2.960938 -16.960938 3.515625 -17.703125 C 4.078125 -18.441406 4.800781 -18.992188 5.6875 -19.359375 C 6.570312 -19.734375 7.515625 -19.921875 8.515625 -19.921875 C 9.742188 -19.921875 10.96875 -19.664062 12.1875 -19.15625 C 12.5 -19.050781 12.65625 -18.875 12.65625 -18.625 L 12.875 -15.03125 C 12.875 -14.945312 12.820312 -14.90625 12.71875 -14.90625 C 12.613281 -14.90625 12.550781 -14.945312 12.53125 -15.03125 C 12.363281 -16.113281 11.910156 -17.117188 11.171875 -18.046875 C 10.441406 -18.972656 9.390625 -19.4375 8.015625 -19.4375 C 6.847656 -19.4375 5.976562 -19.097656 5.40625 -18.421875 C 4.832031 -17.742188 4.546875 -16.90625 4.546875 -15.90625 Z M 4.546875 -15.90625 "/></g></g></g><g fill="#ffffff" fill-opacity="1"><g transform="translate(542.817417, 37.91257)"><g><path d="M 5.921875 -19 C 4.609375 -19 3.617188 -18.664062 2.953125 -18 C 2.296875 -17.332031 1.820312 -16.195312 1.53125 -14.59375 C 1.53125 -14.550781 1.472656 -14.53125 1.359375 -14.53125 C 1.242188 -14.53125 1.1875 -14.550781 1.1875 -14.59375 C 1.269531 -15.34375 1.363281 -16.320312 1.46875 -17.53125 C 1.570312 -18.738281 1.625 -19.648438 1.625 -20.265625 C 1.625 -20.367188 1.679688 -20.421875 1.796875 -20.421875 C 1.910156 -20.421875 1.96875 -20.367188 1.96875 -20.265625 C 1.96875 -19.796875 2.53125 -19.5625 3.65625 -19.5625 C 5.4375 -19.5 7.535156 -19.46875 9.953125 -19.46875 C 11.191406 -19.46875 12.5 -19.488281 13.875 -19.53125 L 16 -19.5625 C 16.75 -19.5625 17.304688 -19.613281 17.671875 -19.71875 C 18.035156 -19.832031 18.269531 -20.046875 18.375 -20.359375 C 18.394531 -20.441406 18.457031 -20.484375 18.5625 -20.484375 C 18.664062 -20.484375 18.71875 -20.441406 18.71875 -20.359375 C 18.65625 -19.742188 18.59375 -18.820312 18.53125 -17.59375 C 18.46875 -16.363281 18.4375 -15.363281 18.4375 -14.59375 C 18.4375 -14.550781 18.375 -14.53125 18.25 -14.53125 C 18.125 -14.53125 18.0625 -14.550781 18.0625 -14.59375 C 18 -16.21875 17.664062 -17.359375 17.0625 -18.015625 C 16.457031 -18.671875 15.457031 -19 14.0625 -19 C 13.125 -19 12.453125 -18.957031 12.046875 -18.875 C 11.648438 -18.789062 11.378906 -18.613281 11.234375 -18.34375 C 11.085938 -18.070312 11.015625 -17.613281 11.015625 -16.96875 L 11.015625 -2.53125 C 11.015625 -1.882812 11.085938 -1.414062 11.234375 -1.125 C 11.378906 -0.832031 11.660156 -0.632812 12.078125 -0.53125 C 12.503906 -0.425781 13.164062 -0.375 14.0625 -0.375 C 14.125 -0.375 14.15625 -0.3125 14.15625 -0.1875 C 14.15625 -0.0625 14.125 0 14.0625 0 C 13.375 0 12.820312 -0.0078125 12.40625 -0.03125 L 9.953125 -0.0625 L 7.609375 -0.03125 C 7.191406 -0.0078125 6.617188 0 5.890625 0 C 5.847656 0 5.828125 -0.0625 5.828125 -0.1875 C 5.828125 -0.3125 5.847656 -0.375 5.890625 -0.375 C 6.785156 -0.375 7.441406 -0.425781 7.859375 -0.53125 C 8.273438 -0.632812 8.5625 -0.835938 8.71875 -1.140625 C 8.875 -1.441406 8.953125 -1.90625 8.953125 -2.53125 L 8.953125 -17.03125 C 8.953125 -17.675781 8.878906 -18.128906 8.734375 -18.390625 C 8.585938 -18.648438 8.316406 -18.816406 7.921875 -18.890625 C 7.523438 -18.960938 6.859375 -19 5.921875 -19 Z M 5.921875 -19 "/></g></g></g><g fill="#ffffff" fill-opacity="1"><g transform="translate(567.618776, 37.91257)"><g><path d="M 14.875 -4.671875 C 14.875 -4.710938 14.914062 -4.734375 15 -4.734375 C 15.0625 -4.734375 15.117188 -4.722656 15.171875 -4.703125 C 15.222656 -4.679688 15.25 -4.648438 15.25 -4.609375 C 15.0625 -3.285156 14.96875 -1.90625 14.96875 -0.46875 C 14.96875 -0.300781 14.929688 -0.179688 14.859375 -0.109375 C 14.785156 -0.0351562 14.65625 0 14.46875 0 L 1.34375 0 C 1.300781 0 1.28125 -0.0625 1.28125 -0.1875 C 1.28125 -0.3125 1.300781 -0.375 1.34375 -0.375 C 2.132812 -0.375 2.710938 -0.425781 3.078125 -0.53125 C 3.441406 -0.632812 3.691406 -0.835938 3.828125 -1.140625 C 3.972656 -1.441406 4.046875 -1.90625 4.046875 -2.53125 L 4.046875 -17.03125 C 4.046875 -17.65625 3.972656 -18.113281 3.828125 -18.40625 C 3.691406 -18.695312 3.441406 -18.898438 3.078125 -19.015625 C 2.710938 -19.128906 2.132812 -19.1875 1.34375 -19.1875 C 1.300781 -19.1875 1.28125 -19.25 1.28125 -19.375 C 1.28125 -19.5 1.300781 -19.5625 1.34375 -19.5625 L 13.9375 -19.5625 C 14.125 -19.5625 14.21875 -19.46875 14.21875 -19.28125 L 14.28125 -15.4375 C 14.28125 -15.375 14.226562 -15.335938 14.125 -15.328125 C 14.019531 -15.316406 13.957031 -15.34375 13.9375 -15.40625 C 13.875 -16.507812 13.539062 -17.367188 12.9375 -17.984375 C 12.332031 -18.597656 11.523438 -18.90625 10.515625 -18.90625 L 8.609375 -18.90625 C 7.878906 -18.90625 7.34375 -18.847656 7 -18.734375 C 6.65625 -18.617188 6.414062 -18.421875 6.28125 -18.140625 C 6.144531 -17.859375 6.078125 -17.4375 6.078125 -16.875 L 6.078125 -10.515625 L 9.890625 -10.515625 C 10.890625 -10.515625 11.601562 -10.679688 12.03125 -11.015625 C 12.46875 -11.347656 12.6875 -11.914062 12.6875 -12.71875 C 12.6875 -12.757812 12.75 -12.78125 12.875 -12.78125 C 13 -12.78125 13.0625 -12.757812 13.0625 -12.71875 L 13.03125 -10.171875 C 13.03125 -9.566406 13.039062 -9.109375 13.0625 -8.796875 L 13.09375 -7.296875 C 13.09375 -7.253906 13.03125 -7.234375 12.90625 -7.234375 C 12.78125 -7.234375 12.71875 -7.253906 12.71875 -7.296875 C 12.71875 -8.210938 12.488281 -8.867188 12.03125 -9.265625 C 11.582031 -9.660156 10.835938 -9.859375 9.796875 -9.859375 L 6.078125 -9.859375 L 6.078125 -2.65625 C 6.078125 -2.070312 6.140625 -1.644531 6.265625 -1.375 C 6.390625 -1.101562 6.617188 -0.914062 6.953125 -0.8125 C 7.285156 -0.707031 7.804688 -0.65625 8.515625 -0.65625 L 11.015625 -0.65625 C 12.023438 -0.65625 12.863281 -1.007812 13.53125 -1.71875 C 14.195312 -2.425781 14.644531 -3.410156 14.875 -4.671875 Z M 14.875 -4.671875 "/></g></g></g><g fill="#ffffff" fill-opacity="1"><g transform="translate(219.039513, 72.363577)"><g><path d="M 12.828125 -0.21875 C 12.878906 -0.21875 12.90625 -0.179688 12.90625 -0.109375 C 12.90625 -0.0351562 12.878906 0 12.828125 0 C 12.597656 0 12.238281 -0.0078125 11.75 -0.03125 C 11.257812 -0.0625 10.90625 -0.078125 10.6875 -0.078125 C 10.414062 -0.078125 10.070312 -0.0625 9.65625 -0.03125 C 9.257812 -0.0078125 8.957031 0 8.75 0 C 8.707031 0 8.6875 -0.0351562 8.6875 -0.109375 C 8.6875 -0.179688 8.707031 -0.21875 8.75 -0.21875 C 9.207031 -0.21875 9.539062 -0.257812 9.75 -0.34375 C 9.957031 -0.4375 10.0625 -0.585938 10.0625 -0.796875 C 10.0625 -0.960938 9.984375 -1.222656 9.828125 -1.578125 L 7.71875 -6.078125 L 4.234375 -6.078125 L 2.65625 -2.328125 C 2.488281 -1.910156 2.40625 -1.566406 2.40625 -1.296875 C 2.40625 -0.578125 3.003906 -0.21875 4.203125 -0.21875 C 4.265625 -0.21875 4.296875 -0.179688 4.296875 -0.109375 C 4.296875 -0.0351562 4.265625 0 4.203125 0 C 3.984375 0 3.664062 -0.0078125 3.25 -0.03125 C 2.78125 -0.0625 2.375 -0.078125 2.03125 -0.078125 C 1.71875 -0.078125 1.351562 -0.0625 0.9375 -0.03125 C 0.570312 -0.0078125 0.265625 0 0.015625 0 C -0.046875 0 -0.078125 -0.0351562 -0.078125 -0.109375 C -0.078125 -0.179688 -0.046875 -0.21875 0.015625 -0.21875 C 0.359375 -0.21875 0.648438 -0.28125 0.890625 -0.40625 C 1.128906 -0.539062 1.351562 -0.769531 1.5625 -1.09375 C 1.78125 -1.414062 2.019531 -1.882812 2.28125 -2.5 L 6.15625 -11.640625 C 6.175781 -11.671875 6.21875 -11.6875 6.28125 -11.6875 C 6.34375 -11.6875 6.378906 -11.671875 6.390625 -11.640625 L 10.71875 -2.515625 C 11.132812 -1.609375 11.488281 -1 11.78125 -0.6875 C 12.082031 -0.375 12.429688 -0.21875 12.828125 -0.21875 Z M 4.40625 -6.46875 L 7.53125 -6.46875 L 5.875 -9.953125 Z M 4.40625 -6.46875 "/></g></g></g><g fill="#ffffff" fill-opacity="1"><g transform="translate(240.920612, 72.363577)"><g><path d="M 6.09375 -6.46875 C 7.0625 -6.394531 7.84375 -6.070312 8.4375 -5.5 C 9.03125 -4.925781 9.328125 -4.21875 9.328125 -3.375 C 9.328125 -2.726562 9.164062 -2.140625 8.84375 -1.609375 C 8.53125 -1.085938 8.09375 -0.675781 7.53125 -0.375 C 6.976562 -0.0703125 6.359375 0.078125 5.671875 0.078125 C 5.265625 0.078125 4.820312 0.0546875 4.34375 0.015625 C 4.175781 0.00390625 3.972656 -0.00390625 3.734375 -0.015625 C 3.503906 -0.0234375 3.25 -0.03125 2.96875 -0.03125 L 1.71875 -0.015625 C 1.5 -0.00390625 1.191406 0 0.796875 0 C 0.765625 0 0.75 -0.0351562 0.75 -0.109375 C 0.75 -0.179688 0.765625 -0.21875 0.796875 -0.21875 C 1.253906 -0.21875 1.59375 -0.25 1.8125 -0.3125 C 2.03125 -0.382812 2.179688 -0.503906 2.265625 -0.671875 C 2.359375 -0.847656 2.40625 -1.117188 2.40625 -1.484375 L 2.40625 -9.984375 C 2.40625 -10.347656 2.363281 -10.613281 2.28125 -10.78125 C 2.207031 -10.957031 2.054688 -11.078125 1.828125 -11.140625 C 1.609375 -11.210938 1.273438 -11.25 0.828125 -11.25 C 0.785156 -11.25 0.765625 -11.285156 0.765625 -11.359375 C 0.765625 -11.429688 0.785156 -11.46875 0.828125 -11.46875 L 1.71875 -11.453125 C 2.238281 -11.429688 2.65625 -11.421875 2.96875 -11.421875 C 3.195312 -11.421875 3.40625 -11.425781 3.59375 -11.4375 C 3.78125 -11.445312 3.941406 -11.457031 4.078125 -11.46875 C 4.453125 -11.507812 4.804688 -11.53125 5.140625 -11.53125 C 6.171875 -11.53125 6.941406 -11.304688 7.453125 -10.859375 C 7.960938 -10.410156 8.21875 -9.828125 8.21875 -9.109375 C 8.21875 -8.515625 8.03125 -7.988281 7.65625 -7.53125 C 7.28125 -7.070312 6.757812 -6.71875 6.09375 -6.46875 Z M 4.734375 -11.25 C 4.421875 -11.25 4.1875 -11.222656 4.03125 -11.171875 C 3.875 -11.128906 3.757812 -11.015625 3.6875 -10.828125 C 3.613281 -10.648438 3.578125 -10.359375 3.578125 -9.953125 L 3.578125 -6.46875 L 4.40625 -6.4375 C 5.300781 -6.4375 5.960938 -6.664062 6.390625 -7.125 C 6.816406 -7.59375 7.03125 -8.203125 7.03125 -8.953125 C 7.03125 -9.640625 6.84375 -10.191406 6.46875 -10.609375 C 6.09375 -11.035156 5.515625 -11.25 4.734375 -11.25 Z M 5.390625 -0.25 C 6.285156 -0.25 6.953125 -0.476562 7.390625 -0.9375 C 7.828125 -1.40625 8.046875 -2.066406 8.046875 -2.921875 C 8.046875 -3.847656 7.769531 -4.597656 7.21875 -5.171875 C 6.675781 -5.753906 5.925781 -6.050781 4.96875 -6.0625 C 4.582031 -6.070312 4.117188 -6.054688 3.578125 -6.015625 L 3.578125 -1.484375 C 3.578125 -1.171875 3.625 -0.925781 3.71875 -0.75 C 3.8125 -0.582031 3.988281 -0.457031 4.25 -0.375 C 4.507812 -0.289062 4.890625 -0.25 5.390625 -0.25 Z M 5.390625 -0.25 "/></g></g></g><g fill="#ffffff" fill-opacity="1"><g transform="translate(260.159098, 72.363577)"><g><path d="M 6.71875 0.21875 C 5.582031 0.21875 4.566406 -0.046875 3.671875 -0.578125 C 2.785156 -1.109375 2.101562 -1.828125 1.625 -2.734375 C 1.144531 -3.648438 0.90625 -4.648438 0.90625 -5.734375 C 0.90625 -6.992188 1.222656 -8.070312 1.859375 -8.96875 C 2.492188 -9.863281 3.304688 -10.535156 4.296875 -10.984375 C 5.296875 -11.441406 6.316406 -11.671875 7.359375 -11.671875 C 8.523438 -11.671875 9.546875 -11.398438 10.421875 -10.859375 C 11.304688 -10.316406 11.984375 -9.597656 12.453125 -8.703125 C 12.921875 -7.804688 13.15625 -6.859375 13.15625 -5.859375 C 13.15625 -4.742188 12.863281 -3.71875 12.28125 -2.78125 C 11.695312 -1.851562 10.910156 -1.117188 9.921875 -0.578125 C 8.941406 -0.046875 7.875 0.21875 6.71875 0.21875 Z M 7.359375 -0.171875 C 8.191406 -0.171875 8.941406 -0.367188 9.609375 -0.765625 C 10.273438 -1.171875 10.800781 -1.765625 11.1875 -2.546875 C 11.570312 -3.335938 11.765625 -4.269531 11.765625 -5.34375 C 11.765625 -6.488281 11.550781 -7.507812 11.125 -8.40625 C 10.695312 -9.300781 10.09375 -10 9.3125 -10.5 C 8.539062 -11 7.632812 -11.25 6.59375 -11.25 C 5.25 -11.25 4.195312 -10.8125 3.4375 -9.9375 C 2.675781 -9.070312 2.296875 -7.882812 2.296875 -6.375 C 2.296875 -5.21875 2.507812 -4.164062 2.9375 -3.21875 C 3.363281 -2.269531 3.960938 -1.523438 4.734375 -0.984375 C 5.503906 -0.441406 6.378906 -0.171875 7.359375 -0.171875 Z M 7.359375 -0.171875 "/></g></g></g><g fill="#ffffff" fill-opacity="1"><g transform="translate(283.214693, 72.363577)"><g><path d="M 7.4375 0.21875 C 6.101562 0.21875 4.9375 -0.0351562 3.9375 -0.546875 C 2.945312 -1.066406 2.191406 -1.765625 1.671875 -2.640625 C 1.160156 -3.523438 0.90625 -4.507812 0.90625 -5.59375 C 0.90625 -6.78125 1.207031 -7.832031 1.8125 -8.75 C 2.414062 -9.675781 3.242188 -10.394531 4.296875 -10.90625 C 5.359375 -11.414062 6.554688 -11.671875 7.890625 -11.671875 C 8.492188 -11.671875 9.066406 -11.613281 9.609375 -11.5 C 10.148438 -11.382812 10.59375 -11.222656 10.9375 -11.015625 C 11.039062 -10.953125 11.097656 -10.898438 11.109375 -10.859375 C 11.128906 -10.816406 11.144531 -10.726562 11.15625 -10.59375 L 11.390625 -8.53125 C 11.390625 -8.5 11.351562 -8.476562 11.28125 -8.46875 C 11.21875 -8.46875 11.175781 -8.484375 11.15625 -8.515625 C 10.894531 -9.398438 10.410156 -10.078125 9.703125 -10.546875 C 8.992188 -11.023438 8.128906 -11.265625 7.109375 -11.265625 C 5.566406 -11.265625 4.375 -10.816406 3.53125 -9.921875 C 2.6875 -9.035156 2.265625 -7.816406 2.265625 -6.265625 C 2.265625 -5.078125 2.503906 -4.015625 2.984375 -3.078125 C 3.460938 -2.140625 4.128906 -1.40625 4.984375 -0.875 C 5.847656 -0.351562 6.8125 -0.09375 7.875 -0.09375 C 8.5 -0.09375 8.984375 -0.144531 9.328125 -0.25 C 9.671875 -0.363281 9.921875 -0.578125 10.078125 -0.890625 C 10.234375 -1.210938 10.3125 -1.6875 10.3125 -2.3125 C 10.3125 -2.945312 10.269531 -3.390625 10.1875 -3.640625 C 10.113281 -3.890625 9.9375 -4.054688 9.65625 -4.140625 C 9.382812 -4.234375 8.914062 -4.28125 8.25 -4.28125 C 8.175781 -4.28125 8.140625 -4.328125 8.140625 -4.421875 C 8.140625 -4.460938 8.144531 -4.5 8.15625 -4.53125 C 8.175781 -4.5625 8.195312 -4.578125 8.21875 -4.578125 C 9.175781 -4.515625 9.945312 -4.484375 10.53125 -4.484375 C 11.113281 -4.484375 11.71875 -4.5 12.34375 -4.53125 C 12.363281 -4.53125 12.378906 -4.515625 12.390625 -4.484375 C 12.410156 -4.453125 12.421875 -4.425781 12.421875 -4.40625 C 12.421875 -4.320312 12.394531 -4.28125 12.34375 -4.28125 C 12.039062 -4.289062 11.828125 -4.25 11.703125 -4.15625 C 11.585938 -4.0625 11.507812 -3.875 11.46875 -3.59375 C 11.4375 -3.3125 11.421875 -2.820312 11.421875 -2.125 C 11.421875 -1.570312 11.441406 -1.179688 11.484375 -0.953125 C 11.523438 -0.722656 11.546875 -0.578125 11.546875 -0.515625 C 11.546875 -0.441406 11.53125 -0.390625 11.5 -0.359375 C 11.476562 -0.335938 11.425781 -0.316406 11.34375 -0.296875 C 9.863281 0.046875 8.5625 0.21875 7.4375 0.21875 Z M 7.4375 0.21875 "/></g></g></g><g fill="#ffffff" fill-opacity="1"><g transform="translate(305.316008, 72.363577)"><g><path d="M 12.828125 -0.21875 C 12.878906 -0.21875 12.90625 -0.179688 12.90625 -0.109375 C 12.90625 -0.0351562 12.878906 0 12.828125 0 C 12.597656 0 12.238281 -0.0078125 11.75 -0.03125 C 11.257812 -0.0625 10.90625 -0.078125 10.6875 -0.078125 C 10.414062 -0.078125 10.070312 -0.0625 9.65625 -0.03125 C 9.257812 -0.0078125 8.957031 0 8.75 0 C 8.707031 0 8.6875 -0.0351562 8.6875 -0.109375 C 8.6875 -0.179688 8.707031 -0.21875 8.75 -0.21875 C 9.207031 -0.21875 9.539062 -0.257812 9.75 -0.34375 C 9.957031 -0.4375 10.0625 -0.585938 10.0625 -0.796875 C 10.0625 -0.960938 9.984375 -1.222656 9.828125 -1.578125 L 7.71875 -6.078125 L 4.234375 -6.078125 L 2.65625 -2.328125 C 2.488281 -1.910156 2.40625 -1.566406 2.40625 -1.296875 C 2.40625 -0.578125 3.003906 -0.21875 4.203125 -0.21875 C 4.265625 -0.21875 4.296875 -0.179688 4.296875 -0.109375 C 4.296875 -0.0351562 4.265625 0 4.203125 0 C 3.984375 0 3.664062 -0.0078125 3.25 -0.03125 C 2.78125 -0.0625 2.375 -0.078125 2.03125 -0.078125 C 1.71875 -0.078125 1.351562 -0.0625 0.9375 -0.03125 C 0.570312 -0.0078125 0.265625 0 0.015625 0 C -0.046875 0 -0.078125 -0.0351562 -0.078125 -0.109375 C -0.078125 -0.179688 -0.046875 -0.21875 0.015625 -0.21875 C 0.359375 -0.21875 0.648438 -0.28125 0.890625 -0.40625 C 1.128906 -0.539062 1.351562 -0.769531 1.5625 -1.09375 C 1.78125 -1.414062 2.019531 -1.882812 2.28125 -2.5 L 6.15625 -11.640625 C 6.175781 -11.671875 6.21875 -11.6875 6.28125 -11.6875 C 6.34375 -11.6875 6.378906 -11.671875 6.390625 -11.640625 L 10.71875 -2.515625 C 11.132812 -1.609375 11.488281 -1 11.78125 -0.6875 C 12.082031 -0.375 12.429688 -0.21875 12.828125 -0.21875 Z M 4.40625 -6.46875 L 7.53125 -6.46875 L 5.875 -9.953125 Z M 4.40625 -6.46875 "/></g></g></g><g fill="#ffffff" fill-opacity="1"><g transform="translate(327.197105, 72.363577)"><g><path d="M 5.5625 0.078125 C 5.207031 0.078125 4.796875 0.0546875 4.328125 0.015625 C 4.160156 0.00390625 3.941406 -0.00390625 3.671875 -0.015625 C 3.410156 -0.0234375 3.125 -0.03125 2.8125 -0.03125 L 1.5625 -0.015625 C 1.34375 -0.00390625 1.035156 0 0.640625 0 C 0.617188 0 0.609375 -0.0351562 0.609375 -0.109375 C 0.609375 -0.179688 0.617188 -0.21875 0.640625 -0.21875 C 1.109375 -0.21875 1.445312 -0.25 1.65625 -0.3125 C 1.875 -0.375 2.019531 -0.492188 2.09375 -0.671875 C 2.175781 -0.847656 2.21875 -1.117188 2.21875 -1.484375 L 2.21875 -9.984375 C 2.21875 -10.347656 2.179688 -10.613281 2.109375 -10.78125 C 2.035156 -10.957031 1.890625 -11.078125 1.671875 -11.140625 C 1.460938 -11.210938 1.125 -11.25 0.65625 -11.25 C 0.632812 -11.25 0.625 -11.285156 0.625 -11.359375 C 0.625 -11.429688 0.632812 -11.46875 0.65625 -11.46875 L 1.578125 -11.453125 C 2.085938 -11.429688 2.5 -11.421875 2.8125 -11.421875 C 3.269531 -11.421875 3.726562 -11.4375 4.1875 -11.46875 C 4.726562 -11.5 5.101562 -11.515625 5.3125 -11.515625 C 6.582031 -11.515625 7.707031 -11.269531 8.6875 -10.78125 C 9.664062 -10.289062 10.425781 -9.625 10.96875 -8.78125 C 11.507812 -7.9375 11.78125 -6.988281 11.78125 -5.9375 C 11.78125 -4.75 11.5 -3.695312 10.9375 -2.78125 C 10.382812 -1.863281 9.628906 -1.15625 8.671875 -0.65625 C 7.722656 -0.164062 6.6875 0.078125 5.5625 0.078125 Z M 5.375 -0.203125 C 6.351562 -0.203125 7.222656 -0.40625 7.984375 -0.8125 C 8.742188 -1.226562 9.332031 -1.835938 9.75 -2.640625 C 10.175781 -3.441406 10.390625 -4.40625 10.390625 -5.53125 C 10.390625 -6.59375 10.1875 -7.554688 9.78125 -8.421875 C 9.382812 -9.296875 8.8125 -9.984375 8.0625 -10.484375 C 7.3125 -10.984375 6.445312 -11.234375 5.46875 -11.234375 C 4.945312 -11.234375 4.539062 -11.203125 4.25 -11.140625 C 3.957031 -11.078125 3.742188 -10.953125 3.609375 -10.765625 C 3.484375 -10.585938 3.421875 -10.316406 3.421875 -9.953125 L 3.421875 -1.6875 C 3.421875 -1.320312 3.472656 -1.035156 3.578125 -0.828125 C 3.679688 -0.617188 3.875 -0.460938 4.15625 -0.359375 C 4.445312 -0.253906 4.851562 -0.203125 5.375 -0.203125 Z M 5.375 -0.203125 "/></g></g></g><g fill="#ffffff" fill-opacity="1"><g transform="translate(348.876333, 72.363577)"><g><path d="M 6.71875 0.21875 C 5.582031 0.21875 4.566406 -0.046875 3.671875 -0.578125 C 2.785156 -1.109375 2.101562 -1.828125 1.625 -2.734375 C 1.144531 -3.648438 0.90625 -4.648438 0.90625 -5.734375 C 0.90625 -6.992188 1.222656 -8.070312 1.859375 -8.96875 C 2.492188 -9.863281 3.304688 -10.535156 4.296875 -10.984375 C 5.296875 -11.441406 6.316406 -11.671875 7.359375 -11.671875 C 8.523438 -11.671875 9.546875 -11.398438 10.421875 -10.859375 C 11.304688 -10.316406 11.984375 -9.597656 12.453125 -8.703125 C 12.921875 -7.804688 13.15625 -6.859375 13.15625 -5.859375 C 13.15625 -4.742188 12.863281 -3.71875 12.28125 -2.78125 C 11.695312 -1.851562 10.910156 -1.117188 9.921875 -0.578125 C 8.941406 -0.046875 7.875 0.21875 6.71875 0.21875 Z M 7.359375 -0.171875 C 8.191406 -0.171875 8.941406 -0.367188 9.609375 -0.765625 C 10.273438 -1.171875 10.800781 -1.765625 11.1875 -2.546875 C 11.570312 -3.335938 11.765625 -4.269531 11.765625 -5.34375 C 11.765625 -6.488281 11.550781 -7.507812 11.125 -8.40625 C 10.695312 -9.300781 10.09375 -10 9.3125 -10.5 C 8.539062 -11 7.632812 -11.25 6.59375 -11.25 C 5.25 -11.25 4.195312 -10.8125 3.4375 -9.9375 C 2.675781 -9.070312 2.296875 -7.882812 2.296875 -6.375 C 2.296875 -5.21875 2.507812 -4.164062 2.9375 -3.21875 C 3.363281 -2.269531 3.960938 -1.523438 4.734375 -0.984375 C 5.503906 -0.441406 6.378906 -0.171875 7.359375 -0.171875 Z M 7.359375 -0.171875 "/></g></g></g><g fill="#ffffff" fill-opacity="1"><g transform="translate(371.931931, 72.363577)"><g><path d="M 2.65625 -9.328125 C 2.65625 -8.847656 2.769531 -8.429688 3 -8.078125 C 3.238281 -7.722656 3.519531 -7.425781 3.84375 -7.1875 C 4.175781 -6.945312 4.644531 -6.644531 5.25 -6.28125 C 5.882812 -5.894531 6.378906 -5.570312 6.734375 -5.3125 C 7.085938 -5.0625 7.390625 -4.738281 7.640625 -4.34375 C 7.890625 -3.945312 8.015625 -3.472656 8.015625 -2.921875 C 8.015625 -2.328125 7.867188 -1.789062 7.578125 -1.3125 C 7.285156 -0.84375 6.851562 -0.46875 6.28125 -0.1875 C 5.71875 0.0820312 5.035156 0.21875 4.234375 0.21875 C 3.296875 0.21875 2.4375 0.00390625 1.65625 -0.421875 C 1.59375 -0.460938 1.550781 -0.503906 1.53125 -0.546875 C 1.507812 -0.597656 1.492188 -0.671875 1.484375 -0.765625 L 1.25 -3.265625 C 1.238281 -3.316406 1.265625 -3.347656 1.328125 -3.359375 C 1.398438 -3.367188 1.441406 -3.351562 1.453125 -3.3125 C 1.648438 -2.425781 2.015625 -1.664062 2.546875 -1.03125 C 3.078125 -0.394531 3.78125 -0.078125 4.65625 -0.078125 C 5.269531 -0.078125 5.785156 -0.242188 6.203125 -0.578125 C 6.628906 -0.910156 6.84375 -1.445312 6.84375 -2.1875 C 6.84375 -2.738281 6.71875 -3.210938 6.46875 -3.609375 C 6.226562 -4.015625 5.929688 -4.347656 5.578125 -4.609375 C 5.234375 -4.878906 4.765625 -5.191406 4.171875 -5.546875 C 3.578125 -5.898438 3.113281 -6.203125 2.78125 -6.453125 C 2.445312 -6.710938 2.160156 -7.035156 1.921875 -7.421875 C 1.691406 -7.816406 1.578125 -8.28125 1.578125 -8.8125 C 1.578125 -9.425781 1.738281 -9.945312 2.0625 -10.375 C 2.382812 -10.8125 2.804688 -11.132812 3.328125 -11.34375 C 3.847656 -11.5625 4.40625 -11.671875 5 -11.671875 C 5.71875 -11.671875 6.429688 -11.523438 7.140625 -11.234375 C 7.328125 -11.171875 7.421875 -11.066406 7.421875 -10.921875 L 7.546875 -8.8125 C 7.546875 -8.757812 7.515625 -8.734375 7.453125 -8.734375 C 7.390625 -8.734375 7.351562 -8.757812 7.34375 -8.8125 C 7.25 -9.445312 6.984375 -10.035156 6.546875 -10.578125 C 6.117188 -11.128906 5.503906 -11.40625 4.703125 -11.40625 C 4.015625 -11.40625 3.5 -11.203125 3.15625 -10.796875 C 2.820312 -10.398438 2.65625 -9.910156 2.65625 -9.328125 Z M 2.65625 -9.328125 "/></g></g></g></svg>