<svg xmlns="http://www.w3.org/2000/svg" xmlns:xlink="http://www.w3.org/1999/xlink" width="600" zoomAndPan="magnify" viewBox="0 0 450 60" height="80" preserveAspectRatio="xMidYMid meet" version="1.0"><defs><g/></defs><g fill="#ffffff" fill-opacity="1"><g transform="translate(9.631438, 26.743838)"><g><path d="M 16.640625 -15.546875 C 16.691406 -15.546875 16.71875 -15.492188 16.71875 -15.390625 C 16.71875 -15.296875 16.691406 -15.25 16.640625 -15.25 C 16.078125 -15.25 15.585938 -15.097656 15.171875 -14.796875 C 14.753906 -14.503906 14.40625 -14 14.125 -13.28125 L 8.828125 -0.03125 C 8.816406 0.0390625 8.726562 0.078125 8.5625 0.078125 C 8.425781 0.078125 8.332031 0.0390625 8.28125 -0.03125 L 2.09375 -13.484375 C 1.8125 -14.128906 1.507812 -14.582031 1.1875 -14.84375 C 0.875 -15.113281 0.46875 -15.25 -0.03125 -15.25 C -0.0703125 -15.25 -0.09375 -15.296875 -0.09375 -15.390625 C -0.09375 -15.492188 -0.0703125 -15.546875 -0.03125 -15.546875 L 0.921875 -15.515625 C 1.378906 -15.484375 1.753906 -15.46875 2.046875 -15.46875 C 2.703125 -15.46875 3.410156 -15.484375 4.171875 -15.515625 L 5.203125 -15.546875 C 5.253906 -15.546875 5.28125 -15.492188 5.28125 -15.390625 C 5.28125 -15.296875 5.253906 -15.25 5.203125 -15.25 C 4.679688 -15.25 4.289062 -15.179688 4.03125 -15.046875 C 3.78125 -14.910156 3.65625 -14.6875 3.65625 -14.375 C 3.65625 -14.175781 3.726562 -13.910156 3.875 -13.578125 L 9.078125 -2.1875 L 13.5625 -13.40625 C 13.6875 -13.757812 13.75 -14.035156 13.75 -14.234375 C 13.75 -14.578125 13.59375 -14.832031 13.28125 -15 C 12.96875 -15.164062 12.476562 -15.25 11.8125 -15.25 C 11.757812 -15.25 11.734375 -15.296875 11.734375 -15.390625 C 11.734375 -15.492188 11.757812 -15.546875 11.8125 -15.546875 L 12.890625 -15.515625 C 13.453125 -15.484375 13.960938 -15.46875 14.421875 -15.46875 C 14.773438 -15.46875 15.164062 -15.484375 15.59375 -15.515625 Z M 16.640625 -15.546875 "/></g></g></g><g fill="#ffffff" fill-opacity="1"><g transform="translate(29.282128, 26.743838)"><g><path d="M 4.953125 -2.015625 C 4.953125 -1.515625 5 -1.144531 5.09375 -0.90625 C 5.195312 -0.664062 5.394531 -0.503906 5.6875 -0.421875 C 5.976562 -0.335938 6.4375 -0.296875 7.0625 -0.296875 C 7.113281 -0.296875 7.140625 -0.242188 7.140625 -0.140625 C 7.140625 -0.046875 7.113281 0 7.0625 0 C 6.5625 0 6.164062 -0.0078125 5.875 -0.03125 L 4.109375 -0.046875 L 2.390625 -0.03125 C 2.085938 -0.0078125 1.679688 0 1.171875 0 C 1.117188 0 1.09375 -0.046875 1.09375 -0.140625 C 1.09375 -0.242188 1.117188 -0.296875 1.171875 -0.296875 C 1.796875 -0.296875 2.253906 -0.335938 2.546875 -0.421875 C 2.835938 -0.503906 3.035156 -0.664062 3.140625 -0.90625 C 3.253906 -1.144531 3.3125 -1.515625 3.3125 -2.015625 L 3.3125 -13.53125 C 3.3125 -14.03125 3.253906 -14.394531 3.140625 -14.625 C 3.035156 -14.851562 2.835938 -15.015625 2.546875 -15.109375 C 2.253906 -15.203125 1.796875 -15.25 1.171875 -15.25 C 1.117188 -15.25 1.09375 -15.296875 1.09375 -15.390625 C 1.09375 -15.492188 1.117188 -15.546875 1.171875 -15.546875 L 2.390625 -15.515625 C 3.085938 -15.484375 3.660156 -15.46875 4.109375 -15.46875 C 4.597656 -15.46875 5.191406 -15.484375 5.890625 -15.515625 L 7.0625 -15.546875 C 7.113281 -15.546875 7.140625 -15.492188 7.140625 -15.390625 C 7.140625 -15.296875 7.113281 -15.25 7.0625 -15.25 C 6.445312 -15.25 5.992188 -15.195312 5.703125 -15.09375 C 5.421875 -15 5.222656 -14.832031 5.109375 -14.59375 C 5.003906 -14.351562 4.953125 -13.984375 4.953125 -13.484375 Z M 4.953125 -2.015625 "/></g></g></g><g fill="#ffffff" fill-opacity="1"><g transform="translate(40.625305, 26.743838)"><g><path d="M 4.609375 -2.109375 C 4.609375 -1.628906 4.65625 -1.28125 4.75 -1.0625 C 4.851562 -0.851562 5.035156 -0.707031 5.296875 -0.625 C 5.566406 -0.550781 6 -0.515625 6.59375 -0.515625 L 9.296875 -0.515625 C 10.242188 -0.515625 11 -0.804688 11.5625 -1.390625 C 12.125 -1.972656 12.5 -2.78125 12.6875 -3.8125 C 12.6875 -3.851562 12.726562 -3.867188 12.8125 -3.859375 C 12.90625 -3.859375 12.953125 -3.832031 12.953125 -3.78125 C 12.804688 -2.40625 12.734375 -1.269531 12.734375 -0.375 C 12.734375 -0.238281 12.707031 -0.140625 12.65625 -0.078125 C 12.613281 -0.0234375 12.515625 0 12.359375 0 L 0.875 0 C 0.84375 0 0.828125 -0.046875 0.828125 -0.140625 C 0.828125 -0.242188 0.84375 -0.296875 0.875 -0.296875 C 1.5 -0.296875 1.957031 -0.335938 2.25 -0.421875 C 2.539062 -0.503906 2.734375 -0.664062 2.828125 -0.90625 C 2.929688 -1.144531 2.984375 -1.515625 2.984375 -2.015625 L 2.984375 -13.53125 C 2.984375 -14.03125 2.929688 -14.394531 2.828125 -14.625 C 2.734375 -14.851562 2.539062 -15.015625 2.25 -15.109375 C 1.957031 -15.203125 1.5 -15.25 0.875 -15.25 C 0.84375 -15.25 0.828125 -15.296875 0.828125 -15.390625 C 0.828125 -15.492188 0.84375 -15.546875 0.875 -15.546875 L 2.09375 -15.515625 C 2.789062 -15.484375 3.351562 -15.46875 3.78125 -15.46875 C 4.25 -15.46875 4.828125 -15.484375 5.515625 -15.515625 L 6.71875 -15.546875 C 6.769531 -15.546875 6.796875 -15.492188 6.796875 -15.390625 C 6.796875 -15.296875 6.769531 -15.25 6.71875 -15.25 C 6.101562 -15.25 5.648438 -15.203125 5.359375 -15.109375 C 5.066406 -15.015625 4.867188 -14.847656 4.765625 -14.609375 C 4.660156 -14.367188 4.609375 -14 4.609375 -13.5 Z M 4.609375 -2.109375 "/></g></g></g><g fill="#ffffff" fill-opacity="1"><g transform="translate(56.967919, 26.743838)"><g><path d="M 4.609375 -2.109375 C 4.609375 -1.628906 4.65625 -1.28125 4.75 -1.0625 C 4.851562 -0.851562 5.035156 -0.707031 5.296875 -0.625 C 5.566406 -0.550781 6 -0.515625 6.59375 -0.515625 L 9.296875 -0.515625 C 10.242188 -0.515625 11 -0.804688 11.5625 -1.390625 C 12.125 -1.972656 12.5 -2.78125 12.6875 -3.8125 C 12.6875 -3.851562 12.726562 -3.867188 12.8125 -3.859375 C 12.90625 -3.859375 12.953125 -3.832031 12.953125 -3.78125 C 12.804688 -2.40625 12.734375 -1.269531 12.734375 -0.375 C 12.734375 -0.238281 12.707031 -0.140625 12.65625 -0.078125 C 12.613281 -0.0234375 12.515625 0 12.359375 0 L 0.875 0 C 0.84375 0 0.828125 -0.046875 0.828125 -0.140625 C 0.828125 -0.242188 0.84375 -0.296875 0.875 -0.296875 C 1.5 -0.296875 1.957031 -0.335938 2.25 -0.421875 C 2.539062 -0.503906 2.734375 -0.664062 2.828125 -0.90625 C 2.929688 -1.144531 2.984375 -1.515625 2.984375 -2.015625 L 2.984375 -13.53125 C 2.984375 -14.03125 2.929688 -14.394531 2.828125 -14.625 C 2.734375 -14.851562 2.539062 -15.015625 2.25 -15.109375 C 1.957031 -15.203125 1.5 -15.25 0.875 -15.25 C 0.84375 -15.25 0.828125 -15.296875 0.828125 -15.390625 C 0.828125 -15.492188 0.84375 -15.546875 0.875 -15.546875 L 2.09375 -15.515625 C 2.789062 -15.484375 3.351562 -15.46875 3.78125 -15.46875 C 4.25 -15.46875 4.828125 -15.484375 5.515625 -15.515625 L 6.71875 -15.546875 C 6.769531 -15.546875 6.796875 -15.492188 6.796875 -15.390625 C 6.796875 -15.296875 6.769531 -15.25 6.71875 -15.25 C 6.101562 -15.25 5.648438 -15.203125 5.359375 -15.109375 C 5.066406 -15.015625 4.867188 -14.847656 4.765625 -14.609375 C 4.660156 -14.367188 4.609375 -14 4.609375 -13.5 Z M 4.609375 -2.109375 "/></g></g></g><g fill="#ffffff" fill-opacity="1"><g transform="translate(73.310528, 26.743838)"><g><path d="M 17.390625 -0.296875 C 17.453125 -0.296875 17.484375 -0.242188 17.484375 -0.140625 C 17.484375 -0.046875 17.453125 0 17.390625 0 C 17.078125 0 16.585938 -0.015625 15.921875 -0.046875 C 15.253906 -0.078125 14.773438 -0.09375 14.484375 -0.09375 C 14.117188 -0.09375 13.648438 -0.078125 13.078125 -0.046875 C 12.546875 -0.015625 12.140625 0 11.859375 0 C 11.796875 0 11.765625 -0.046875 11.765625 -0.140625 C 11.765625 -0.242188 11.796875 -0.296875 11.859375 -0.296875 C 12.472656 -0.296875 12.921875 -0.351562 13.203125 -0.46875 C 13.484375 -0.582031 13.625 -0.78125 13.625 -1.0625 C 13.625 -1.300781 13.519531 -1.660156 13.3125 -2.140625 L 10.453125 -8.234375 L 5.75 -8.234375 L 3.609375 -3.15625 C 3.378906 -2.59375 3.265625 -2.128906 3.265625 -1.765625 C 3.265625 -0.785156 4.078125 -0.296875 5.703125 -0.296875 C 5.785156 -0.296875 5.828125 -0.242188 5.828125 -0.140625 C 5.828125 -0.046875 5.785156 0 5.703125 0 C 5.398438 0 4.96875 -0.015625 4.40625 -0.046875 C 3.769531 -0.078125 3.222656 -0.09375 2.765625 -0.09375 C 2.328125 -0.09375 1.828125 -0.078125 1.265625 -0.046875 C 0.765625 -0.015625 0.351562 0 0.03125 0 C -0.0507812 0 -0.09375 -0.046875 -0.09375 -0.140625 C -0.09375 -0.242188 -0.0507812 -0.296875 0.03125 -0.296875 C 0.488281 -0.296875 0.878906 -0.382812 1.203125 -0.5625 C 1.523438 -0.738281 1.832031 -1.046875 2.125 -1.484375 C 2.414062 -1.921875 2.734375 -2.554688 3.078125 -3.390625 L 8.328125 -15.765625 C 8.367188 -15.816406 8.425781 -15.84375 8.5 -15.84375 C 8.582031 -15.84375 8.632812 -15.816406 8.65625 -15.765625 L 14.53125 -3.40625 C 15.09375 -2.175781 15.570312 -1.347656 15.96875 -0.921875 C 16.363281 -0.503906 16.835938 -0.296875 17.390625 -0.296875 Z M 5.96875 -8.75 L 10.203125 -8.75 L 7.953125 -13.484375 Z M 5.96875 -8.75 "/></g></g></g><g fill="#ffffff" fill-opacity="1"><g transform="translate(93.856641, 26.743838)"><g><path d="M 16.984375 -0.296875 C 17.023438 -0.296875 17.046875 -0.242188 17.046875 -0.140625 C 17.046875 -0.046875 17.023438 0 16.984375 0 L 13.78125 0 C 13.363281 0 12.585938 -0.707031 11.453125 -2.125 C 10.316406 -3.539062 8.9375 -5.519531 7.3125 -8.0625 C 6.914062 -7.945312 6.46875 -7.890625 5.96875 -7.890625 C 5.65625 -7.890625 5.28125 -7.90625 4.84375 -7.9375 L 4.84375 -2.015625 C 4.84375 -1.503906 4.894531 -1.128906 5 -0.890625 C 5.101562 -0.660156 5.296875 -0.503906 5.578125 -0.421875 C 5.867188 -0.335938 6.332031 -0.296875 6.96875 -0.296875 C 7.019531 -0.296875 7.046875 -0.242188 7.046875 -0.140625 C 7.046875 -0.046875 7.019531 0 6.96875 0 C 6.445312 0 6.039062 -0.0078125 5.75 -0.03125 L 4.03125 -0.046875 L 2.34375 -0.03125 C 2.039062 -0.0078125 1.613281 0 1.0625 0 C 1.03125 0 1.015625 -0.046875 1.015625 -0.140625 C 1.015625 -0.242188 1.03125 -0.296875 1.0625 -0.296875 C 1.695312 -0.296875 2.160156 -0.34375 2.453125 -0.4375 C 2.753906 -0.53125 2.960938 -0.691406 3.078125 -0.921875 C 3.203125 -1.148438 3.265625 -1.515625 3.265625 -2.015625 L 3.265625 -13.53125 C 3.265625 -14.03125 3.207031 -14.394531 3.09375 -14.625 C 2.988281 -14.851562 2.789062 -15.015625 2.5 -15.109375 C 2.207031 -15.203125 1.75 -15.25 1.125 -15.25 C 1.070312 -15.25 1.046875 -15.296875 1.046875 -15.390625 C 1.046875 -15.492188 1.070312 -15.546875 1.125 -15.546875 L 2.34375 -15.515625 C 3.039062 -15.484375 3.601562 -15.46875 4.03125 -15.46875 C 4.332031 -15.46875 4.613281 -15.472656 4.875 -15.484375 C 5.144531 -15.503906 5.378906 -15.523438 5.578125 -15.546875 C 6.109375 -15.597656 6.585938 -15.625 7.015625 -15.625 C 8.359375 -15.625 9.394531 -15.347656 10.125 -14.796875 C 10.851562 -14.253906 11.21875 -13.492188 11.21875 -12.515625 C 11.21875 -11.710938 10.984375 -10.957031 10.515625 -10.25 C 10.054688 -9.550781 9.445312 -8.992188 8.6875 -8.578125 C 10.09375 -6.472656 11.273438 -4.828125 12.234375 -3.640625 C 13.203125 -2.453125 14.054688 -1.597656 14.796875 -1.078125 C 15.546875 -0.554688 16.273438 -0.296875 16.984375 -0.296875 Z M 4.84375 -8.5625 C 5.257812 -8.488281 5.75 -8.453125 6.3125 -8.453125 C 7.457031 -8.453125 8.28125 -8.695312 8.78125 -9.1875 C 9.28125 -9.675781 9.53125 -10.492188 9.53125 -11.640625 C 9.53125 -14.046875 8.519531 -15.25 6.5 -15.25 C 6.050781 -15.25 5.710938 -15.210938 5.484375 -15.140625 C 5.265625 -15.066406 5.101562 -14.90625 5 -14.65625 C 4.894531 -14.414062 4.84375 -14.023438 4.84375 -13.484375 Z M 4.84375 -8.5625 "/></g></g></g><g fill="#ffffff" fill-opacity="1"><g transform="translate(113.681439, 26.743838)"><g><path d="M 16.984375 -0.296875 C 17.023438 -0.296875 17.046875 -0.242188 17.046875 -0.140625 C 17.046875 -0.046875 17.023438 0 16.984375 0 L 13.78125 0 C 13.363281 0 12.585938 -0.707031 11.453125 -2.125 C 10.316406 -3.539062 8.9375 -5.519531 7.3125 -8.0625 C 6.914062 -7.945312 6.46875 -7.890625 5.96875 -7.890625 C 5.65625 -7.890625 5.28125 -7.90625 4.84375 -7.9375 L 4.84375 -2.015625 C 4.84375 -1.503906 4.894531 -1.128906 5 -0.890625 C 5.101562 -0.660156 5.296875 -0.503906 5.578125 -0.421875 C 5.867188 -0.335938 6.332031 -0.296875 6.96875 -0.296875 C 7.019531 -0.296875 7.046875 -0.242188 7.046875 -0.140625 C 7.046875 -0.046875 7.019531 0 6.96875 0 C 6.445312 0 6.039062 -0.0078125 5.75 -0.03125 L 4.03125 -0.046875 L 2.34375 -0.03125 C 2.039062 -0.0078125 1.613281 0 1.0625 0 C 1.03125 0 1.015625 -0.046875 1.015625 -0.140625 C 1.015625 -0.242188 1.03125 -0.296875 1.0625 -0.296875 C 1.695312 -0.296875 2.160156 -0.34375 2.453125 -0.4375 C 2.753906 -0.53125 2.960938 -0.691406 3.078125 -0.921875 C 3.203125 -1.148438 3.265625 -1.515625 3.265625 -2.015625 L 3.265625 -13.53125 C 3.265625 -14.03125 3.207031 -14.394531 3.09375 -14.625 C 2.988281 -14.851562 2.789062 -15.015625 2.5 -15.109375 C 2.207031 -15.203125 1.75 -15.25 1.125 -15.25 C 1.070312 -15.25 1.046875 -15.296875 1.046875 -15.390625 C 1.046875 -15.492188 1.070312 -15.546875 1.125 -15.546875 L 2.34375 -15.515625 C 3.039062 -15.484375 3.601562 -15.46875 4.03125 -15.46875 C 4.332031 -15.46875 4.613281 -15.472656 4.875 -15.484375 C 5.144531 -15.503906 5.378906 -15.523438 5.578125 -15.546875 C 6.109375 -15.597656 6.585938 -15.625 7.015625 -15.625 C 8.359375 -15.625 9.394531 -15.347656 10.125 -14.796875 C 10.851562 -14.253906 11.21875 -13.492188 11.21875 -12.515625 C 11.21875 -11.710938 10.984375 -10.957031 10.515625 -10.25 C 10.054688 -9.550781 9.445312 -8.992188 8.6875 -8.578125 C 10.09375 -6.472656 11.273438 -4.828125 12.234375 -3.640625 C 13.203125 -2.453125 14.054688 -1.597656 14.796875 -1.078125 C 15.546875 -0.554688 16.273438 -0.296875 16.984375 -0.296875 Z M 4.84375 -8.5625 C 5.257812 -8.488281 5.75 -8.453125 6.3125 -8.453125 C 7.457031 -8.453125 8.28125 -8.695312 8.78125 -9.1875 C 9.28125 -9.675781 9.53125 -10.492188 9.53125 -11.640625 C 9.53125 -14.046875 8.519531 -15.25 6.5 -15.25 C 6.050781 -15.25 5.710938 -15.210938 5.484375 -15.140625 C 5.265625 -15.066406 5.101562 -14.90625 5 -14.65625 C 4.894531 -14.414062 4.84375 -14.023438 4.84375 -13.484375 Z M 4.84375 -8.5625 "/></g></g></g><g fill="#ffffff" fill-opacity="1"><g transform="translate(133.506237, 26.743838)"><g><path d="M 9.109375 0.296875 C 7.566406 0.296875 6.191406 -0.0625 4.984375 -0.78125 C 3.785156 -1.5 2.859375 -2.476562 2.203125 -3.71875 C 1.546875 -4.957031 1.21875 -6.304688 1.21875 -7.765625 C 1.21875 -9.472656 1.648438 -10.9375 2.515625 -12.15625 C 3.378906 -13.375 4.484375 -14.289062 5.828125 -14.90625 C 7.179688 -15.519531 8.5625 -15.828125 9.96875 -15.828125 C 11.550781 -15.828125 12.9375 -15.457031 14.125 -14.71875 C 15.320312 -13.976562 16.238281 -13 16.875 -11.78125 C 17.507812 -10.570312 17.828125 -9.289062 17.828125 -7.9375 C 17.828125 -6.425781 17.429688 -5.039062 16.640625 -3.78125 C 15.847656 -2.519531 14.78125 -1.523438 13.4375 -0.796875 C 12.101562 -0.0664062 10.660156 0.296875 9.109375 0.296875 Z M 9.96875 -0.21875 C 11.101562 -0.21875 12.117188 -0.488281 13.015625 -1.03125 C 13.921875 -1.582031 14.632812 -2.390625 15.15625 -3.453125 C 15.675781 -4.515625 15.9375 -5.773438 15.9375 -7.234375 C 15.9375 -8.796875 15.644531 -10.179688 15.0625 -11.390625 C 14.488281 -12.597656 13.675781 -13.539062 12.625 -14.21875 C 11.570312 -14.90625 10.34375 -15.25 8.9375 -15.25 C 7.101562 -15.25 5.671875 -14.660156 4.640625 -13.484375 C 3.617188 -12.304688 3.109375 -10.6875 3.109375 -8.625 C 3.109375 -7.070312 3.394531 -5.648438 3.96875 -4.359375 C 4.550781 -3.078125 5.363281 -2.066406 6.40625 -1.328125 C 7.457031 -0.585938 8.644531 -0.21875 9.96875 -0.21875 Z M 9.96875 -0.21875 "/></g></g></g><g fill="#ffffff" fill-opacity="1"><g transform="translate(155.64421, 26.743838)"><g><path d="M 11.8125 -3.703125 C 11.8125 -3.734375 11.847656 -3.75 11.921875 -3.75 C 11.960938 -3.75 12.003906 -3.738281 12.046875 -3.71875 C 12.085938 -3.707031 12.109375 -3.6875 12.109375 -3.65625 C 11.960938 -2.613281 11.890625 -1.519531 11.890625 -0.375 C 11.890625 -0.238281 11.859375 -0.140625 11.796875 -0.078125 C 11.742188 -0.0234375 11.644531 0 11.5 0 L 1.0625 0 C 1.03125 0 1.015625 -0.046875 1.015625 -0.140625 C 1.015625 -0.242188 1.03125 -0.296875 1.0625 -0.296875 C 1.695312 -0.296875 2.160156 -0.335938 2.453125 -0.421875 C 2.742188 -0.503906 2.941406 -0.664062 3.046875 -0.90625 C 3.148438 -1.144531 3.203125 -1.515625 3.203125 -2.015625 L 3.203125 -13.53125 C 3.203125 -14.03125 3.148438 -14.394531 3.046875 -14.625 C 2.941406 -14.851562 2.742188 -15.015625 2.453125 -15.109375 C 2.160156 -15.203125 1.695312 -15.25 1.0625 -15.25 C 1.03125 -15.25 1.015625 -15.296875 1.015625 -15.390625 C 1.015625 -15.492188 1.03125 -15.546875 1.0625 -15.546875 L 11.0625 -15.546875 C 11.21875 -15.546875 11.296875 -15.472656 11.296875 -15.328125 L 11.34375 -12.265625 C 11.34375 -12.210938 11.300781 -12.179688 11.21875 -12.171875 C 11.132812 -12.160156 11.082031 -12.179688 11.0625 -12.234375 C 11.019531 -13.117188 10.753906 -13.804688 10.265625 -14.296875 C 9.785156 -14.785156 9.148438 -15.03125 8.359375 -15.03125 L 6.84375 -15.03125 C 6.257812 -15.03125 5.832031 -14.984375 5.5625 -14.890625 C 5.289062 -14.796875 5.097656 -14.632812 4.984375 -14.40625 C 4.878906 -14.1875 4.828125 -13.851562 4.828125 -13.40625 L 4.828125 -8.359375 L 7.859375 -8.359375 C 8.648438 -8.359375 9.21875 -8.488281 9.5625 -8.75 C 9.90625 -9.019531 10.078125 -9.46875 10.078125 -10.09375 C 10.078125 -10.132812 10.125 -10.15625 10.21875 -10.15625 C 10.320312 -10.15625 10.375 -10.132812 10.375 -10.09375 L 10.34375 -8.078125 C 10.34375 -7.597656 10.351562 -7.234375 10.375 -6.984375 L 10.390625 -5.796875 C 10.390625 -5.765625 10.335938 -5.75 10.234375 -5.75 C 10.140625 -5.75 10.09375 -5.765625 10.09375 -5.796875 C 10.09375 -6.523438 9.914062 -7.046875 9.5625 -7.359375 C 9.207031 -7.671875 8.613281 -7.828125 7.78125 -7.828125 L 4.828125 -7.828125 L 4.828125 -2.109375 C 4.828125 -1.648438 4.875 -1.3125 4.96875 -1.09375 C 5.070312 -0.875 5.253906 -0.722656 5.515625 -0.640625 C 5.785156 -0.554688 6.203125 -0.515625 6.765625 -0.515625 L 8.75 -0.515625 C 9.550781 -0.515625 10.21875 -0.796875 10.75 -1.359375 C 11.28125 -1.929688 11.632812 -2.710938 11.8125 -3.703125 Z M 11.8125 -3.703125 "/></g></g></g><g fill="#ffffff" fill-opacity="1"><g transform="translate(172.086315, 26.743838)"><g><path d="M 4.609375 -2.109375 C 4.609375 -1.628906 4.65625 -1.28125 4.75 -1.0625 C 4.851562 -0.851562 5.035156 -0.707031 5.296875 -0.625 C 5.566406 -0.550781 6 -0.515625 6.59375 -0.515625 L 9.296875 -0.515625 C 10.242188 -0.515625 11 -0.804688 11.5625 -1.390625 C 12.125 -1.972656 12.5 -2.78125 12.6875 -3.8125 C 12.6875 -3.851562 12.726562 -3.867188 12.8125 -3.859375 C 12.90625 -3.859375 12.953125 -3.832031 12.953125 -3.78125 C 12.804688 -2.40625 12.734375 -1.269531 12.734375 -0.375 C 12.734375 -0.238281 12.707031 -0.140625 12.65625 -0.078125 C 12.613281 -0.0234375 12.515625 0 12.359375 0 L 0.875 0 C 0.84375 0 0.828125 -0.046875 0.828125 -0.140625 C 0.828125 -0.242188 0.84375 -0.296875 0.875 -0.296875 C 1.5 -0.296875 1.957031 -0.335938 2.25 -0.421875 C 2.539062 -0.503906 2.734375 -0.664062 2.828125 -0.90625 C 2.929688 -1.144531 2.984375 -1.515625 2.984375 -2.015625 L 2.984375 -13.53125 C 2.984375 -14.03125 2.929688 -14.394531 2.828125 -14.625 C 2.734375 -14.851562 2.539062 -15.015625 2.25 -15.109375 C 1.957031 -15.203125 1.5 -15.25 0.875 -15.25 C 0.84375 -15.25 0.828125 -15.296875 0.828125 -15.390625 C 0.828125 -15.492188 0.84375 -15.546875 0.875 -15.546875 L 2.09375 -15.515625 C 2.789062 -15.484375 3.351562 -15.46875 3.78125 -15.46875 C 4.25 -15.46875 4.828125 -15.484375 5.515625 -15.515625 L 6.71875 -15.546875 C 6.769531 -15.546875 6.796875 -15.492188 6.796875 -15.390625 C 6.796875 -15.296875 6.769531 -15.25 6.71875 -15.25 C 6.101562 -15.25 5.648438 -15.203125 5.359375 -15.109375 C 5.066406 -15.015625 4.867188 -14.847656 4.765625 -14.609375 C 4.660156 -14.367188 4.609375 -14 4.609375 -13.5 Z M 4.609375 -2.109375 "/></g></g></g><g fill="#ffffff" fill-opacity="1"><g transform="translate(188.428934, 26.743838)"><g><path d="M 2.53125 -1.765625 C 3.03125 -1.765625 3.421875 -1.578125 3.703125 -1.203125 C 3.984375 -0.828125 4.125 -0.296875 4.125 0.390625 C 4.125 1.054688 3.972656 1.675781 3.671875 2.25 C 3.378906 2.820312 2.941406 3.390625 2.359375 3.953125 C 2.347656 3.972656 2.320312 3.984375 2.28125 3.984375 C 2.238281 3.984375 2.195312 3.957031 2.15625 3.90625 C 2.125 3.851562 2.128906 3.8125 2.171875 3.78125 C 2.984375 2.945312 3.390625 1.96875 3.390625 0.84375 C 3.390625 0.382812 3.304688 0.046875 3.140625 -0.171875 C 2.984375 0.078125 2.722656 0.203125 2.359375 0.203125 C 2.066406 0.203125 1.832031 0.113281 1.65625 -0.0625 C 1.476562 -0.25 1.390625 -0.484375 1.390625 -0.765625 C 1.390625 -1.429688 1.769531 -1.765625 2.53125 -1.765625 Z M 2.53125 -1.765625 "/></g></g></g><g fill="#ffffff" fill-opacity="1"><g transform="translate(197.036097, 26.743838)"><g/></g></g><g fill="#ffffff" fill-opacity="1"><g transform="translate(205.941739, 26.743838)"><g><path d="M 4.609375 -2.109375 C 4.609375 -1.628906 4.65625 -1.28125 4.75 -1.0625 C 4.851562 -0.851562 5.035156 -0.707031 5.296875 -0.625 C 5.566406 -0.550781 6 -0.515625 6.59375 -0.515625 L 9.296875 -0.515625 C 10.242188 -0.515625 11 -0.804688 11.5625 -1.390625 C 12.125 -1.972656 12.5 -2.78125 12.6875 -3.8125 C 12.6875 -3.851562 12.726562 -3.867188 12.8125 -3.859375 C 12.90625 -3.859375 12.953125 -3.832031 12.953125 -3.78125 C 12.804688 -2.40625 12.734375 -1.269531 12.734375 -0.375 C 12.734375 -0.238281 12.707031 -0.140625 12.65625 -0.078125 C 12.613281 -0.0234375 12.515625 0 12.359375 0 L 0.875 0 C 0.84375 0 0.828125 -0.046875 0.828125 -0.140625 C 0.828125 -0.242188 0.84375 -0.296875 0.875 -0.296875 C 1.5 -0.296875 1.957031 -0.335938 2.25 -0.421875 C 2.539062 -0.503906 2.734375 -0.664062 2.828125 -0.90625 C 2.929688 -1.144531 2.984375 -1.515625 2.984375 -2.015625 L 2.984375 -13.53125 C 2.984375 -14.03125 2.929688 -14.394531 2.828125 -14.625 C 2.734375 -14.851562 2.539062 -15.015625 2.25 -15.109375 C 1.957031 -15.203125 1.5 -15.25 0.875 -15.25 C 0.84375 -15.25 0.828125 -15.296875 0.828125 -15.390625 C 0.828125 -15.492188 0.84375 -15.546875 0.875 -15.546875 L 2.09375 -15.515625 C 2.789062 -15.484375 3.351562 -15.46875 3.78125 -15.46875 C 4.25 -15.46875 4.828125 -15.484375 5.515625 -15.515625 L 6.71875 -15.546875 C 6.769531 -15.546875 6.796875 -15.492188 6.796875 -15.390625 C 6.796875 -15.296875 6.769531 -15.25 6.71875 -15.25 C 6.101562 -15.25 5.648438 -15.203125 5.359375 -15.109375 C 5.066406 -15.015625 4.867188 -14.847656 4.765625 -14.609375 C 4.660156 -14.367188 4.609375 -14 4.609375 -13.5 Z M 4.609375 -2.109375 "/></g></g></g><g fill="#ffffff" fill-opacity="1"><g transform="translate(222.284357, 26.743838)"><g><path d="M 11.8125 -3.703125 C 11.8125 -3.734375 11.847656 -3.75 11.921875 -3.75 C 11.960938 -3.75 12.003906 -3.738281 12.046875 -3.71875 C 12.085938 -3.707031 12.109375 -3.6875 12.109375 -3.65625 C 11.960938 -2.613281 11.890625 -1.519531 11.890625 -0.375 C 11.890625 -0.238281 11.859375 -0.140625 11.796875 -0.078125 C 11.742188 -0.0234375 11.644531 0 11.5 0 L 1.0625 0 C 1.03125 0 1.015625 -0.046875 1.015625 -0.140625 C 1.015625 -0.242188 1.03125 -0.296875 1.0625 -0.296875 C 1.695312 -0.296875 2.160156 -0.335938 2.453125 -0.421875 C 2.742188 -0.503906 2.941406 -0.664062 3.046875 -0.90625 C 3.148438 -1.144531 3.203125 -1.515625 3.203125 -2.015625 L 3.203125 -13.53125 C 3.203125 -14.03125 3.148438 -14.394531 3.046875 -14.625 C 2.941406 -14.851562 2.742188 -15.015625 2.453125 -15.109375 C 2.160156 -15.203125 1.695312 -15.25 1.0625 -15.25 C 1.03125 -15.25 1.015625 -15.296875 1.015625 -15.390625 C 1.015625 -15.492188 1.03125 -15.546875 1.0625 -15.546875 L 11.0625 -15.546875 C 11.21875 -15.546875 11.296875 -15.472656 11.296875 -15.328125 L 11.34375 -12.265625 C 11.34375 -12.210938 11.300781 -12.179688 11.21875 -12.171875 C 11.132812 -12.160156 11.082031 -12.179688 11.0625 -12.234375 C 11.019531 -13.117188 10.753906 -13.804688 10.265625 -14.296875 C 9.785156 -14.785156 9.148438 -15.03125 8.359375 -15.03125 L 6.84375 -15.03125 C 6.257812 -15.03125 5.832031 -14.984375 5.5625 -14.890625 C 5.289062 -14.796875 5.097656 -14.632812 4.984375 -14.40625 C 4.878906 -14.1875 4.828125 -13.851562 4.828125 -13.40625 L 4.828125 -8.359375 L 7.859375 -8.359375 C 8.648438 -8.359375 9.21875 -8.488281 9.5625 -8.75 C 9.90625 -9.019531 10.078125 -9.46875 10.078125 -10.09375 C 10.078125 -10.132812 10.125 -10.15625 10.21875 -10.15625 C 10.320312 -10.15625 10.375 -10.132812 10.375 -10.09375 L 10.34375 -8.078125 C 10.34375 -7.597656 10.351562 -7.234375 10.375 -6.984375 L 10.390625 -5.796875 C 10.390625 -5.765625 10.335938 -5.75 10.234375 -5.75 C 10.140625 -5.75 10.09375 -5.765625 10.09375 -5.796875 C 10.09375 -6.523438 9.914062 -7.046875 9.5625 -7.359375 C 9.207031 -7.671875 8.613281 -7.828125 7.78125 -7.828125 L 4.828125 -7.828125 L 4.828125 -2.109375 C 4.828125 -1.648438 4.875 -1.3125 4.96875 -1.09375 C 5.070312 -0.875 5.253906 -0.722656 5.515625 -0.640625 C 5.785156 -0.554688 6.203125 -0.515625 6.765625 -0.515625 L 8.75 -0.515625 C 9.550781 -0.515625 10.21875 -0.796875 10.75 -1.359375 C 11.28125 -1.929688 11.632812 -2.710938 11.8125 -3.703125 Z M 11.8125 -3.703125 "/></g></g></g><g fill="#ffffff" fill-opacity="1"><g transform="translate(238.726462, 26.743838)"><g><path d="M 10.328125 -15.828125 C 11.117188 -15.828125 11.921875 -15.75 12.734375 -15.59375 C 13.546875 -15.445312 14.191406 -15.234375 14.671875 -14.953125 C 14.828125 -14.878906 14.925781 -14.804688 14.96875 -14.734375 C 15.007812 -14.660156 15.035156 -14.535156 15.046875 -14.359375 L 15.328125 -11.5625 C 15.328125 -11.519531 15.285156 -11.492188 15.203125 -11.484375 C 15.117188 -11.472656 15.066406 -11.492188 15.046875 -11.546875 C 14.679688 -12.816406 14.003906 -13.753906 13.015625 -14.359375 C 12.035156 -14.960938 10.816406 -15.265625 9.359375 -15.265625 C 8.097656 -15.265625 6.992188 -14.988281 6.046875 -14.4375 C 5.097656 -13.882812 4.363281 -13.101562 3.84375 -12.09375 C 3.332031 -11.082031 3.078125 -9.910156 3.078125 -8.578125 C 3.078125 -7.035156 3.394531 -5.609375 4.03125 -4.296875 C 4.675781 -2.992188 5.539062 -1.957031 6.625 -1.1875 C 7.71875 -0.425781 8.894531 -0.046875 10.15625 -0.046875 C 11.34375 -0.046875 12.375 -0.375 13.25 -1.03125 C 14.132812 -1.6875 14.804688 -2.691406 15.265625 -4.046875 C 15.265625 -4.097656 15.300781 -4.125 15.375 -4.125 C 15.425781 -4.125 15.472656 -4.113281 15.515625 -4.09375 C 15.554688 -4.082031 15.578125 -4.0625 15.578125 -4.03125 L 15.21875 -1.21875 C 15.1875 -1.019531 15.148438 -0.890625 15.109375 -0.828125 C 15.066406 -0.773438 14.972656 -0.710938 14.828125 -0.640625 C 13.335938 -0.015625 11.757812 0.296875 10.09375 0.296875 C 8.101562 0.296875 6.441406 -0.101562 5.109375 -0.90625 C 3.773438 -1.707031 2.789062 -2.726562 2.15625 -3.96875 C 1.53125 -5.21875 1.21875 -6.53125 1.21875 -7.90625 C 1.21875 -9.4375 1.640625 -10.804688 2.484375 -12.015625 C 3.328125 -13.222656 4.445312 -14.160156 5.84375 -14.828125 C 7.238281 -15.492188 8.734375 -15.828125 10.328125 -15.828125 Z M 10.328125 -15.828125 "/></g></g></g><g fill="#ffffff" fill-opacity="1"><g transform="translate(258.451774, 26.743838)"><g><path d="M 17.390625 -0.296875 C 17.453125 -0.296875 17.484375 -0.242188 17.484375 -0.140625 C 17.484375 -0.046875 17.453125 0 17.390625 0 C 17.078125 0 16.585938 -0.015625 15.921875 -0.046875 C 15.253906 -0.078125 14.773438 -0.09375 14.484375 -0.09375 C 14.117188 -0.09375 13.648438 -0.078125 13.078125 -0.046875 C 12.546875 -0.015625 12.140625 0 11.859375 0 C 11.796875 0 11.765625 -0.046875 11.765625 -0.140625 C 11.765625 -0.242188 11.796875 -0.296875 11.859375 -0.296875 C 12.472656 -0.296875 12.921875 -0.351562 13.203125 -0.46875 C 13.484375 -0.582031 13.625 -0.78125 13.625 -1.0625 C 13.625 -1.300781 13.519531 -1.660156 13.3125 -2.140625 L 10.453125 -8.234375 L 5.75 -8.234375 L 3.609375 -3.15625 C 3.378906 -2.59375 3.265625 -2.128906 3.265625 -1.765625 C 3.265625 -0.785156 4.078125 -0.296875 5.703125 -0.296875 C 5.785156 -0.296875 5.828125 -0.242188 5.828125 -0.140625 C 5.828125 -0.046875 5.785156 0 5.703125 0 C 5.398438 0 4.96875 -0.015625 4.40625 -0.046875 C 3.769531 -0.078125 3.222656 -0.09375 2.765625 -0.09375 C 2.328125 -0.09375 1.828125 -0.078125 1.265625 -0.046875 C 0.765625 -0.015625 0.351562 0 0.03125 0 C -0.0507812 0 -0.09375 -0.046875 -0.09375 -0.140625 C -0.09375 -0.242188 -0.0507812 -0.296875 0.03125 -0.296875 C 0.488281 -0.296875 0.878906 -0.382812 1.203125 -0.5625 C 1.523438 -0.738281 1.832031 -1.046875 2.125 -1.484375 C 2.414062 -1.921875 2.734375 -2.554688 3.078125 -3.390625 L 8.328125 -15.765625 C 8.367188 -15.816406 8.425781 -15.84375 8.5 -15.84375 C 8.582031 -15.84375 8.632812 -15.816406 8.65625 -15.765625 L 14.53125 -3.40625 C 15.09375 -2.175781 15.570312 -1.347656 15.96875 -0.921875 C 16.363281 -0.503906 16.835938 -0.296875 17.390625 -0.296875 Z M 5.96875 -8.75 L 10.203125 -8.75 L 7.953125 -13.484375 Z M 5.96875 -8.75 "/></g></g></g><g fill="#ffffff" fill-opacity="1"><g transform="translate(278.997887, 26.743838)"><g><path d="M 16.984375 -0.296875 C 17.023438 -0.296875 17.046875 -0.242188 17.046875 -0.140625 C 17.046875 -0.046875 17.023438 0 16.984375 0 L 13.78125 0 C 13.363281 0 12.585938 -0.707031 11.453125 -2.125 C 10.316406 -3.539062 8.9375 -5.519531 7.3125 -8.0625 C 6.914062 -7.945312 6.46875 -7.890625 5.96875 -7.890625 C 5.65625 -7.890625 5.28125 -7.90625 4.84375 -7.9375 L 4.84375 -2.015625 C 4.84375 -1.503906 4.894531 -1.128906 5 -0.890625 C 5.101562 -0.660156 5.296875 -0.503906 5.578125 -0.421875 C 5.867188 -0.335938 6.332031 -0.296875 6.96875 -0.296875 C 7.019531 -0.296875 7.046875 -0.242188 7.046875 -0.140625 C 7.046875 -0.046875 7.019531 0 6.96875 0 C 6.445312 0 6.039062 -0.0078125 5.75 -0.03125 L 4.03125 -0.046875 L 2.34375 -0.03125 C 2.039062 -0.0078125 1.613281 0 1.0625 0 C 1.03125 0 1.015625 -0.046875 1.015625 -0.140625 C 1.015625 -0.242188 1.03125 -0.296875 1.0625 -0.296875 C 1.695312 -0.296875 2.160156 -0.34375 2.453125 -0.4375 C 2.753906 -0.53125 2.960938 -0.691406 3.078125 -0.921875 C 3.203125 -1.148438 3.265625 -1.515625 3.265625 -2.015625 L 3.265625 -13.53125 C 3.265625 -14.03125 3.207031 -14.394531 3.09375 -14.625 C 2.988281 -14.851562 2.789062 -15.015625 2.5 -15.109375 C 2.207031 -15.203125 1.75 -15.25 1.125 -15.25 C 1.070312 -15.25 1.046875 -15.296875 1.046875 -15.390625 C 1.046875 -15.492188 1.070312 -15.546875 1.125 -15.546875 L 2.34375 -15.515625 C 3.039062 -15.484375 3.601562 -15.46875 4.03125 -15.46875 C 4.332031 -15.46875 4.613281 -15.472656 4.875 -15.484375 C 5.144531 -15.503906 5.378906 -15.523438 5.578125 -15.546875 C 6.109375 -15.597656 6.585938 -15.625 7.015625 -15.625 C 8.359375 -15.625 9.394531 -15.347656 10.125 -14.796875 C 10.851562 -14.253906 11.21875 -13.492188 11.21875 -12.515625 C 11.21875 -11.710938 10.984375 -10.957031 10.515625 -10.25 C 10.054688 -9.550781 9.445312 -8.992188 8.6875 -8.578125 C 10.09375 -6.472656 11.273438 -4.828125 12.234375 -3.640625 C 13.203125 -2.453125 14.054688 -1.597656 14.796875 -1.078125 C 15.546875 -0.554688 16.273438 -0.296875 16.984375 -0.296875 Z M 4.84375 -8.5625 C 5.257812 -8.488281 5.75 -8.453125 6.3125 -8.453125 C 7.457031 -8.453125 8.28125 -8.695312 8.78125 -9.1875 C 9.28125 -9.675781 9.53125 -10.492188 9.53125 -11.640625 C 9.53125 -14.046875 8.519531 -15.25 6.5 -15.25 C 6.050781 -15.25 5.710938 -15.210938 5.484375 -15.140625 C 5.265625 -15.066406 5.101562 -14.90625 5 -14.65625 C 4.894531 -14.414062 4.84375 -14.023438 4.84375 -13.484375 Z M 4.84375 -8.5625 "/></g></g></g><g fill="#ffffff" fill-opacity="1"><g transform="translate(298.822685, 26.743838)"><g><path d="M 9.109375 0.296875 C 7.566406 0.296875 6.191406 -0.0625 4.984375 -0.78125 C 3.785156 -1.5 2.859375 -2.476562 2.203125 -3.71875 C 1.546875 -4.957031 1.21875 -6.304688 1.21875 -7.765625 C 1.21875 -9.472656 1.648438 -10.9375 2.515625 -12.15625 C 3.378906 -13.375 4.484375 -14.289062 5.828125 -14.90625 C 7.179688 -15.519531 8.5625 -15.828125 9.96875 -15.828125 C 11.550781 -15.828125 12.9375 -15.457031 14.125 -14.71875 C 15.320312 -13.976562 16.238281 -13 16.875 -11.78125 C 17.507812 -10.570312 17.828125 -9.289062 17.828125 -7.9375 C 17.828125 -6.425781 17.429688 -5.039062 16.640625 -3.78125 C 15.847656 -2.519531 14.78125 -1.523438 13.4375 -0.796875 C 12.101562 -0.0664062 10.660156 0.296875 9.109375 0.296875 Z M 9.96875 -0.21875 C 11.101562 -0.21875 12.117188 -0.488281 13.015625 -1.03125 C 13.921875 -1.582031 14.632812 -2.390625 15.15625 -3.453125 C 15.675781 -4.515625 15.9375 -5.773438 15.9375 -7.234375 C 15.9375 -8.796875 15.644531 -10.179688 15.0625 -11.390625 C 14.488281 -12.597656 13.675781 -13.539062 12.625 -14.21875 C 11.570312 -14.90625 10.34375 -15.25 8.9375 -15.25 C 7.101562 -15.25 5.671875 -14.660156 4.640625 -13.484375 C 3.617188 -12.304688 3.109375 -10.6875 3.109375 -8.625 C 3.109375 -7.070312 3.394531 -5.648438 3.96875 -4.359375 C 4.550781 -3.078125 5.363281 -2.066406 6.40625 -1.328125 C 7.457031 -0.585938 8.644531 -0.21875 9.96875 -0.21875 Z M 9.96875 -0.21875 "/></g></g></g><g fill="#ffffff" fill-opacity="1"><g transform="translate(320.960676, 26.743838)"><g><path d="M 3.609375 -12.640625 C 3.609375 -11.992188 3.765625 -11.425781 4.078125 -10.9375 C 4.390625 -10.457031 4.769531 -10.054688 5.21875 -9.734375 C 5.664062 -9.410156 6.296875 -9 7.109375 -8.5 C 7.972656 -7.988281 8.644531 -7.554688 9.125 -7.203125 C 9.601562 -6.859375 10.015625 -6.414062 10.359375 -5.875 C 10.703125 -5.34375 10.875 -4.703125 10.875 -3.953125 C 10.875 -3.160156 10.671875 -2.441406 10.265625 -1.796875 C 9.867188 -1.148438 9.285156 -0.640625 8.515625 -0.265625 C 7.742188 0.109375 6.820312 0.296875 5.75 0.296875 C 4.46875 0.296875 3.296875 0.00390625 2.234375 -0.578125 C 2.148438 -0.617188 2.097656 -0.671875 2.078125 -0.734375 C 2.054688 -0.804688 2.035156 -0.910156 2.015625 -1.046875 L 1.6875 -4.421875 C 1.675781 -4.492188 1.710938 -4.535156 1.796875 -4.546875 C 1.890625 -4.566406 1.945312 -4.546875 1.96875 -4.484375 C 2.226562 -3.285156 2.71875 -2.253906 3.4375 -1.390625 C 4.164062 -0.523438 5.125 -0.09375 6.3125 -0.09375 C 7.144531 -0.09375 7.847656 -0.320312 8.421875 -0.78125 C 8.992188 -1.238281 9.28125 -1.960938 9.28125 -2.953125 C 9.28125 -3.703125 9.113281 -4.347656 8.78125 -4.890625 C 8.445312 -5.441406 8.039062 -5.894531 7.5625 -6.25 C 7.09375 -6.613281 6.453125 -7.035156 5.640625 -7.515625 C 4.847656 -7.992188 4.222656 -8.40625 3.765625 -8.75 C 3.304688 -9.101562 2.921875 -9.546875 2.609375 -10.078125 C 2.296875 -10.609375 2.140625 -11.226562 2.140625 -11.9375 C 2.140625 -12.769531 2.359375 -13.476562 2.796875 -14.0625 C 3.234375 -14.65625 3.804688 -15.097656 4.515625 -15.390625 C 5.222656 -15.679688 5.972656 -15.828125 6.765625 -15.828125 C 7.742188 -15.828125 8.710938 -15.625 9.671875 -15.21875 C 9.921875 -15.132812 10.046875 -14.992188 10.046875 -14.796875 L 10.21875 -11.9375 C 10.21875 -11.875 10.175781 -11.84375 10.09375 -11.84375 C 10.007812 -11.84375 9.960938 -11.875 9.953125 -11.9375 C 9.816406 -12.800781 9.457031 -13.601562 8.875 -14.34375 C 8.300781 -15.082031 7.46875 -15.453125 6.375 -15.453125 C 5.4375 -15.453125 4.738281 -15.179688 4.28125 -14.640625 C 3.832031 -14.097656 3.609375 -13.429688 3.609375 -12.640625 Z M 3.609375 -12.640625 "/></g></g></g><g fill="#ffffff" fill-opacity="1"><g transform="translate(336.258611, 26.743838)"><g/></g></g><g fill="#ffffff" fill-opacity="1"><g transform="translate(345.164235, 26.743838)"><g><path d="M 15.265625 -15.546875 C 15.304688 -15.546875 15.328125 -15.492188 15.328125 -15.390625 C 15.328125 -15.296875 15.304688 -15.25 15.265625 -15.25 C 14.671875 -15.25 14.066406 -15.03125 13.453125 -14.59375 C 12.835938 -14.15625 12.289062 -13.550781 11.8125 -12.78125 L 8.484375 -7.65625 L 8.484375 -2.015625 C 8.484375 -1.503906 8.53125 -1.128906 8.625 -0.890625 C 8.726562 -0.660156 8.925781 -0.503906 9.21875 -0.421875 C 9.507812 -0.335938 9.96875 -0.296875 10.59375 -0.296875 C 10.644531 -0.296875 10.671875 -0.242188 10.671875 -0.140625 C 10.671875 -0.046875 10.644531 0 10.59375 0 C 10.082031 0 9.6875 -0.0078125 9.40625 -0.03125 L 7.65625 -0.046875 L 5.9375 -0.03125 C 5.644531 -0.0078125 5.238281 0 4.71875 0 C 4.675781 0 4.65625 -0.046875 4.65625 -0.140625 C 4.65625 -0.242188 4.675781 -0.296875 4.71875 -0.296875 C 5.351562 -0.296875 5.816406 -0.335938 6.109375 -0.421875 C 6.398438 -0.503906 6.597656 -0.664062 6.703125 -0.90625 C 6.804688 -1.144531 6.859375 -1.515625 6.859375 -2.015625 L 6.859375 -7.265625 L 2.734375 -13.3125 C 2.273438 -14.039062 1.835938 -14.546875 1.421875 -14.828125 C 1.003906 -15.109375 0.519531 -15.25 -0.03125 -15.25 C -0.0703125 -15.25 -0.09375 -15.296875 -0.09375 -15.390625 C -0.09375 -15.492188 -0.0703125 -15.546875 -0.03125 -15.546875 C 0.175781 -15.546875 0.476562 -15.53125 0.875 -15.5 L 1.734375 -15.46875 C 2.304688 -15.46875 3.019531 -15.484375 3.875 -15.515625 L 5.21875 -15.546875 C 5.257812 -15.546875 5.28125 -15.492188 5.28125 -15.390625 C 5.28125 -15.296875 5.257812 -15.25 5.21875 -15.25 C 4.363281 -15.25 3.9375 -15.070312 3.9375 -14.71875 C 3.9375 -14.539062 4.015625 -14.335938 4.171875 -14.109375 L 8.1875 -8.234375 L 11.21875 -12.890625 C 11.582031 -13.460938 11.765625 -13.953125 11.765625 -14.359375 C 11.765625 -14.953125 11.316406 -15.25 10.421875 -15.25 C 10.390625 -15.25 10.375 -15.296875 10.375 -15.390625 C 10.375 -15.492188 10.390625 -15.546875 10.421875 -15.546875 L 11.59375 -15.515625 C 12.21875 -15.484375 12.796875 -15.46875 13.328125 -15.46875 C 13.609375 -15.46875 13.953125 -15.484375 14.359375 -15.515625 Z M 15.265625 -15.546875 "/></g></g></g><g fill="#ffffff" fill-opacity="1"><g transform="translate(363.397173, 26.743838)"><g/></g></g><g fill="#ffffff" fill-opacity="1"><g transform="translate(372.302796, 26.743838)"><g><path d="M 17.390625 -0.296875 C 17.453125 -0.296875 17.484375 -0.242188 17.484375 -0.140625 C 17.484375 -0.046875 17.453125 0 17.390625 0 C 17.078125 0 16.585938 -0.015625 15.921875 -0.046875 C 15.253906 -0.078125 14.773438 -0.09375 14.484375 -0.09375 C 14.117188 -0.09375 13.648438 -0.078125 13.078125 -0.046875 C 12.546875 -0.015625 12.140625 0 11.859375 0 C 11.796875 0 11.765625 -0.046875 11.765625 -0.140625 C 11.765625 -0.242188 11.796875 -0.296875 11.859375 -0.296875 C 12.472656 -0.296875 12.921875 -0.351562 13.203125 -0.46875 C 13.484375 -0.582031 13.625 -0.78125 13.625 -1.0625 C 13.625 -1.300781 13.519531 -1.660156 13.3125 -2.140625 L 10.453125 -8.234375 L 5.75 -8.234375 L 3.609375 -3.15625 C 3.378906 -2.59375 3.265625 -2.128906 3.265625 -1.765625 C 3.265625 -0.785156 4.078125 -0.296875 5.703125 -0.296875 C 5.785156 -0.296875 5.828125 -0.242188 5.828125 -0.140625 C 5.828125 -0.046875 5.785156 0 5.703125 0 C 5.398438 0 4.96875 -0.015625 4.40625 -0.046875 C 3.769531 -0.078125 3.222656 -0.09375 2.765625 -0.09375 C 2.328125 -0.09375 1.828125 -0.078125 1.265625 -0.046875 C 0.765625 -0.015625 0.351562 0 0.03125 0 C -0.0507812 0 -0.09375 -0.046875 -0.09375 -0.140625 C -0.09375 -0.242188 -0.0507812 -0.296875 0.03125 -0.296875 C 0.488281 -0.296875 0.878906 -0.382812 1.203125 -0.5625 C 1.523438 -0.738281 1.832031 -1.046875 2.125 -1.484375 C 2.414062 -1.921875 2.734375 -2.554688 3.078125 -3.390625 L 8.328125 -15.765625 C 8.367188 -15.816406 8.425781 -15.84375 8.5 -15.84375 C 8.582031 -15.84375 8.632812 -15.816406 8.65625 -15.765625 L 14.53125 -3.40625 C 15.09375 -2.175781 15.570312 -1.347656 15.96875 -0.921875 C 16.363281 -0.503906 16.835938 -0.296875 17.390625 -0.296875 Z M 5.96875 -8.75 L 10.203125 -8.75 L 7.953125 -13.484375 Z M 5.96875 -8.75 "/></g></g></g><g fill="#ffffff" fill-opacity="1"><g transform="translate(392.84891, 26.743838)"><g><path d="M 3.609375 -12.640625 C 3.609375 -11.992188 3.765625 -11.425781 4.078125 -10.9375 C 4.390625 -10.457031 4.769531 -10.054688 5.21875 -9.734375 C 5.664062 -9.410156 6.296875 -9 7.109375 -8.5 C 7.972656 -7.988281 8.644531 -7.554688 9.125 -7.203125 C 9.601562 -6.859375 10.015625 -6.414062 10.359375 -5.875 C 10.703125 -5.34375 10.875 -4.703125 10.875 -3.953125 C 10.875 -3.160156 10.671875 -2.441406 10.265625 -1.796875 C 9.867188 -1.148438 9.285156 -0.640625 8.515625 -0.265625 C 7.742188 0.109375 6.820312 0.296875 5.75 0.296875 C 4.46875 0.296875 3.296875 0.00390625 2.234375 -0.578125 C 2.148438 -0.617188 2.097656 -0.671875 2.078125 -0.734375 C 2.054688 -0.804688 2.035156 -0.910156 2.015625 -1.046875 L 1.6875 -4.421875 C 1.675781 -4.492188 1.710938 -4.535156 1.796875 -4.546875 C 1.890625 -4.566406 1.945312 -4.546875 1.96875 -4.484375 C 2.226562 -3.285156 2.71875 -2.253906 3.4375 -1.390625 C 4.164062 -0.523438 5.125 -0.09375 6.3125 -0.09375 C 7.144531 -0.09375 7.847656 -0.320312 8.421875 -0.78125 C 8.992188 -1.238281 9.28125 -1.960938 9.28125 -2.953125 C 9.28125 -3.703125 9.113281 -4.347656 8.78125 -4.890625 C 8.445312 -5.441406 8.039062 -5.894531 7.5625 -6.25 C 7.09375 -6.613281 6.453125 -7.035156 5.640625 -7.515625 C 4.847656 -7.992188 4.222656 -8.40625 3.765625 -8.75 C 3.304688 -9.101562 2.921875 -9.546875 2.609375 -10.078125 C 2.296875 -10.609375 2.140625 -11.226562 2.140625 -11.9375 C 2.140625 -12.769531 2.359375 -13.476562 2.796875 -14.0625 C 3.234375 -14.65625 3.804688 -15.097656 4.515625 -15.390625 C 5.222656 -15.679688 5.972656 -15.828125 6.765625 -15.828125 C 7.742188 -15.828125 8.710938 -15.625 9.671875 -15.21875 C 9.921875 -15.132812 10.046875 -14.992188 10.046875 -14.796875 L 10.21875 -11.9375 C 10.21875 -11.875 10.175781 -11.84375 10.09375 -11.84375 C 10.007812 -11.84375 9.960938 -11.875 9.953125 -11.9375 C 9.816406 -12.800781 9.457031 -13.601562 8.875 -14.34375 C 8.300781 -15.082031 7.46875 -15.453125 6.375 -15.453125 C 5.4375 -15.453125 4.738281 -15.179688 4.28125 -14.640625 C 3.832031 -14.097656 3.609375 -13.429688 3.609375 -12.640625 Z M 3.609375 -12.640625 "/></g></g></g><g fill="#ffffff" fill-opacity="1"><g transform="translate(408.146845, 26.743838)"><g><path d="M 4.703125 -15.09375 C 3.660156 -15.09375 2.875 -14.828125 2.34375 -14.296875 C 1.820312 -13.765625 1.445312 -12.863281 1.21875 -11.59375 C 1.21875 -11.5625 1.171875 -11.546875 1.078125 -11.546875 C 0.984375 -11.546875 0.9375 -11.5625 0.9375 -11.59375 C 1.007812 -12.1875 1.085938 -12.960938 1.171875 -13.921875 C 1.253906 -14.890625 1.296875 -15.613281 1.296875 -16.09375 C 1.296875 -16.175781 1.335938 -16.21875 1.421875 -16.21875 C 1.515625 -16.21875 1.5625 -16.175781 1.5625 -16.09375 C 1.5625 -15.726562 2.007812 -15.546875 2.90625 -15.546875 C 4.320312 -15.492188 5.988281 -15.46875 7.90625 -15.46875 C 8.882812 -15.46875 9.921875 -15.484375 11.015625 -15.515625 L 12.71875 -15.546875 C 13.3125 -15.546875 13.753906 -15.585938 14.046875 -15.671875 C 14.335938 -15.753906 14.523438 -15.921875 14.609375 -16.171875 C 14.617188 -16.234375 14.664062 -16.265625 14.75 -16.265625 C 14.832031 -16.265625 14.875 -16.234375 14.875 -16.171875 C 14.820312 -15.691406 14.769531 -14.960938 14.71875 -13.984375 C 14.675781 -13.003906 14.65625 -12.207031 14.65625 -11.59375 C 14.65625 -11.5625 14.601562 -11.546875 14.5 -11.546875 C 14.40625 -11.546875 14.359375 -11.5625 14.359375 -11.59375 C 14.304688 -12.882812 14.035156 -13.789062 13.546875 -14.3125 C 13.066406 -14.832031 12.273438 -15.09375 11.171875 -15.09375 C 10.421875 -15.09375 9.890625 -15.0625 9.578125 -15 C 9.265625 -14.9375 9.046875 -14.796875 8.921875 -14.578125 C 8.804688 -14.359375 8.75 -13.992188 8.75 -13.484375 L 8.75 -2.015625 C 8.75 -1.503906 8.804688 -1.128906 8.921875 -0.890625 C 9.046875 -0.660156 9.269531 -0.503906 9.59375 -0.421875 C 9.925781 -0.335938 10.453125 -0.296875 11.171875 -0.296875 C 11.222656 -0.296875 11.25 -0.242188 11.25 -0.140625 C 11.25 -0.046875 11.222656 0 11.171875 0 C 10.617188 0 10.175781 -0.0078125 9.84375 -0.03125 L 7.90625 -0.046875 L 6.046875 -0.03125 C 5.710938 -0.0078125 5.253906 0 4.671875 0 C 4.640625 0 4.625 -0.046875 4.625 -0.140625 C 4.625 -0.242188 4.640625 -0.296875 4.671875 -0.296875 C 5.390625 -0.296875 5.910156 -0.335938 6.234375 -0.421875 C 6.566406 -0.503906 6.796875 -0.664062 6.921875 -0.90625 C 7.046875 -1.144531 7.109375 -1.515625 7.109375 -2.015625 L 7.109375 -13.53125 C 7.109375 -14.039062 7.050781 -14.398438 6.9375 -14.609375 C 6.820312 -14.816406 6.609375 -14.945312 6.296875 -15 C 5.984375 -15.0625 5.453125 -15.09375 4.703125 -15.09375 Z M 4.703125 -15.09375 "/></g></g></g><g fill="#ffffff" fill-opacity="1"><g transform="translate(427.001612, 26.743838)"><g><path d="M 11.8125 -3.703125 C 11.8125 -3.734375 11.847656 -3.75 11.921875 -3.75 C 11.960938 -3.75 12.003906 -3.738281 12.046875 -3.71875 C 12.085938 -3.707031 12.109375 -3.6875 12.109375 -3.65625 C 11.960938 -2.613281 11.890625 -1.519531 11.890625 -0.375 C 11.890625 -0.238281 11.859375 -0.140625 11.796875 -0.078125 C 11.742188 -0.0234375 11.644531 0 11.5 0 L 1.0625 0 C 1.03125 0 1.015625 -0.046875 1.015625 -0.140625 C 1.015625 -0.242188 1.03125 -0.296875 1.0625 -0.296875 C 1.695312 -0.296875 2.160156 -0.335938 2.453125 -0.421875 C 2.742188 -0.503906 2.941406 -0.664062 3.046875 -0.90625 C 3.148438 -1.144531 3.203125 -1.515625 3.203125 -2.015625 L 3.203125 -13.53125 C 3.203125 -14.03125 3.148438 -14.394531 3.046875 -14.625 C 2.941406 -14.851562 2.742188 -15.015625 2.453125 -15.109375 C 2.160156 -15.203125 1.695312 -15.25 1.0625 -15.25 C 1.03125 -15.25 1.015625 -15.296875 1.015625 -15.390625 C 1.015625 -15.492188 1.03125 -15.546875 1.0625 -15.546875 L 11.0625 -15.546875 C 11.21875 -15.546875 11.296875 -15.472656 11.296875 -15.328125 L 11.34375 -12.265625 C 11.34375 -12.210938 11.300781 -12.179688 11.21875 -12.171875 C 11.132812 -12.160156 11.082031 -12.179688 11.0625 -12.234375 C 11.019531 -13.117188 10.753906 -13.804688 10.265625 -14.296875 C 9.785156 -14.785156 9.148438 -15.03125 8.359375 -15.03125 L 6.84375 -15.03125 C 6.257812 -15.03125 5.832031 -14.984375 5.5625 -14.890625 C 5.289062 -14.796875 5.097656 -14.632812 4.984375 -14.40625 C 4.878906 -14.1875 4.828125 -13.851562 4.828125 -13.40625 L 4.828125 -8.359375 L 7.859375 -8.359375 C 8.648438 -8.359375 9.21875 -8.488281 9.5625 -8.75 C 9.90625 -9.019531 10.078125 -9.46875 10.078125 -10.09375 C 10.078125 -10.132812 10.125 -10.15625 10.21875 -10.15625 C 10.320312 -10.15625 10.375 -10.132812 10.375 -10.09375 L 10.34375 -8.078125 C 10.34375 -7.597656 10.351562 -7.234375 10.375 -6.984375 L 10.390625 -5.796875 C 10.390625 -5.765625 10.335938 -5.75 10.234375 -5.75 C 10.140625 -5.75 10.09375 -5.765625 10.09375 -5.796875 C 10.09375 -6.523438 9.914062 -7.046875 9.5625 -7.359375 C 9.207031 -7.671875 8.613281 -7.828125 7.78125 -7.828125 L 4.828125 -7.828125 L 4.828125 -2.109375 C 4.828125 -1.648438 4.875 -1.3125 4.96875 -1.09375 C 5.070312 -0.875 5.253906 -0.722656 5.515625 -0.640625 C 5.785156 -0.554688 6.203125 -0.515625 6.765625 -0.515625 L 8.75 -0.515625 C 9.550781 -0.515625 10.21875 -0.796875 10.75 -1.359375 C 11.28125 -1.929688 11.632812 -2.710938 11.8125 -3.703125 Z M 11.8125 -3.703125 "/></g></g></g><g fill="#ffffff" fill-opacity="1"><g transform="translate(162.889395, 54.109727)"><g><path d="M 10.1875 -0.171875 C 10.226562 -0.171875 10.25 -0.140625 10.25 -0.078125 C 10.25 -0.0234375 10.226562 0 10.1875 0 C 10 0 9.710938 -0.0078125 9.328125 -0.03125 C 8.941406 -0.0507812 8.660156 -0.0625 8.484375 -0.0625 C 8.265625 -0.0625 7.992188 -0.0507812 7.671875 -0.03125 C 7.359375 -0.0078125 7.117188 0 6.953125 0 C 6.910156 0 6.890625 -0.0234375 6.890625 -0.078125 C 6.890625 -0.140625 6.910156 -0.171875 6.953125 -0.171875 C 7.316406 -0.171875 7.578125 -0.203125 7.734375 -0.265625 C 7.898438 -0.335938 7.984375 -0.457031 7.984375 -0.625 C 7.984375 -0.757812 7.921875 -0.96875 7.796875 -1.25 L 6.125 -4.828125 L 3.375 -4.828125 L 2.109375 -1.84375 C 1.972656 -1.519531 1.90625 -1.25 1.90625 -1.03125 C 1.90625 -0.457031 2.382812 -0.171875 3.34375 -0.171875 C 3.382812 -0.171875 3.40625 -0.140625 3.40625 -0.078125 C 3.40625 -0.0234375 3.382812 0 3.34375 0 C 3.164062 0 2.910156 -0.0078125 2.578125 -0.03125 C 2.210938 -0.0507812 1.894531 -0.0625 1.625 -0.0625 C 1.363281 -0.0625 1.070312 -0.0507812 0.75 -0.03125 C 0.457031 -0.0078125 0.210938 0 0.015625 0 C -0.0351562 0 -0.0625 -0.0234375 -0.0625 -0.078125 C -0.0625 -0.140625 -0.0351562 -0.171875 0.015625 -0.171875 C 0.285156 -0.171875 0.515625 -0.222656 0.703125 -0.328125 C 0.890625 -0.429688 1.066406 -0.609375 1.234375 -0.859375 C 1.410156 -1.117188 1.601562 -1.492188 1.8125 -1.984375 L 4.890625 -9.25 C 4.898438 -9.269531 4.929688 -9.28125 4.984375 -9.28125 C 5.035156 -9.28125 5.066406 -9.269531 5.078125 -9.25 L 8.515625 -2 C 8.847656 -1.28125 9.128906 -0.796875 9.359375 -0.546875 C 9.585938 -0.296875 9.863281 -0.171875 10.1875 -0.171875 Z M 3.5 -5.125 L 5.984375 -5.125 L 4.671875 -7.90625 Z M 3.5 -5.125 "/></g></g></g><g fill="#ffffff" fill-opacity="1"><g transform="translate(179.643222, 54.109727)"><g><path d="M 4.84375 -5.125 C 5.601562 -5.070312 6.21875 -4.816406 6.6875 -4.359375 C 7.164062 -3.910156 7.40625 -3.351562 7.40625 -2.6875 C 7.40625 -2.164062 7.273438 -1.695312 7.015625 -1.28125 C 6.765625 -0.863281 6.421875 -0.535156 5.984375 -0.296875 C 5.546875 -0.0546875 5.050781 0.0625 4.5 0.0625 C 4.1875 0.0625 3.835938 0.046875 3.453125 0.015625 C 3.316406 0.00390625 3.15625 -0.00390625 2.96875 -0.015625 C 2.789062 -0.0234375 2.585938 -0.03125 2.359375 -0.03125 L 1.375 -0.015625 C 1.195312 -0.00390625 0.945312 0 0.625 0 C 0.601562 0 0.59375 -0.0234375 0.59375 -0.078125 C 0.59375 -0.140625 0.601562 -0.171875 0.625 -0.171875 C 1 -0.171875 1.269531 -0.195312 1.4375 -0.25 C 1.613281 -0.300781 1.734375 -0.394531 1.796875 -0.53125 C 1.867188 -0.675781 1.90625 -0.894531 1.90625 -1.1875 L 1.90625 -7.9375 C 1.90625 -8.226562 1.875 -8.441406 1.8125 -8.578125 C 1.75 -8.710938 1.628906 -8.804688 1.453125 -8.859375 C 1.285156 -8.910156 1.019531 -8.9375 0.65625 -8.9375 C 0.625 -8.9375 0.609375 -8.960938 0.609375 -9.015625 C 0.609375 -9.078125 0.625 -9.109375 0.65625 -9.109375 L 1.375 -9.09375 C 1.78125 -9.070312 2.109375 -9.0625 2.359375 -9.0625 C 2.535156 -9.0625 2.695312 -9.066406 2.84375 -9.078125 C 3 -9.085938 3.128906 -9.097656 3.234375 -9.109375 C 3.535156 -9.140625 3.816406 -9.15625 4.078125 -9.15625 C 4.898438 -9.15625 5.515625 -8.976562 5.921875 -8.625 C 6.328125 -8.269531 6.53125 -7.804688 6.53125 -7.234375 C 6.53125 -6.765625 6.378906 -6.347656 6.078125 -5.984375 C 5.773438 -5.617188 5.363281 -5.332031 4.84375 -5.125 Z M 3.765625 -8.9375 C 3.503906 -8.9375 3.3125 -8.914062 3.1875 -8.875 C 3.070312 -8.832031 2.984375 -8.738281 2.921875 -8.59375 C 2.867188 -8.445312 2.84375 -8.21875 2.84375 -7.90625 L 2.84375 -5.125 L 3.5 -5.109375 C 4.207031 -5.109375 4.726562 -5.289062 5.0625 -5.65625 C 5.40625 -6.019531 5.578125 -6.503906 5.578125 -7.109375 C 5.578125 -7.660156 5.425781 -8.101562 5.125 -8.4375 C 4.832031 -8.769531 4.378906 -8.9375 3.765625 -8.9375 Z M 4.28125 -0.203125 C 4.988281 -0.203125 5.515625 -0.382812 5.859375 -0.75 C 6.210938 -1.113281 6.390625 -1.632812 6.390625 -2.3125 C 6.390625 -3.050781 6.171875 -3.648438 5.734375 -4.109375 C 5.304688 -4.566406 4.710938 -4.800781 3.953125 -4.8125 C 3.640625 -4.820312 3.269531 -4.8125 2.84375 -4.78125 L 2.84375 -1.1875 C 2.84375 -0.925781 2.878906 -0.726562 2.953125 -0.59375 C 3.023438 -0.457031 3.164062 -0.359375 3.375 -0.296875 C 3.582031 -0.234375 3.882812 -0.203125 4.28125 -0.203125 Z M 4.28125 -0.203125 "/></g></g></g><g fill="#ffffff" fill-opacity="1"><g transform="translate(194.29791, 54.109727)"><g><path d="M 5.328125 0.171875 C 4.429688 0.171875 3.628906 -0.0351562 2.921875 -0.453125 C 2.210938 -0.878906 1.664062 -1.453125 1.28125 -2.171875 C 0.90625 -2.898438 0.71875 -3.691406 0.71875 -4.546875 C 0.71875 -5.546875 0.96875 -6.398438 1.46875 -7.109375 C 1.976562 -7.828125 2.628906 -8.363281 3.421875 -8.71875 C 4.210938 -9.082031 5.019531 -9.265625 5.84375 -9.265625 C 6.769531 -9.265625 7.582031 -9.046875 8.28125 -8.609375 C 8.976562 -8.179688 9.515625 -7.613281 9.890625 -6.90625 C 10.265625 -6.195312 10.453125 -5.445312 10.453125 -4.65625 C 10.453125 -3.769531 10.21875 -2.957031 9.75 -2.21875 C 9.28125 -1.476562 8.65625 -0.894531 7.875 -0.46875 C 7.09375 -0.0390625 6.242188 0.171875 5.328125 0.171875 Z M 5.84375 -0.125 C 6.507812 -0.125 7.101562 -0.285156 7.625 -0.609375 C 8.15625 -0.929688 8.570312 -1.398438 8.875 -2.015625 C 9.1875 -2.640625 9.34375 -3.382812 9.34375 -4.25 C 9.34375 -5.15625 9.171875 -5.960938 8.828125 -6.671875 C 8.492188 -7.378906 8.015625 -7.929688 7.390625 -8.328125 C 6.773438 -8.734375 6.054688 -8.9375 5.234375 -8.9375 C 4.160156 -8.9375 3.320312 -8.585938 2.71875 -7.890625 C 2.125 -7.203125 1.828125 -6.257812 1.828125 -5.0625 C 1.828125 -4.144531 1.992188 -3.304688 2.328125 -2.546875 C 2.671875 -1.796875 3.144531 -1.203125 3.75 -0.765625 C 4.363281 -0.335938 5.0625 -0.125 5.84375 -0.125 Z M 5.84375 -0.125 "/></g></g></g><g fill="#ffffff" fill-opacity="1"><g transform="translate(211.984687, 54.109727)"><g><path d="M 5.90625 0.171875 C 4.84375 0.171875 3.914062 -0.03125 3.125 -0.4375 C 2.34375 -0.84375 1.742188 -1.394531 1.328125 -2.09375 C 0.921875 -2.800781 0.71875 -3.585938 0.71875 -4.453125 C 0.71875 -5.390625 0.957031 -6.222656 1.4375 -6.953125 C 1.914062 -7.679688 2.570312 -8.25 3.40625 -8.65625 C 4.25 -9.0625 5.203125 -9.265625 6.265625 -9.265625 C 6.742188 -9.265625 7.195312 -9.21875 7.625 -9.125 C 8.0625 -9.039062 8.414062 -8.914062 8.6875 -8.75 C 8.769531 -8.695312 8.816406 -8.65625 8.828125 -8.625 C 8.835938 -8.59375 8.847656 -8.519531 8.859375 -8.40625 L 9.03125 -6.78125 C 9.03125 -6.75 9.003906 -6.726562 8.953125 -6.71875 C 8.898438 -6.71875 8.867188 -6.734375 8.859375 -6.765625 C 8.648438 -7.460938 8.265625 -8 7.703125 -8.375 C 7.140625 -8.757812 6.453125 -8.953125 5.640625 -8.953125 C 4.421875 -8.953125 3.472656 -8.597656 2.796875 -7.890625 C 2.128906 -7.179688 1.796875 -6.207031 1.796875 -4.96875 C 1.796875 -4.03125 1.984375 -3.1875 2.359375 -2.4375 C 2.742188 -1.695312 3.273438 -1.117188 3.953125 -0.703125 C 4.640625 -0.285156 5.40625 -0.078125 6.25 -0.078125 C 6.75 -0.078125 7.132812 -0.117188 7.40625 -0.203125 C 7.675781 -0.285156 7.875 -0.453125 8 -0.703125 C 8.125 -0.960938 8.1875 -1.34375 8.1875 -1.84375 C 8.1875 -2.34375 8.15625 -2.691406 8.09375 -2.890625 C 8.03125 -3.085938 7.890625 -3.21875 7.671875 -3.28125 C 7.453125 -3.351562 7.078125 -3.390625 6.546875 -3.390625 C 6.484375 -3.390625 6.453125 -3.429688 6.453125 -3.515625 C 6.453125 -3.546875 6.457031 -3.570312 6.46875 -3.59375 C 6.488281 -3.613281 6.507812 -3.625 6.53125 -3.625 C 7.289062 -3.582031 7.90625 -3.5625 8.375 -3.5625 C 8.820312 -3.5625 9.296875 -3.570312 9.796875 -3.59375 C 9.816406 -3.59375 9.832031 -3.582031 9.84375 -3.5625 C 9.863281 -3.539062 9.875 -3.519531 9.875 -3.5 C 9.875 -3.425781 9.847656 -3.390625 9.796875 -3.390625 C 9.566406 -3.398438 9.398438 -3.367188 9.296875 -3.296875 C 9.203125 -3.222656 9.140625 -3.070312 9.109375 -2.84375 C 9.078125 -2.625 9.0625 -2.238281 9.0625 -1.6875 C 9.0625 -1.25 9.078125 -0.9375 9.109375 -0.75 C 9.148438 -0.570312 9.171875 -0.457031 9.171875 -0.40625 C 9.171875 -0.351562 9.160156 -0.316406 9.140625 -0.296875 C 9.117188 -0.273438 9.078125 -0.253906 9.015625 -0.234375 C 7.835938 0.0351562 6.800781 0.171875 5.90625 0.171875 Z M 5.90625 0.171875 "/></g></g></g><g fill="#ffffff" fill-opacity="1"><g transform="translate(228.913444, 54.109727)"><g><path d="M 10.1875 -0.171875 C 10.226562 -0.171875 10.25 -0.140625 10.25 -0.078125 C 10.25 -0.0234375 10.226562 0 10.1875 0 C 10 0 9.710938 -0.0078125 9.328125 -0.03125 C 8.941406 -0.0507812 8.660156 -0.0625 8.484375 -0.0625 C 8.265625 -0.0625 7.992188 -0.0507812 7.671875 -0.03125 C 7.359375 -0.0078125 7.117188 0 6.953125 0 C 6.910156 0 6.890625 -0.0234375 6.890625 -0.078125 C 6.890625 -0.140625 6.910156 -0.171875 6.953125 -0.171875 C 7.316406 -0.171875 7.578125 -0.203125 7.734375 -0.265625 C 7.898438 -0.335938 7.984375 -0.457031 7.984375 -0.625 C 7.984375 -0.757812 7.921875 -0.96875 7.796875 -1.25 L 6.125 -4.828125 L 3.375 -4.828125 L 2.109375 -1.84375 C 1.972656 -1.519531 1.90625 -1.25 1.90625 -1.03125 C 1.90625 -0.457031 2.382812 -0.171875 3.34375 -0.171875 C 3.382812 -0.171875 3.40625 -0.140625 3.40625 -0.078125 C 3.40625 -0.0234375 3.382812 0 3.34375 0 C 3.164062 0 2.910156 -0.0078125 2.578125 -0.03125 C 2.210938 -0.0507812 1.894531 -0.0625 1.625 -0.0625 C 1.363281 -0.0625 1.070312 -0.0507812 0.75 -0.03125 C 0.457031 -0.0078125 0.210938 0 0.015625 0 C -0.0351562 0 -0.0625 -0.0234375 -0.0625 -0.078125 C -0.0625 -0.140625 -0.0351562 -0.171875 0.015625 -0.171875 C 0.285156 -0.171875 0.515625 -0.222656 0.703125 -0.328125 C 0.890625 -0.429688 1.066406 -0.609375 1.234375 -0.859375 C 1.410156 -1.117188 1.601562 -1.492188 1.8125 -1.984375 L 4.890625 -9.25 C 4.898438 -9.269531 4.929688 -9.28125 4.984375 -9.28125 C 5.035156 -9.28125 5.066406 -9.269531 5.078125 -9.25 L 8.515625 -2 C 8.847656 -1.28125 9.128906 -0.796875 9.359375 -0.546875 C 9.585938 -0.296875 9.863281 -0.171875 10.1875 -0.171875 Z M 3.5 -5.125 L 5.984375 -5.125 L 4.671875 -7.90625 Z M 3.5 -5.125 "/></g></g></g><g fill="#ffffff" fill-opacity="1"><g transform="translate(245.667267, 54.109727)"><g><path d="M 4.421875 0.0625 C 4.140625 0.0625 3.8125 0.046875 3.4375 0.015625 C 3.300781 0.00390625 3.128906 -0.00390625 2.921875 -0.015625 C 2.710938 -0.0234375 2.484375 -0.03125 2.234375 -0.03125 L 1.234375 -0.015625 C 1.066406 -0.00390625 0.828125 0 0.515625 0 C 0.492188 0 0.484375 -0.0234375 0.484375 -0.078125 C 0.484375 -0.140625 0.492188 -0.171875 0.515625 -0.171875 C 0.878906 -0.171875 1.144531 -0.195312 1.3125 -0.25 C 1.488281 -0.300781 1.609375 -0.394531 1.671875 -0.53125 C 1.734375 -0.675781 1.765625 -0.894531 1.765625 -1.1875 L 1.765625 -7.9375 C 1.765625 -8.226562 1.734375 -8.441406 1.671875 -8.578125 C 1.617188 -8.710938 1.503906 -8.804688 1.328125 -8.859375 C 1.160156 -8.910156 0.894531 -8.9375 0.53125 -8.9375 C 0.507812 -8.9375 0.5 -8.960938 0.5 -9.015625 C 0.5 -9.078125 0.507812 -9.109375 0.53125 -9.109375 L 1.25 -9.09375 C 1.65625 -9.070312 1.984375 -9.0625 2.234375 -9.0625 C 2.597656 -9.0625 2.960938 -9.078125 3.328125 -9.109375 C 3.753906 -9.128906 4.050781 -9.140625 4.21875 -9.140625 C 5.226562 -9.140625 6.117188 -8.941406 6.890625 -8.546875 C 7.671875 -8.160156 8.273438 -7.632812 8.703125 -6.96875 C 9.140625 -6.300781 9.359375 -5.546875 9.359375 -4.703125 C 9.359375 -3.765625 9.132812 -2.929688 8.6875 -2.203125 C 8.25 -1.484375 7.648438 -0.925781 6.890625 -0.53125 C 6.140625 -0.132812 5.316406 0.0625 4.421875 0.0625 Z M 4.265625 -0.15625 C 5.046875 -0.15625 5.738281 -0.316406 6.34375 -0.640625 C 6.945312 -0.972656 7.414062 -1.457031 7.75 -2.09375 C 8.082031 -2.726562 8.25 -3.492188 8.25 -4.390625 C 8.25 -5.234375 8.085938 -6 7.765625 -6.6875 C 7.441406 -7.375 6.984375 -7.914062 6.390625 -8.3125 C 5.804688 -8.71875 5.125 -8.921875 4.34375 -8.921875 C 3.925781 -8.921875 3.601562 -8.894531 3.375 -8.84375 C 3.144531 -8.800781 2.976562 -8.707031 2.875 -8.5625 C 2.769531 -8.414062 2.71875 -8.195312 2.71875 -7.90625 L 2.71875 -1.34375 C 2.71875 -1.050781 2.753906 -0.820312 2.828125 -0.65625 C 2.910156 -0.488281 3.066406 -0.363281 3.296875 -0.28125 C 3.523438 -0.195312 3.847656 -0.15625 4.265625 -0.15625 Z M 4.265625 -0.15625 "/></g></g></g><g fill="#ffffff" fill-opacity="1"><g transform="translate(262.260739, 54.109727)"><g><path d="M 5.328125 0.171875 C 4.429688 0.171875 3.628906 -0.0351562 2.921875 -0.453125 C 2.210938 -0.878906 1.664062 -1.453125 1.28125 -2.171875 C 0.90625 -2.898438 0.71875 -3.691406 0.71875 -4.546875 C 0.71875 -5.546875 0.96875 -6.398438 1.46875 -7.109375 C 1.976562 -7.828125 2.628906 -8.363281 3.421875 -8.71875 C 4.210938 -9.082031 5.019531 -9.265625 5.84375 -9.265625 C 6.769531 -9.265625 7.582031 -9.046875 8.28125 -8.609375 C 8.976562 -8.179688 9.515625 -7.613281 9.890625 -6.90625 C 10.265625 -6.195312 10.453125 -5.445312 10.453125 -4.65625 C 10.453125 -3.769531 10.21875 -2.957031 9.75 -2.21875 C 9.28125 -1.476562 8.65625 -0.894531 7.875 -0.46875 C 7.09375 -0.0390625 6.242188 0.171875 5.328125 0.171875 Z M 5.84375 -0.125 C 6.507812 -0.125 7.101562 -0.285156 7.625 -0.609375 C 8.15625 -0.929688 8.570312 -1.398438 8.875 -2.015625 C 9.1875 -2.640625 9.34375 -3.382812 9.34375 -4.25 C 9.34375 -5.15625 9.171875 -5.960938 8.828125 -6.671875 C 8.492188 -7.378906 8.015625 -7.929688 7.390625 -8.328125 C 6.773438 -8.734375 6.054688 -8.9375 5.234375 -8.9375 C 4.160156 -8.9375 3.320312 -8.585938 2.71875 -7.890625 C 2.125 -7.203125 1.828125 -6.257812 1.828125 -5.0625 C 1.828125 -4.144531 1.992188 -3.304688 2.328125 -2.546875 C 2.671875 -1.796875 3.144531 -1.203125 3.75 -0.765625 C 4.363281 -0.335938 5.0625 -0.125 5.84375 -0.125 Z M 5.84375 -0.125 "/></g></g></g><g fill="#ffffff" fill-opacity="1"><g transform="translate(279.947518, 54.109727)"><g><path d="M 2.109375 -7.40625 C 2.109375 -7.03125 2.203125 -6.695312 2.390625 -6.40625 C 2.578125 -6.125 2.800781 -5.890625 3.0625 -5.703125 C 3.320312 -5.515625 3.691406 -5.273438 4.171875 -4.984375 C 4.671875 -4.679688 5.0625 -4.425781 5.34375 -4.21875 C 5.625 -4.019531 5.863281 -3.757812 6.0625 -3.4375 C 6.269531 -3.125 6.375 -2.75 6.375 -2.3125 C 6.375 -1.851562 6.253906 -1.429688 6.015625 -1.046875 C 5.785156 -0.671875 5.441406 -0.375 4.984375 -0.15625 C 4.535156 0.0625 4 0.171875 3.375 0.171875 C 2.625 0.171875 1.9375 0.00390625 1.3125 -0.328125 C 1.257812 -0.359375 1.226562 -0.394531 1.21875 -0.4375 C 1.207031 -0.476562 1.195312 -0.535156 1.1875 -0.609375 L 0.984375 -2.59375 C 0.984375 -2.632812 1.007812 -2.660156 1.0625 -2.671875 C 1.113281 -2.679688 1.144531 -2.664062 1.15625 -2.625 C 1.3125 -1.925781 1.597656 -1.320312 2.015625 -0.8125 C 2.441406 -0.3125 3.003906 -0.0625 3.703125 -0.0625 C 4.191406 -0.0625 4.601562 -0.191406 4.9375 -0.453125 C 5.269531 -0.722656 5.4375 -1.148438 5.4375 -1.734375 C 5.4375 -2.171875 5.335938 -2.550781 5.140625 -2.875 C 4.953125 -3.195312 4.71875 -3.460938 4.4375 -3.671875 C 4.164062 -3.878906 3.789062 -4.125 3.3125 -4.40625 C 2.84375 -4.6875 2.472656 -4.925781 2.203125 -5.125 C 1.941406 -5.332031 1.71875 -5.59375 1.53125 -5.90625 C 1.34375 -6.21875 1.25 -6.582031 1.25 -7 C 1.25 -7.476562 1.378906 -7.890625 1.640625 -8.234375 C 1.898438 -8.585938 2.234375 -8.847656 2.640625 -9.015625 C 3.054688 -9.179688 3.5 -9.265625 3.96875 -9.265625 C 4.539062 -9.265625 5.109375 -9.148438 5.671875 -8.921875 C 5.816406 -8.867188 5.890625 -8.785156 5.890625 -8.671875 L 5.984375 -7 C 5.984375 -6.957031 5.957031 -6.9375 5.90625 -6.9375 C 5.863281 -6.9375 5.835938 -6.957031 5.828125 -7 C 5.753906 -7.5 5.546875 -7.960938 5.203125 -8.390625 C 4.859375 -8.828125 4.367188 -9.046875 3.734375 -9.046875 C 3.191406 -9.046875 2.785156 -8.890625 2.515625 -8.578125 C 2.242188 -8.265625 2.109375 -7.875 2.109375 -7.40625 Z M 2.109375 -7.40625 "/></g></g></g></svg>